<svg width="50" height="50" viewBox="0 0 50 50" fill="none" xmlns="http://www.w3.org/2000/svg">
<path d="M16.6666 25.1083C20.8229 25.1083 23.9583 21.9729 23.9583 17.8167C23.9583 13.6604 20.8229 10.525 16.6666 10.525C12.5104 10.525 9.37496 13.6604 9.37496 17.8167C9.37496 21.9729 12.5104 25.1083 16.6666 25.1083ZM18.75 27.0833H14.5833C8.83954 27.0833 4.16663 31.7562 4.16663 37.5V39.5833H29.1666V37.5C29.1666 31.7562 24.4937 27.0833 18.75 27.0833ZM42.2791 17.275L33.3208 26.2167L30.6291 23.525L27.6833 26.4708L33.3208 32.1042L45.2208 20.225L42.2791 17.275Z" fill="white"/>
</svg>
