<svg width="575" height="344" viewBox="0 0 575 344" fill="none" xmlns="http://www.w3.org/2000/svg">
<g clip-path="url(#clip0_243_910)">
<path d="M440.234 340.11C432.872 333.885 428.4 324.052 429.573 314.479C430.746 304.907 438.009 296.107 447.43 294.074C456.851 292.041 467.591 297.668 470.452 306.878C472.027 289.122 473.842 270.623 483.275 255.503C491.817 241.812 506.612 232.016 522.646 230.263C538.68 228.511 555.561 235.13 565.561 247.794C575.561 260.458 578.009 278.868 571.006 293.407C565.846 304.118 556.341 312.089 546.382 318.573C514.2 339.351 475.603 347.801 437.691 342.367L440.234 340.11Z" fill="#193636"/>
<path d="M549.705 235.497C536.475 246.28 524.338 258.341 513.47 271.503C496.46 292.032 482.696 315.049 472.656 339.752C471.921 341.554 474.846 342.338 475.573 340.556C491.999 300.409 518.222 265.024 551.844 237.637C553.354 236.407 551.203 234.277 549.705 235.497Z" fill="white"/>
<path d="M185.102 338.418C195.213 329.869 201.354 316.363 199.744 303.215C198.133 290.067 188.157 277.98 175.217 275.188C162.277 272.396 147.527 280.125 143.596 292.774C141.433 268.387 138.941 242.979 125.984 222.211C114.252 203.407 93.9314 189.951 71.9088 187.544C49.8863 185.137 26.6993 194.229 12.9646 211.622C-0.770035 229.016 -4.13291 254.303 5.4865 274.273C12.5728 288.984 25.6282 299.932 39.307 308.838C82.9473 337.254 137.083 349.105 188.594 341.519" fill="#193636"/>
<path d="M34.7424 194.733C52.9137 209.544 69.584 226.108 84.5122 244.187C99.4427 262.248 112.587 281.715 123.762 302.315C130.007 313.871 135.618 325.759 140.569 337.927C141.578 340.402 137.562 341.479 136.564 339.032C127.795 317.58 116.946 297.04 104.173 277.706C91.4615 258.442 76.9129 240.457 60.7312 224.004C51.5788 214.703 41.9223 205.912 31.8053 197.672C29.7316 195.982 32.6858 193.057 34.7424 194.733L34.7424 194.733Z" fill="white"/>
<path d="M412.744 343.247H171.509V95.5668C171.509 42.871 214.351 0 267.011 0H317.242C369.902 0 412.744 42.871 412.744 95.5668V343.247Z" fill="#F2F2F2"/>
<path d="M362.514 343.247H171.509V95.5667C171.456 75.3749 177.846 55.6934 189.747 39.3877C190.186 38.7893 190.624 38.1987 191.075 37.6145C196.832 30.0591 203.682 23.4053 211.401 17.8725C211.837 17.555 212.275 17.2431 212.719 16.9311C219.177 12.4586 226.164 8.80242 233.519 6.04577C233.956 5.8801 234.401 5.71411 234.846 5.5549C241.498 3.17934 248.394 1.55209 255.406 0.703202C255.84 0.643778 256.287 0.597279 256.733 0.550778C263.566 -0.180338 270.458 -0.180338 277.291 0.550778C277.736 0.597279 278.183 0.643773 278.622 0.703838C285.633 1.55278 292.527 3.17983 299.177 5.55493C299.622 5.71414 300.067 5.88012 300.505 6.04611C307.77 8.76799 314.674 12.3696 321.064 16.7706C321.508 17.0758 321.952 17.3878 322.39 17.6997C326.716 20.7901 330.78 24.233 334.54 27.9932C337.555 31.0092 340.365 34.2242 342.95 37.6165C343.4 38.1987 343.837 38.7894 344.275 39.3868C356.177 55.6926 362.567 75.3745 362.514 95.5667V343.247Z" fill="#DE9F4C"/>
<path d="M346.983 232.469C352.823 232.469 357.557 227.731 357.557 221.887C357.557 216.043 352.823 211.305 346.983 211.305C341.142 211.305 336.408 216.043 336.408 221.887C336.408 227.731 341.142 232.469 346.983 232.469Z" fill="#664FA7"/>
<path d="M392.982 335.829H384.879L381.024 304.554L392.983 304.555L392.982 335.829Z" fill="#FFB8B8"/>
<path d="M379.091 333.512H394.718V343.357H369.252C369.252 342.064 369.507 340.784 370.001 339.59C370.496 338.395 371.22 337.31 372.134 336.395C373.048 335.481 374.132 334.756 375.326 334.261C376.52 333.766 377.799 333.512 379.091 333.512Z" fill="#2F2E41"/>
<path d="M433.298 335.829H425.195L421.34 304.554L433.3 304.555L433.298 335.829Z" fill="#FFB8B8"/>
<path d="M419.407 333.512H435.034V343.357H409.568C409.568 342.064 409.823 340.784 410.317 339.59C410.812 338.395 411.537 337.31 412.45 336.395C413.364 335.481 414.449 334.756 415.642 334.261C416.836 333.766 418.115 333.512 419.407 333.512Z" fill="#2F2E41"/>
<path d="M352.335 223.983C351.752 223.124 351.364 222.147 351.199 221.121C351.035 220.096 351.096 219.047 351.381 218.048C351.665 217.049 352.164 216.124 352.844 215.339C353.524 214.555 354.368 213.928 355.316 213.505L382.86 137.537L396.414 144.938L364.964 217.536C365.569 219.177 365.552 220.983 364.915 222.611C364.279 224.24 363.068 225.578 361.511 226.373C359.954 227.168 358.16 227.363 356.469 226.923C354.778 226.482 353.307 225.436 352.335 223.983Z" fill="#FFB8B8"/>
<path d="M429.159 238.258C428.259 237.742 427.482 237.034 426.885 236.184C426.287 235.335 425.883 234.365 425.701 233.342C425.519 232.32 425.563 231.27 425.83 230.266C426.097 229.262 426.581 228.329 427.247 227.533L418.714 147.171L434.138 147.877L437.685 226.923C438.948 228.132 439.723 229.762 439.865 231.505C440.006 233.248 439.504 234.983 438.453 236.38C437.403 237.777 435.876 238.74 434.163 239.086C432.45 239.432 430.67 239.138 429.159 238.258Z" fill="#FFB8B8"/>
<path d="M404.553 123.465C413.518 123.465 420.786 116.193 420.786 107.222C420.786 98.2506 413.518 90.978 404.553 90.978C395.588 90.978 388.32 98.2506 388.32 107.222C388.32 116.193 395.588 123.465 404.553 123.465Z" fill="#FFB8B8"/>
<path d="M429.055 219.982H380.116L380.175 219.6C380.263 219.031 388.897 162.433 382.529 143.917C381.89 142.097 381.947 140.105 382.687 138.325C383.428 136.544 384.8 135.101 386.541 134.272H386.541C395.643 129.983 413.115 124.701 427.862 137.519C430.032 139.436 431.726 141.832 432.811 144.517C433.896 147.203 434.342 150.104 434.114 152.992L429.055 219.982Z" fill="#664FA7"/>
<path d="M389.516 170.797L367.483 166.324L377.811 141.834C378.429 139.462 379.962 137.432 382.073 136.19C384.185 134.947 386.703 134.594 389.075 135.206C391.447 135.819 393.479 137.348 394.726 139.458C395.972 141.568 396.332 144.087 395.725 146.462L389.516 170.797Z" fill="#664FA7"/>
<path d="M417.734 179.102L416.41 148.718C415.405 143.007 418.673 137.607 423.698 136.725C428.725 135.845 433.633 139.807 434.642 145.56L439.621 173.951L417.734 179.102Z" fill="#664FA7"/>
<path d="M427.427 216.344C435.302 246.354 436.161 284.51 434.036 326.13L423.462 324.807L404.295 245.444L393.72 326.13L381.824 325.469C378.27 281.799 374.809 244.309 380.502 219.651L427.427 216.344Z" fill="#2F2E41"/>
<path d="M415.249 119.775C412.22 123.003 406.596 121.27 406.202 116.86C406.171 116.518 406.173 116.174 406.208 115.832C406.412 113.878 407.54 112.105 407.27 110.042C407.209 109.529 407.017 109.04 406.714 108.621C404.301 105.387 398.637 110.067 396.359 107.14C394.963 105.345 396.604 102.519 395.532 100.513C394.118 97.8651 389.929 99.1713 387.301 97.7212C384.378 96.1078 384.553 91.62 386.477 88.8903C388.824 85.5612 392.938 83.7849 397.001 83.5288C401.065 83.2728 405.1 84.3719 408.893 85.8512C413.203 87.5319 417.477 89.8547 420.129 93.647C423.354 98.2588 423.665 104.459 422.052 109.852C421.07 113.132 417.722 117.139 415.249 119.775Z" fill="#2F2E41"/>
<path d="M555.16 343.673H67.2073C66.999 343.672 66.7994 343.589 66.6524 343.441C66.5053 343.293 66.4227 343.094 66.4227 342.885C66.4227 342.677 66.5053 342.477 66.6524 342.329C66.7994 342.182 66.999 342.098 67.2073 342.098H555.16C555.369 342.098 555.568 342.182 555.715 342.329C555.862 342.477 555.945 342.677 555.945 342.885C555.945 343.094 555.862 343.293 555.715 343.441C555.568 343.589 555.369 343.672 555.16 343.673Z" fill="#3F3D56"/>
<path d="M309.971 271.489H224.052C222.92 271.495 221.832 271.052 221.027 270.256C220.222 269.461 219.764 268.379 219.756 267.246V75.3391C219.764 74.2068 220.222 73.1242 221.027 72.3288C221.832 71.5334 222.92 71.0902 224.052 71.0963H309.971C311.103 71.0902 312.191 71.5334 312.996 72.3288C313.801 73.1242 314.258 74.2068 314.267 75.3391V267.246C314.258 268.379 313.801 269.461 312.996 270.256C312.191 271.052 311.103 271.495 309.971 271.489Z" fill="white"/>
<path d="M314.267 133.191H219.756V134.514H314.267V133.191Z" fill="#CCCCCC"/>
<path d="M314.598 208.66H220.086V209.982H314.598V208.66Z" fill="#CCCCCC"/>
<path d="M250.819 71.0967H249.497V272.151H250.819V71.0967Z" fill="#CCCCCC"/>
<path d="M283.865 71.0967H282.543V272.151H283.865V71.0967Z" fill="#CCCCCC"/>
</g>
<defs>
<clipPath id="clip0_243_910">
<rect width="575" height="344" fill="white"/>
</clipPath>
</defs>
</svg>
