<svg width="527" height="367" viewBox="0 0 527 367" fill="none" xmlns="http://www.w3.org/2000/svg">
<path d="M105.001 367C162.992 367 210.003 363.426 210.003 359.018C210.003 354.609 162.992 351.036 105.001 351.036C47.0107 351.036 0 354.609 0 359.018C0 363.426 47.0107 367 105.001 367Z" fill="#E6E6E6"/>
<path d="M80.261 81.4311C98.5344 73.6516 121.294 78.5806 143.522 82.0015C143.728 77.8588 146.236 72.8168 143.609 69.9266C140.419 66.4153 140.712 62.7259 142.632 59.0152C147.542 49.5264 140.508 39.4298 133.405 31.0347C131.805 29.1467 129.781 27.6633 127.5 26.7049C125.219 25.7466 122.744 25.3403 120.277 25.5191L107.12 26.4598C103.918 26.6887 100.863 27.8907 98.3627 29.9052C95.8623 31.9196 94.0363 34.6504 93.1288 37.732C89.9873 42.0085 88.3058 46.2732 89.3645 50.5157C84.6589 53.7344 83.8683 57.6197 85.9828 61.9997C87.7758 64.7574 87.7568 67.4419 85.9013 70.052C83.4645 73.3798 81.5981 77.0903 80.3787 81.0315L80.261 81.4311Z" fill="#2F2E41"/>
<path d="M514.512 317.265H142.078C138.766 317.265 135.59 315.949 133.248 313.604C130.906 311.26 129.59 308.081 129.59 304.766C264.597 289.061 397.067 289.061 527 304.766C527 308.081 525.684 311.26 523.342 313.604C521 315.949 517.824 317.265 514.512 317.265Z" fill="#2F2E41"/>
<path d="M527 305.501L129.59 304.766L175.649 227.196L175.869 226.828V55.8726C175.869 53.7975 176.277 51.7428 177.07 49.8256C177.864 47.9085 179.026 46.1666 180.492 44.6993C181.958 43.2321 183.699 42.0682 185.614 41.2742C187.529 40.4802 189.582 40.0716 191.655 40.0718H462.731C464.804 40.0716 466.857 40.4802 468.773 41.2742C470.688 42.0682 472.428 43.2321 473.894 44.6993C475.36 46.1666 476.523 47.9085 477.316 49.8256C478.109 51.7428 478.518 53.7975 478.517 55.8726V228.005L527 305.501Z" fill="#3F3D56"/>
<path d="M191.295 51.1006C189.932 51.1021 188.625 51.6449 187.661 52.6098C186.697 53.5746 186.155 54.8829 186.153 56.2474V212.123C186.155 213.488 186.697 214.796 187.661 215.761C188.625 216.725 189.932 217.268 191.295 217.27H465.295C466.658 217.268 467.965 216.725 468.929 215.761C469.893 214.796 470.435 213.488 470.437 212.123V56.2474C470.435 54.8829 469.893 53.5747 468.929 52.6098C467.965 51.6449 466.658 51.1022 465.295 51.1006H191.295Z" fill="white"/>
<path d="M192.443 237.857C192.022 237.858 191.61 237.979 191.255 238.207C190.9 238.434 190.618 238.759 190.441 239.141L176.249 270.022C176.095 270.358 176.027 270.728 176.053 271.097C176.078 271.466 176.196 271.823 176.395 272.134C176.595 272.446 176.869 272.702 177.193 272.879C177.518 273.057 177.881 273.15 178.251 273.15H476.702C477.077 273.15 477.447 273.054 477.775 272.871C478.103 272.688 478.379 272.424 478.576 272.104C478.774 271.784 478.886 271.419 478.903 271.043C478.92 270.668 478.84 270.294 478.672 269.958L463.246 239.077C463.064 238.71 462.783 238.401 462.435 238.185C462.087 237.97 461.685 237.856 461.276 237.857H192.443Z" fill="#2F2E41"/>
<path d="M327.193 48.5275C329.019 48.5275 330.499 47.0462 330.499 45.2188C330.499 43.3915 329.019 41.9102 327.193 41.9102C325.368 41.9102 323.888 43.3915 323.888 45.2188C323.888 47.0462 325.368 48.5275 327.193 48.5275Z" fill="white"/>
<path d="M297.858 279.032C297.373 279.033 296.903 279.193 296.518 279.488C296.134 279.783 295.857 280.196 295.73 280.664L292.17 293.899C292.082 294.226 292.071 294.569 292.136 294.901C292.202 295.233 292.343 295.546 292.549 295.814C292.755 296.083 293.019 296.301 293.323 296.451C293.626 296.601 293.96 296.679 294.298 296.678H362C362.351 296.679 362.697 296.594 363.01 296.433C363.322 296.272 363.591 296.039 363.795 295.752C363.999 295.466 364.131 295.134 364.181 294.786C364.231 294.438 364.197 294.083 364.082 293.751L359.505 280.516C359.355 280.083 359.074 279.707 358.7 279.441C358.327 279.175 357.881 279.032 357.422 279.032H297.858Z" fill="#2F2E41"/>
<path d="M478.517 224.255V227.196H175.648L175.876 226.828V224.255H478.517Z" fill="#2F2E41"/>
<path d="M470.07 102.937C498.469 102.937 521.491 79.8935 521.491 51.4683C521.491 23.0432 498.469 0 470.07 0C441.671 0 418.649 23.0432 418.649 51.4683C418.649 79.8935 441.671 102.937 470.07 102.937Z" fill="#DE9F4C"/>
<path d="M491.373 73.8936H448.767C447.988 73.8929 447.241 73.5828 446.69 73.0314C446.139 72.48 445.829 71.7324 445.828 70.9526V45.2184C445.829 44.4386 446.139 43.691 446.69 43.1397C447.241 42.5883 447.988 42.2782 448.767 42.2773H491.373C492.152 42.2782 492.899 42.5883 493.45 43.1397C494 43.691 494.31 44.4386 494.311 45.2184V70.9526C494.31 71.7323 494 72.48 493.45 73.0314C492.899 73.5828 492.152 73.8929 491.373 73.8936ZM448.767 45.2184V70.9526H491.375L491.373 45.2184L448.767 45.2184Z" fill="white"/>
<path d="M483.292 45.2185H456.847V33.4543C456.847 24.9334 462.408 18.749 470.07 18.749C477.731 18.749 483.292 24.9334 483.292 33.4543L483.292 45.2185ZM459.786 42.2774H480.354V33.4543C480.354 26.5278 476.125 21.6901 470.07 21.6901C464.015 21.6901 459.786 26.5278 459.786 33.4543L459.786 42.2774Z" fill="white"/>
<path d="M470.07 60.2913C471.693 60.2913 473.008 58.9745 473.008 57.3502C473.008 55.7259 471.693 54.4092 470.07 54.4092C468.447 54.4092 467.131 55.7259 467.131 57.3502C467.131 58.9745 468.447 60.2913 470.07 60.2913Z" fill="white"/>
<path d="M434.174 164.399H222.417C221.377 164.397 220.38 163.983 219.645 163.248C218.91 162.512 218.496 161.514 218.495 160.474V107.897C218.496 106.857 218.91 105.859 219.645 105.123C220.38 104.387 221.377 103.973 222.417 103.972H434.174C435.213 103.973 436.21 104.387 436.945 105.123C437.68 105.859 438.094 106.857 438.095 107.897V160.474C438.094 161.514 437.68 162.512 436.945 163.248C436.21 163.983 435.213 164.397 434.174 164.399ZM222.417 105.542C221.793 105.543 221.195 105.791 220.754 106.233C220.313 106.674 220.064 107.273 220.064 107.897V160.474C220.064 161.098 220.313 161.697 220.754 162.138C221.195 162.58 221.793 162.828 222.417 162.829H434.174C434.797 162.828 435.395 162.58 435.837 162.138C436.278 161.697 436.526 161.098 436.526 160.474V107.897C436.526 107.273 436.278 106.674 435.837 106.233C435.395 105.791 434.797 105.543 434.174 105.542L222.417 105.542Z" fill="#E6E6E6"/>
<path d="M255.319 148.156C264.141 148.156 271.293 140.998 271.293 132.168C271.293 123.338 264.141 116.179 255.319 116.179C246.497 116.179 239.346 123.338 239.346 132.168C239.346 140.998 246.497 148.156 255.319 148.156Z" fill="#E6E6E6"/>
<path d="M292.211 121.509C291.861 121.508 291.515 121.577 291.191 121.71C290.868 121.844 290.574 122.04 290.326 122.288C290.078 122.535 289.882 122.829 289.748 123.153C289.614 123.476 289.545 123.823 289.545 124.174C289.545 124.524 289.614 124.871 289.748 125.194C289.882 125.518 290.078 125.812 290.326 126.059C290.574 126.307 290.868 126.503 291.191 126.637C291.515 126.77 291.861 126.839 292.211 126.838H417.719C418.425 126.838 419.103 126.558 419.602 126.058C420.101 125.558 420.382 124.88 420.382 124.174C420.382 123.467 420.101 122.789 419.602 122.289C419.103 121.79 418.425 121.509 417.719 121.509H292.211Z" fill="#E6E6E6"/>
<path d="M292.211 137.498C291.505 137.498 290.828 137.778 290.329 138.278C289.829 138.778 289.549 139.456 289.549 140.162C289.549 140.869 289.829 141.547 290.329 142.047C290.828 142.546 291.505 142.827 292.211 142.827H346.218C346.924 142.827 347.601 142.546 348.1 142.047C348.6 141.547 348.88 140.869 348.88 140.162C348.88 139.456 348.6 138.778 348.1 138.278C347.601 137.778 346.924 137.498 346.218 137.498H292.211Z" fill="#E6E6E6"/>
<path d="M175.128 138.575L135.983 159.406L135.487 142.047C148.264 139.912 160.419 136.195 171.659 130.144L175.753 120.02C176.199 118.917 176.924 117.949 177.857 117.211C178.79 116.473 179.898 115.99 181.074 115.811C182.249 115.631 183.451 115.76 184.561 116.186C185.672 116.612 186.652 117.319 187.407 118.239C188.511 119.584 189.063 121.3 188.951 123.037C188.839 124.775 188.071 126.405 186.803 127.597L175.128 138.575Z" fill="#FFB8B8"/>
<path d="M79.4807 258.843C79.1952 257.795 79.1345 256.698 79.3028 255.624C79.4711 254.551 79.8645 253.525 80.4572 252.615L89.0562 239.406C91.0901 236.282 94.2109 234.025 97.8131 233.074C101.415 232.123 105.242 232.545 108.551 234.258C104.937 240.415 105.441 245.817 109.799 250.511C103.034 253.817 96.7807 258.083 91.234 263.179C90.2214 263.87 89.0585 264.309 87.8422 264.459C86.6259 264.609 85.3913 264.466 84.2414 264.042C83.0915 263.617 82.0596 262.924 81.2315 262.02C80.4034 261.116 79.8031 260.027 79.4807 258.843Z" fill="#2F2E41"/>
<path d="M176.91 241.572C175.609 243.743 173.772 245.542 171.576 246.798C169.38 248.053 166.898 248.723 164.369 248.742L107.243 249.175L104.766 234.792L130.036 227.353L108.73 210.986L132.018 183.708L174.318 223.169C176.79 225.476 178.397 228.562 178.869 231.911C179.34 235.261 178.649 238.671 176.91 241.572Z" fill="#2F2E41"/>
<path d="M98.3242 339.937H84.9455C72.9334 257.522 60.7063 174.878 96.8377 144.031L139.451 150.975L134.001 187.18L110.216 214.458L98.3242 339.937Z" fill="#2F2E41"/>
<path d="M110.085 358.605C109.037 358.891 107.941 358.952 106.869 358.784C105.796 358.615 104.772 358.222 103.862 357.628L89.3357 355.674C86.2143 353.639 83.9595 350.515 83.0089 346.909C82.0584 343.304 82.4798 339.473 84.1913 336.161C90.3431 339.778 95.7395 339.274 100.429 334.911C103.742 341.608 109.202 341.199 114.416 346.841C115.106 347.855 115.545 349.019 115.695 350.236C115.845 351.453 115.702 352.689 115.278 353.84C114.854 354.991 114.162 356.024 113.258 356.853C112.355 357.682 111.267 358.283 110.085 358.605Z" fill="#2F2E41"/>
<path d="M130.036 88.9792L105.261 83.0277C109.376 74.5973 109.715 65.2167 107.739 55.2538L124.586 54.7578C125.114 67.147 126.711 78.7217 130.036 88.9792Z" fill="#FFB8B8"/>
<path d="M136.846 165.908C118.81 178.209 106.067 166.328 96.3421 147.999C97.6934 136.783 95.5054 123.36 91.4531 108.776C89.6509 102.343 90.3238 95.4674 93.3388 89.5069C96.3538 83.5464 101.492 78.9339 107.739 76.5801L129.045 85.5074C147.137 100.268 150.698 116.257 143.911 133.12L136.846 165.908Z" fill="#664FA7"/>
<path d="M84.9455 101.378L65.1253 111.794L100.306 132.624L105.201 144.71C105.528 145.517 105.687 146.382 105.669 147.252C105.651 148.122 105.456 148.979 105.096 149.772C104.736 150.564 104.219 151.275 103.575 151.861C102.932 152.446 102.176 152.895 101.354 153.178C100.419 153.501 99.423 153.603 98.4427 153.475C97.4623 153.348 96.5247 152.995 95.7033 152.445C94.8819 151.894 94.1989 151.161 93.7079 150.302C93.2169 149.443 92.9312 148.483 92.8731 147.495L92.3781 139.072L47.6636 124.302C46.1571 123.805 44.7834 122.97 43.6467 121.863C42.51 120.755 41.64 119.403 41.1026 117.909C40.3193 115.731 40.2795 113.355 40.9892 111.152C41.699 108.949 43.1184 107.044 45.0253 105.734L80.9815 81.0439L84.9455 101.378Z" fill="#FFB8B8"/>
<path d="M104.766 103.362C96.4995 99.736 88.9828 103.675 79.495 106.834L78.0085 80.5477C87.4294 75.5218 96.4117 74.1667 104.766 78.0679L104.766 103.362Z" fill="#664FA7"/>
<path d="M114.654 67.7781C123.39 67.7781 130.472 60.6896 130.472 51.9454C130.472 43.2013 123.39 36.1128 114.654 36.1128C105.918 36.1128 98.836 43.2013 98.836 51.9454C98.836 60.6896 105.918 67.7781 114.654 67.7781Z" fill="#FFB8B8"/>
<path d="M133.578 49.948C117.916 51.4833 105.983 48.9195 98.3556 41.6199V35.7412H132.248L133.578 49.948Z" fill="#2F2E41"/>
</svg>
