<svg width="478" height="220" viewBox="0 0 478 220" fill="none" xmlns="http://www.w3.org/2000/svg">
<g clip-path="url(#clip0_94_761)">
<path d="M101.37 207.758C89.9254 200.317 81.6038 186.941 83.3069 173.419C93.6124 184.094 107.37 190.788 122.147 192.317C127.848 192.886 134.248 192.927 138.296 196.971C140.815 199.488 141.886 203.166 141.941 206.722C141.996 210.278 141.139 213.779 140.288 217.232L140.497 218.095C126.846 217.592 112.815 215.199 101.37 207.758Z" fill="#F0F0F0"/>
<path d="M83.5936 173.416C87.8748 183.857 95.3448 192.687 104.942 198.651C106.986 199.972 109.225 200.963 111.577 201.587C113.889 202.122 116.302 202.03 118.565 201.32C120.689 200.7 122.79 199.821 125.028 199.727C126.174 199.696 127.314 199.907 128.373 200.346C129.431 200.785 130.385 201.443 131.171 202.275C133.185 204.3 134.349 206.925 135.397 209.531C136.562 212.425 137.726 215.45 140.098 217.593C140.385 217.853 139.964 218.283 139.677 218.023C135.551 214.294 135.096 208.311 131.853 203.984C130.339 201.965 128.207 200.389 125.6 200.322C123.32 200.264 121.153 201.169 119.008 201.815C116.81 202.54 114.467 202.717 112.185 202.331C109.808 201.827 107.534 200.924 105.461 199.66C100.748 196.887 96.5017 193.393 92.8769 189.304C88.714 184.661 85.3779 179.341 83.013 173.576C82.8668 173.219 83.4483 173.062 83.5935 173.416H83.5936Z" fill="white"/>
<path d="M101.739 196.912C100.517 198.383 98.8113 199.372 96.9258 199.704C95.0404 200.036 93.0982 199.688 91.446 198.723C91.1124 198.526 91.4027 198 91.7367 198.197C93.2736 199.098 95.0828 199.422 96.8379 199.109C98.5929 198.797 100.178 197.869 101.308 196.493C101.553 196.194 101.983 196.615 101.739 196.912V196.912Z" fill="white"/>
<path d="M117.53 201.776C117.2 197.885 115.412 194.262 112.523 191.628C112.237 191.367 112.657 190.937 112.943 191.198C115.945 193.944 117.797 197.719 118.132 201.768C118.164 202.154 117.561 202.159 117.53 201.776Z" fill="white"/>
<path d="M89.4715 184.409C90.063 183.939 90.5281 183.329 90.8249 182.634C91.1218 181.94 91.2411 181.183 91.1721 180.431C91.1356 180.046 91.7379 180.041 91.7742 180.423C91.8464 181.254 91.7137 182.09 91.3874 182.858C91.0611 183.626 90.5514 184.303 89.9026 184.829C89.8456 184.883 89.7699 184.914 89.6908 184.915C89.6117 184.916 89.5352 184.887 89.4769 184.834C89.4201 184.778 89.3877 184.702 89.3867 184.623C89.3856 184.543 89.4161 184.467 89.4715 184.409Z" fill="white"/>
<path d="M122.346 148.673C122.376 148.913 122.406 149.153 122.44 149.396C122.855 152.62 123.533 155.806 124.465 158.921C124.534 159.163 124.607 159.407 124.682 159.647C127.009 167.128 130.708 174.113 135.59 180.247C137.536 182.686 139.664 184.974 141.957 187.091C145.125 190.014 148.792 192.933 150.748 196.621C150.957 197.003 151.141 197.398 151.301 197.803L141.536 217.774C141.491 217.808 141.451 217.845 141.406 217.879L141.052 218.695C140.926 218.594 140.798 218.486 140.672 218.385C140.599 218.327 140.528 218.264 140.454 218.206C140.406 218.166 140.358 218.125 140.312 218.092C140.296 218.078 140.28 218.065 140.269 218.054C140.223 218.02 140.184 217.984 140.143 217.953C139.423 217.355 138.707 216.75 137.993 216.14C137.989 216.138 137.989 216.137 137.986 216.131C132.561 211.466 127.479 206.307 123.343 200.544C123.219 200.37 123.09 200.195 122.97 200.012C121.12 197.404 119.487 194.649 118.087 191.775C117.325 190.199 116.644 188.586 116.046 186.941C114.509 182.688 113.652 178.221 113.507 173.702C113.218 164.695 115.82 155.696 121.879 149.168C122.034 149.001 122.187 148.838 122.346 148.673Z" fill="#F0F0F0"/>
<path d="M122.579 148.842C119.696 159.75 120.332 171.287 124.396 181.814C125.23 184.095 126.42 186.232 127.921 188.144C129.444 189.959 131.426 191.335 133.662 192.127C135.732 192.908 137.94 193.468 139.784 194.737C140.718 195.401 141.5 196.254 142.081 197.241C142.661 198.227 143.026 199.325 143.151 200.462C143.537 203.288 142.882 206.083 142.146 208.794C141.33 211.804 140.434 214.918 141.034 218.054C141.106 218.434 140.511 218.525 140.439 218.145C139.394 212.689 142.643 207.639 142.664 202.236C142.674 199.715 141.922 197.175 139.881 195.556C138.095 194.14 135.819 193.561 133.717 192.789C131.524 192.047 129.547 190.782 127.958 189.102C126.364 187.272 125.093 185.185 124.201 182.931C122.111 177.886 120.829 172.545 120.403 167.104C119.881 160.896 120.428 154.644 122.019 148.62C122.117 148.248 122.677 148.471 122.579 148.842Z" fill="white"/>
<path d="M122.887 178.501C121.024 178.942 119.065 178.707 117.36 177.839C115.654 176.972 114.313 175.528 113.576 173.765C113.428 173.407 113.978 173.161 114.126 173.519C114.809 175.162 116.058 176.507 117.648 177.312C119.238 178.117 121.064 178.328 122.796 177.907C123.173 177.817 123.262 178.411 122.887 178.501V178.501Z" fill="white"/>
<path d="M132.561 191.869C134.645 188.565 135.404 184.598 134.687 180.759C134.616 180.379 135.211 180.289 135.282 180.668C136.021 184.664 135.222 188.791 133.046 192.225C132.838 192.552 132.354 192.195 132.561 191.869Z" fill="white"/>
<path d="M120.638 161.15C121.394 161.13 122.133 160.922 122.789 160.546C123.445 160.17 123.998 159.637 124.396 158.995C124.6 158.666 125.084 159.023 124.882 159.351C124.438 160.058 123.827 160.645 123.103 161.063C122.379 161.48 121.564 161.714 120.729 161.744C120.65 161.753 120.571 161.733 120.507 161.686C120.444 161.639 120.4 161.57 120.386 161.493C120.374 161.414 120.394 161.334 120.441 161.27C120.488 161.206 120.559 161.163 120.638 161.15H120.638Z" fill="white"/>
<path d="M450.643 207.758C462.088 200.317 470.409 186.941 468.706 173.419C458.401 184.094 444.643 190.788 429.866 192.317C424.166 192.886 417.765 192.927 413.717 196.971C411.198 199.488 410.128 203.166 410.073 206.722C410.018 210.278 410.874 213.779 411.725 217.232L411.516 218.095C425.167 217.592 439.198 215.199 450.643 207.758Z" fill="#F0F0F0"/>
<path d="M468.42 173.416C464.138 183.857 456.668 192.687 447.071 198.651C445.028 199.972 442.788 200.963 440.436 201.587C438.124 202.122 435.711 202.03 433.448 201.32C431.324 200.7 429.223 199.821 426.985 199.727C425.839 199.696 424.699 199.907 423.641 200.346C422.582 200.785 421.628 201.443 420.842 202.275C418.829 204.3 417.665 206.925 416.616 209.531C415.451 212.425 414.288 215.45 411.916 217.593C411.628 217.853 412.049 218.283 412.336 218.023C416.463 214.294 416.917 208.311 420.16 203.984C421.674 201.965 423.807 200.389 426.414 200.322C428.694 200.264 430.86 201.169 433.005 201.815C435.203 202.54 437.546 202.717 439.828 202.331C442.205 201.827 444.479 200.924 446.552 199.66C451.265 196.887 455.512 193.393 459.136 189.304C463.299 184.661 466.635 179.341 469 173.576C469.146 173.219 468.565 173.062 468.42 173.416H468.42Z" fill="white"/>
<path d="M450.275 196.912C451.496 198.383 453.202 199.372 455.087 199.704C456.973 200.036 458.915 199.688 460.567 198.723C460.901 198.526 460.611 198 460.277 198.197C458.74 199.098 456.93 199.422 455.175 199.109C453.42 198.797 451.835 197.869 450.706 196.493C450.46 196.194 450.03 196.615 450.275 196.912V196.912Z" fill="white"/>
<path d="M434.483 201.776C434.813 197.885 436.601 194.261 439.49 191.628C439.777 191.367 439.356 190.937 439.07 191.198C436.069 193.944 434.216 197.719 433.881 201.768C433.85 202.154 434.452 202.159 434.483 201.776Z" fill="white"/>
<path d="M462.542 184.409C461.95 183.939 461.485 183.329 461.188 182.634C460.891 181.94 460.772 181.183 460.841 180.431C460.878 180.046 460.275 180.041 460.239 180.423C460.167 181.254 460.3 182.09 460.626 182.858C460.952 183.626 461.462 184.303 462.111 184.829C462.168 184.883 462.243 184.914 462.322 184.915C462.401 184.916 462.478 184.887 462.536 184.834C462.593 184.778 462.626 184.702 462.627 184.623C462.628 184.543 462.597 184.467 462.542 184.409Z" fill="white"/>
<path d="M429.667 148.673C429.637 148.913 429.607 149.153 429.573 149.396C429.158 152.62 428.48 155.806 427.548 158.921C427.48 159.163 427.407 159.407 427.332 159.647C425.005 167.128 421.306 174.113 416.423 180.247C414.477 182.686 412.349 184.974 410.056 187.091C406.889 190.014 403.221 192.933 401.265 196.621C401.056 197.003 400.872 197.398 400.712 197.803L410.477 217.774C410.522 217.808 410.562 217.845 410.607 217.879L410.961 218.695C411.087 218.594 411.215 218.486 411.341 218.385C411.414 218.327 411.485 218.264 411.559 218.206C411.607 218.166 411.655 218.125 411.701 218.092C411.717 218.078 411.733 218.065 411.744 218.054C411.79 218.02 411.829 217.984 411.87 217.953C412.59 217.355 413.306 216.75 414.02 216.14C414.024 216.138 414.024 216.137 414.027 216.131C419.452 211.466 424.534 206.307 428.67 200.544C428.795 200.37 428.924 200.195 429.044 200.012C430.893 197.404 432.527 194.649 433.927 191.775C434.688 190.199 435.369 188.586 435.967 186.941C437.504 182.688 438.361 178.221 438.506 173.702C438.795 164.695 436.193 155.696 430.134 149.168C429.979 149.001 429.826 148.838 429.667 148.673Z" fill="#F0F0F0"/>
<path d="M429.435 148.842C432.317 159.75 431.681 171.287 427.617 181.814C426.783 184.095 425.593 186.232 424.092 188.144C422.569 189.959 420.587 191.335 418.351 192.127C416.281 192.908 414.073 193.468 412.23 194.737C411.296 195.401 410.513 196.254 409.933 197.241C409.352 198.227 408.988 199.325 408.862 200.462C408.477 203.288 409.131 206.083 409.867 208.794C410.684 211.804 411.58 214.918 410.979 218.054C410.907 218.434 411.502 218.525 411.575 218.145C412.619 212.689 409.371 207.639 409.349 202.236C409.34 199.715 410.091 197.175 412.133 195.556C413.918 194.14 416.194 193.561 418.297 192.789C420.489 192.047 422.466 190.782 424.056 189.102C425.65 187.272 426.92 185.185 427.812 182.931C429.902 177.886 431.184 172.545 431.611 167.104C432.132 160.896 431.586 154.644 429.994 148.62C429.896 148.248 429.337 148.471 429.435 148.842Z" fill="white"/>
<path d="M429.126 178.501C430.989 178.942 432.948 178.707 434.654 177.839C436.359 176.972 437.7 175.528 438.437 173.765C438.585 173.407 438.035 173.161 437.887 173.519C437.204 175.162 435.955 176.507 434.365 177.312C432.775 178.117 430.949 178.328 429.217 177.907C428.841 177.816 428.752 178.411 429.126 178.501V178.501Z" fill="white"/>
<path d="M419.453 191.869C417.368 188.565 416.609 184.598 417.326 180.759C417.398 180.379 416.802 180.289 416.731 180.668C415.992 184.664 416.791 188.791 418.967 192.225C419.175 192.552 419.659 192.195 419.453 191.869Z" fill="white"/>
<path d="M431.376 161.15C430.619 161.13 429.88 160.922 429.224 160.546C428.568 160.17 428.016 159.637 427.617 158.995C427.414 158.666 426.93 159.023 427.132 159.351C427.575 160.058 428.186 160.645 428.91 161.063C429.634 161.48 430.449 161.714 431.285 161.744C431.363 161.753 431.442 161.733 431.506 161.686C431.57 161.639 431.613 161.57 431.628 161.493C431.639 161.414 431.619 161.334 431.572 161.27C431.525 161.206 431.454 161.163 431.376 161.15H431.376Z" fill="white"/>
<path d="M123.912 142.138C123.479 141.878 123.109 141.526 122.826 141.108C122.544 140.69 122.358 140.215 122.279 139.717C122.201 139.218 122.233 138.709 122.374 138.225C122.514 137.741 122.759 137.293 123.092 136.913L117.004 126.268L123.375 126.678L128.179 136.724C128.782 137.324 129.142 138.123 129.193 138.971C129.244 139.818 128.982 140.655 128.456 141.322C127.93 141.989 127.177 142.441 126.339 142.591C125.502 142.742 124.638 142.58 123.912 142.138Z" fill="#FFB6B6"/>
<path d="M77.0466 214.71H81.2616L83.2668 198.491L77.0461 198.492L77.0466 214.71Z" fill="#FFB6B6"/>
<path d="M75.9717 213.338L84.272 213.337H84.2724C85.6753 213.337 87.0206 213.894 88.0126 214.883C89.0046 215.873 89.5619 217.215 89.562 218.615V218.786L75.9719 218.787L75.9717 213.338Z" fill="#2F2E41"/>
<path d="M105.925 214.71H110.14L112.145 198.491L105.924 198.492L105.925 214.71Z" fill="#FFB6B6"/>
<path d="M104.85 213.338L113.15 213.337H113.15C114.553 213.337 115.899 213.894 116.891 214.883C117.883 215.873 118.44 217.215 118.44 218.615V218.786L104.85 218.787L104.85 213.338Z" fill="#2F2E41"/>
<path d="M116.763 126.725C116.763 126.725 117.922 143.196 115.639 151.49C113.355 159.785 112.948 209.949 112.948 209.949H105.294L98.6611 141.666L83.3688 210.189L76.079 209.689L80.0769 128.944L116.763 126.725Z" fill="#2F2E41"/>
<path d="M83.2395 71.2041L89.0902 66.9446L98.894 69.0743L101.548 75.3654L106.121 77.6273C107.624 78.3711 108.924 79.4679 109.909 80.8236C110.894 82.1793 111.534 83.7533 111.775 85.4104L118.308 130.418L80.0769 128.944L75.4485 75.9383C75.4002 75.3846 75.4637 74.8269 75.6352 74.2981C75.8068 73.7693 76.0829 73.2803 76.4473 72.8598C76.8116 72.4394 77.2568 72.0962 77.7565 71.8504C78.2562 71.6047 78.8002 71.4615 79.3564 71.4292L83.2395 71.2041Z" fill="#3F3D56"/>
<path d="M108.54 81.1431L112.071 85.8917L127.451 132.69L120.241 135.569L108.698 113.763L108.54 81.1431Z" fill="#3F3D56"/>
<path d="M95.7402 64.7208C100.456 64.7208 104.279 60.9067 104.279 56.2018C104.279 51.4969 100.456 47.6829 95.7402 47.6829C91.0243 47.6829 87.2013 51.4969 87.2013 56.2018C87.2013 60.9067 91.0243 64.7208 95.7402 64.7208Z" fill="#FFB9B9"/>
<path opacity="0.1" d="M77.1253 91.2505L91.0597 110.586L106.635 120.719L77.1253 91.2505Z" fill="black"/>
<path d="M91.2149 62.3603C90.621 61.1772 90.01 59.8894 90.237 58.5858C90.464 57.2821 91.9636 56.1462 93.1209 56.7925C93.601 55.0612 95.7267 54.3036 97.516 54.5034C99.3053 54.7033 100.953 55.5644 102.715 55.934C104.477 56.3037 106.617 56.0104 107.569 54.4859L105.29 54.4466L107.663 51.701L104.913 51.4957C105.865 50.4699 105.612 48.7271 104.69 47.6741C103.768 46.621 102.368 46.1228 101.003 45.8077C98.2763 45.1807 95.4504 45.1159 92.6982 45.6172C91.4005 45.8168 90.1502 46.2509 89.0086 46.8981C87.9337 47.5522 87.0455 48.4712 86.4294 49.5667C85.7647 50.8027 85.4054 52.1791 85.3814 53.5816C85.3408 55.4601 85.7735 57.3187 86.6397 58.9871C87.506 60.6555 88.7781 62.0804 90.3395 63.131" fill="#2F2E41"/>
<path d="M409.145 219.005H144.153C141.424 219.002 138.808 217.919 136.878 215.994C134.948 214.069 133.863 211.459 133.86 208.736V10.2688C133.863 7.54629 134.948 4.93614 136.878 3.01103C138.808 1.08592 141.424 0.00305651 144.153 0H409.145C411.874 0.00310484 414.49 1.08599 416.42 3.0111C418.349 4.93621 419.435 7.54633 419.438 10.2688V208.736C419.435 211.459 418.349 214.069 416.42 215.994C414.49 217.919 411.874 219.002 409.145 219.005Z" fill="#E4E4E4"/>
<path d="M342.452 91.1255H301.546C299.524 91.1255 297.586 90.3243 296.156 88.8982C294.727 87.4721 293.924 85.5379 293.924 83.5211C293.924 81.5043 294.727 79.5701 296.156 78.144C297.586 76.7179 299.524 75.9167 301.546 75.9167H342.452C344.473 75.9167 346.412 76.7179 347.841 78.144C349.271 79.5701 350.074 81.5043 350.074 83.5211C350.074 85.5379 349.271 87.4721 347.841 88.8982C346.412 90.3243 344.473 91.1255 342.452 91.1255Z" fill="white"/>
<path d="M306.627 111.911H296.973C296.231 111.911 295.521 111.617 294.996 111.094C294.472 110.571 294.178 109.862 294.178 109.122C294.178 108.383 294.472 107.674 294.996 107.151C295.521 106.628 296.231 106.334 296.973 106.334H306.627C307.369 106.334 308.079 106.628 308.604 107.151C309.128 107.674 309.422 108.383 309.422 109.122C309.422 109.862 309.128 110.571 308.604 111.094C308.079 111.617 307.369 111.911 306.627 111.911Z" fill="white"/>
<path d="M346.771 111.911H337.116C336.375 111.911 335.664 111.617 335.14 111.094C334.616 110.571 334.321 109.862 334.321 109.122C334.321 108.383 334.616 107.674 335.14 107.151C335.664 106.628 336.375 106.334 337.116 106.334H346.771C347.512 106.334 348.223 106.628 348.747 107.151C349.271 107.674 349.566 108.383 349.566 109.122C349.566 109.862 349.271 110.571 348.747 111.094C348.223 111.617 347.512 111.911 346.771 111.911Z" fill="white"/>
<path d="M326.445 111.911H316.79C316.049 111.911 315.338 111.617 314.814 111.094C314.29 110.571 313.995 109.862 313.995 109.122C313.995 108.383 314.29 107.674 314.814 107.151C315.338 106.628 316.049 106.334 316.79 106.334H326.445C327.186 106.334 327.897 106.628 328.421 107.151C328.945 107.674 329.24 108.383 329.24 109.122C329.24 109.862 328.945 110.571 328.421 111.094C327.897 111.617 327.186 111.911 326.445 111.911Z" fill="white"/>
<path d="M306.627 122.557H296.973C296.231 122.557 295.521 122.263 294.996 121.74C294.472 121.217 294.178 120.508 294.178 119.768C294.178 119.029 294.472 118.32 294.996 117.797C295.521 117.274 296.231 116.98 296.973 116.98H306.627C307.369 116.98 308.079 117.274 308.604 117.797C309.128 118.32 309.422 119.029 309.422 119.768C309.422 120.508 309.128 121.217 308.604 121.74C308.079 122.263 307.369 122.557 306.627 122.557Z" fill="white"/>
<path d="M346.771 122.557H337.116C336.375 122.557 335.664 122.263 335.14 121.74C334.616 121.217 334.321 120.508 334.321 119.768C334.321 119.029 334.616 118.32 335.14 117.797C335.664 117.274 336.375 116.98 337.116 116.98H346.771C347.512 116.98 348.223 117.274 348.747 117.797C349.271 118.32 349.566 119.029 349.566 119.768C349.566 120.508 349.271 121.217 348.747 121.74C348.223 122.263 347.512 122.557 346.771 122.557Z" fill="white"/>
<path d="M326.445 122.557H316.79C316.049 122.557 315.338 122.263 314.814 121.74C314.29 121.217 313.995 120.508 313.995 119.768C313.995 119.029 314.29 118.32 314.814 117.797C315.338 117.274 316.049 116.98 316.79 116.98H326.445C327.186 116.98 327.897 117.274 328.421 117.797C328.945 118.32 329.24 119.029 329.24 119.768C329.24 120.508 328.945 121.217 328.421 121.74C327.897 122.263 327.186 122.557 326.445 122.557Z" fill="white"/>
<path d="M306.627 133.202H296.973C296.231 133.202 295.521 132.909 294.996 132.386C294.472 131.863 294.178 131.154 294.178 130.414C294.178 129.675 294.472 128.966 294.996 128.443C295.521 127.92 296.231 127.626 296.973 127.626H306.627C307.369 127.626 308.079 127.92 308.604 128.443C309.128 128.966 309.422 129.675 309.422 130.414C309.422 131.154 309.128 131.863 308.604 132.386C308.079 132.909 307.369 133.202 306.627 133.202Z" fill="white"/>
<path d="M346.771 133.202H337.116C336.375 133.202 335.664 132.909 335.14 132.386C334.616 131.863 334.321 131.154 334.321 130.414C334.321 129.675 334.616 128.966 335.14 128.443C335.664 127.92 336.375 127.626 337.116 127.626H346.771C347.512 127.626 348.223 127.92 348.747 128.443C349.271 128.966 349.566 129.675 349.566 130.414C349.566 131.154 349.271 131.863 348.747 132.386C348.223 132.909 347.512 133.202 346.771 133.202Z" fill="white"/>
<path d="M326.445 133.202H316.79C316.049 133.202 315.338 132.909 314.814 132.386C314.29 131.863 313.995 131.154 313.995 130.414C313.995 129.675 314.29 128.966 314.814 128.443C315.338 127.92 316.049 127.626 316.79 127.626H326.445C327.186 127.626 327.897 127.92 328.421 128.443C328.945 128.966 329.24 129.675 329.24 130.414C329.24 131.154 328.945 131.863 328.421 132.386C327.897 132.909 327.186 133.202 326.445 133.202Z" fill="white"/>
<path d="M306.627 143.849H296.973C296.231 143.849 295.521 143.555 294.996 143.032C294.472 142.509 294.178 141.8 294.178 141.061C294.178 140.321 294.472 139.612 294.996 139.089C295.521 138.566 296.231 138.272 296.973 138.272H306.627C307.369 138.272 308.079 138.566 308.604 139.089C309.128 139.612 309.422 140.321 309.422 141.061C309.422 141.8 309.128 142.509 308.604 143.032C308.079 143.555 307.369 143.849 306.627 143.849Z" fill="white"/>
<path d="M346.771 143.849H337.116C336.375 143.849 335.664 143.555 335.14 143.032C334.616 142.509 334.321 141.8 334.321 141.061C334.321 140.321 334.616 139.612 335.14 139.089C335.664 138.566 336.375 138.272 337.116 138.272H346.771C347.512 138.272 348.223 138.566 348.747 139.089C349.271 139.612 349.566 140.321 349.566 141.061C349.566 141.8 349.271 142.509 348.747 143.032C348.223 143.555 347.512 143.849 346.771 143.849Z" fill="white"/>
<path d="M326.445 143.849H316.79C316.049 143.849 315.338 143.555 314.814 143.032C314.29 142.509 313.995 141.8 313.995 141.061C313.995 140.321 314.29 139.612 314.814 139.089C315.338 138.566 316.049 138.272 316.79 138.272H326.445C327.186 138.272 327.897 138.566 328.421 139.089C328.945 139.612 329.24 140.321 329.24 141.061C329.24 141.8 328.945 142.509 328.421 143.032C327.897 143.555 327.186 143.849 326.445 143.849Z" fill="white"/>
<path d="M241.331 132.696C255.643 132.696 267.246 121.12 267.246 106.841C267.246 92.5619 255.643 80.9863 241.331 80.9863C227.018 80.9863 215.415 92.5619 215.415 106.841C215.415 121.12 227.018 132.696 241.331 132.696Z" fill="#CACACA"/>
<path d="M241.331 138.526C239.31 138.524 237.372 137.722 235.944 136.296C234.515 134.871 233.711 132.938 233.708 130.922V82.7607C233.708 81.7615 233.904 80.772 234.287 79.8487C234.67 78.9254 235.231 78.0864 235.939 77.3796C236.647 76.6728 237.487 76.1121 238.412 75.7296C239.338 75.347 240.329 75.1501 241.331 75.1501C242.332 75.1501 243.324 75.347 244.249 75.7296C245.174 76.1121 246.015 76.6728 246.723 77.3796C247.43 78.0864 247.992 78.9254 248.374 79.8487C248.757 80.772 248.954 81.7615 248.953 82.7607V130.922C248.951 132.938 248.147 134.871 246.718 136.296C245.289 137.722 243.352 138.524 241.331 138.526Z" fill="white"/>
<path d="M309.034 87.8601H301.92C301.651 87.8601 301.392 87.7533 301.201 87.5631C301.011 87.373 300.904 87.1151 300.904 86.8462C300.904 86.5773 301.011 86.3194 301.201 86.1292C301.392 85.9391 301.651 85.8323 301.92 85.8323H309.034C309.304 85.8323 309.562 85.9391 309.753 86.1292C309.943 86.3194 310.05 86.5773 310.05 86.8462C310.05 87.1151 309.943 87.373 309.753 87.5631C309.562 87.7533 309.304 87.8601 309.034 87.8601Z" fill="#E4E4E4"/>
<path d="M320.213 88.1135H313.099C312.83 88.1135 312.571 88.0067 312.381 87.8166C312.19 87.6264 312.083 87.3685 312.083 87.0996C312.083 86.8307 312.19 86.5728 312.381 86.3827C312.571 86.1925 312.83 86.0857 313.099 86.0857H320.213C320.483 86.0857 320.741 86.1925 320.932 86.3827C321.122 86.5728 321.23 86.8307 321.23 87.0996C321.23 87.3685 321.122 87.6264 320.932 87.8166C320.741 88.0067 320.483 88.1135 320.213 88.1135Z" fill="#E4E4E4"/>
<path d="M331.392 88.3669H324.278C324.009 88.3669 323.75 88.2601 323.56 88.07C323.369 87.8798 323.262 87.6219 323.262 87.353C323.262 87.0841 323.369 86.8262 323.56 86.6361C323.75 86.4459 324.009 86.3391 324.278 86.3391H331.392C331.662 86.3391 331.92 86.4459 332.111 86.6361C332.302 86.8262 332.409 87.0841 332.409 87.353C332.409 87.6219 332.302 87.8798 332.111 88.07C331.92 88.2601 331.662 88.3669 331.392 88.3669Z" fill="#E4E4E4"/>
<path d="M342.572 88.6206H335.458C335.188 88.6206 334.93 88.5138 334.739 88.3236C334.548 88.1335 334.441 87.8756 334.441 87.6067C334.441 87.3378 334.548 87.0799 334.739 86.8897C334.93 86.6996 335.188 86.5928 335.458 86.5928H342.572C342.841 86.5928 343.1 86.6996 343.29 86.8897C343.481 87.0799 343.588 87.3378 343.588 87.6067C343.588 87.8756 343.481 88.1335 343.29 88.3236C343.1 88.5138 342.841 88.6206 342.572 88.6206Z" fill="#E4E4E4"/>
<path d="M167.65 187.7C167.649 188.956 167.899 190.199 168.384 191.357C168.869 192.515 169.579 193.566 170.475 194.448H166.277C165.039 194.448 163.812 194.204 162.668 193.732C161.524 193.259 160.484 192.566 159.609 191.692C158.733 190.818 158.038 189.781 157.564 188.64C157.09 187.498 156.846 186.275 156.846 185.039V32.5051C156.846 31.2695 157.09 30.0461 157.564 28.9045C158.038 27.763 158.733 26.7258 159.609 25.8522C160.484 24.9785 161.524 24.2855 162.668 23.8126C163.812 23.3398 165.039 23.0964 166.277 23.0964H172.386C170.945 23.9323 169.749 25.1307 168.918 26.5719C168.087 28.013 167.65 29.6465 167.65 31.3091L167.65 187.7Z" fill="#CACACA"/>
<path d="M477.395 220H0.605031C0.444867 220 0.291426 219.936 0.178337 219.823C0.0652488 219.71 0.0017395 219.556 0.0017395 219.397C0.0017395 219.237 0.0652488 219.084 0.178337 218.97C0.291426 218.857 0.444867 218.793 0.605031 218.793H477.395C477.555 218.793 477.709 218.857 477.823 218.97C477.936 219.083 478 219.237 478 219.397C478 219.557 477.936 219.71 477.823 219.823C477.709 219.937 477.555 220 477.395 220Z" fill="#434343"/>
<path d="M166.633 67.6679C163.422 66.7706 160.199 65.9392 156.963 65.1737C145.9 62.539 134.684 60.5886 123.38 59.3336C121.464 58.8302 119.426 59.1023 117.71 60.0907C115.994 61.0791 114.739 62.7038 114.218 64.611L108.573 85.3962C108.054 87.3121 108.319 89.3549 109.309 91.0762C110.299 92.7975 111.933 94.0566 113.852 94.5772L113.929 94.5924C121.398 95.439 128.939 96.6152 136.439 98.1158C137.11 98.2476 137.776 98.3845 138.447 98.5264C140.85 99.0232 143.247 99.5539 145.637 100.118C146.684 100.362 147.725 100.615 148.772 100.874C151.587 101.573 154.404 102.318 157.223 103.109C160.358 103.991 163.495 104.933 166.633 105.933C166.974 106.034 167.314 106.141 167.65 106.252V67.9569C167.314 67.8555 166.974 67.7592 166.633 67.6679Z" fill="white"/>
<path d="M166.633 67.6679C163.422 66.7706 160.199 65.9392 156.963 65.1737C145.9 62.539 134.684 60.5886 123.38 59.3336C121.464 58.8302 119.426 59.1023 117.71 60.0907C115.994 61.0791 114.739 62.7038 114.218 64.611L108.573 85.3962C108.054 87.3121 108.319 89.3549 109.309 91.0762C110.299 92.7975 111.933 94.0566 113.852 94.5772L113.929 94.5924C121.398 95.439 128.939 96.6152 136.439 98.1158C137.11 98.2476 137.776 98.3845 138.447 98.5264C140.85 99.0232 143.247 99.5539 145.637 100.118C146.684 100.362 147.725 100.615 148.772 100.874C151.587 101.573 154.404 102.318 157.223 103.109C160.358 103.991 163.495 104.933 166.633 105.933C166.974 106.034 167.314 106.141 167.65 106.252V105.183C167.309 105.076 166.969 104.97 166.633 104.863C163.747 103.946 160.864 103.082 157.985 102.273C156.908 101.964 155.83 101.664 154.753 101.375C152.812 100.853 150.876 100.353 148.945 99.8749C147.918 99.6163 146.894 99.3679 145.87 99.1296C145.794 99.1094 145.713 99.0942 145.637 99.0739C143.894 98.6633 142.147 98.2712 140.398 97.8977C139.727 97.7558 139.056 97.6139 138.385 97.477C130.296 95.804 122.145 94.5011 114.081 93.5886C112.431 93.1303 111.03 92.0405 110.182 90.5565C109.334 89.0725 109.108 87.3144 109.553 85.6649L115.199 64.8746C115.65 63.2204 116.741 61.8125 118.232 60.9599C119.723 60.1074 121.492 59.8798 123.151 60.3272L123.227 60.3373C134.388 61.5737 145.463 63.4902 156.389 66.0761C156.501 66.1065 156.613 66.1318 156.724 66.1572C160.038 66.948 163.341 67.8031 166.633 68.7224C166.969 68.8136 167.309 68.9099 167.649 69.0113V67.9569C167.314 67.8555 166.974 67.7592 166.633 67.6679Z" fill="#C5B1FF"/>
<path d="M167.649 68.4842V105.715C167.309 105.604 166.974 105.497 166.633 105.391C163.63 104.433 160.617 103.53 157.594 102.684C154.692 101.862 151.78 101.09 148.859 100.367C147.822 100.113 146.79 99.8648 145.754 99.6215C145.713 99.439 145.672 99.2565 145.637 99.074C145.449 98.202 145.302 97.3199 145.19 96.4328C145.139 96.0931 145.103 95.7534 145.068 95.4087C144.533 89.9774 145.278 84.4966 147.244 79.4038C149.21 74.3109 152.341 69.747 156.389 66.0762C156.537 65.9342 156.689 65.7974 156.841 65.6655C160.124 66.4463 163.388 67.2912 166.633 68.2003C166.974 68.2865 167.314 68.3828 167.649 68.4842Z" fill="#C5B1FF"/>
<path d="M133.904 83.7284L119.772 82.0656C119.275 82.007 118.771 82.0467 118.289 82.1823C117.808 82.318 117.357 82.5471 116.964 82.8563C116.571 83.1656 116.243 83.5491 115.999 83.9849C115.754 84.4208 115.598 84.9003 115.539 85.3963C115.481 85.8923 115.52 86.395 115.656 86.8756C115.792 87.3562 116.022 87.8055 116.332 88.1976C116.642 88.5897 117.026 88.9171 117.463 89.161C117.9 89.4049 118.381 89.5606 118.878 89.6192L133.009 91.282C134.012 91.3977 135.02 91.112 135.812 90.4874C136.603 89.8628 137.115 88.9504 137.233 87.9503C137.351 86.9502 137.067 85.9441 136.443 85.1526C135.819 84.3612 134.906 83.849 133.904 83.7284ZM136.231 87.8347C136.143 88.5685 135.766 89.2372 135.184 89.6944C134.602 90.1515 133.862 90.3596 133.126 90.2732L118.995 88.6104C118.261 88.5213 117.592 88.1456 117.136 87.5657C116.679 86.9858 116.471 86.249 116.558 85.5166C116.644 84.7841 117.019 84.1158 117.598 83.6581C118.178 83.2004 118.916 82.9905 119.65 83.0744L133.782 84.7372C134.517 84.8261 135.188 85.2017 135.647 85.782C136.106 86.3624 136.316 87.1003 136.231 87.8347L136.231 87.8347Z" fill="#C5B1FF"/>
<path d="M167.65 77.2039V94.8611C167.323 95.0566 166.983 95.2294 166.633 95.3782C164.809 96.1906 162.787 96.4536 160.816 96.1347C158.844 95.8159 157.009 94.9292 155.535 93.5836C155.393 93.4569 155.251 93.32 155.114 93.178C154.976 93.0412 154.844 92.8941 154.717 92.7471C153.183 90.9893 152.297 88.7618 152.204 86.433C152.112 84.1042 152.819 81.8136 154.208 79.9401C155.598 78.0666 157.587 76.7224 159.846 76.1299C162.105 75.5374 164.5 75.7321 166.633 76.6817C166.981 76.8374 167.32 77.0117 167.65 77.2039Z" fill="white"/>
<path d="M166.633 89.9842C162.634 90.8156 158.662 91.7366 154.717 92.7471C153.244 93.1223 151.775 93.5109 150.312 93.9131C148.564 94.3947 146.816 94.8932 145.068 95.4086C142.837 96.0677 140.61 96.7571 138.386 97.477C137.74 97.6899 137.09 97.9029 136.439 98.1158C130.255 100.174 124.112 102.455 118.07 104.944C116.147 105.424 114.492 106.642 113.465 108.333C112.438 110.024 112.123 112.051 112.587 113.973L117.684 134.901C118.156 136.828 119.374 138.49 121.073 139.522C122.771 140.554 124.811 140.872 126.744 140.406L126.815 140.381C136.751 136.315 146.92 132.841 157.268 129.978C160.358 129.121 163.48 128.314 166.633 127.555C166.974 127.474 167.309 127.393 167.65 127.317V89.7764C167.309 89.8372 166.974 89.9081 166.633 89.9842Z" fill="white"/>
<path d="M166.633 89.9842C162.634 90.8156 158.662 91.7366 154.717 92.7471C153.244 93.1223 151.775 93.5109 150.312 93.9131C148.564 94.3947 146.816 94.8932 145.068 95.4086C142.837 96.0677 140.61 96.7571 138.386 97.477C137.74 97.6899 137.09 97.9029 136.439 98.1158C130.255 100.174 124.112 102.455 118.07 104.944C116.147 105.424 114.492 106.642 113.465 108.333C112.438 110.024 112.123 112.051 112.587 113.973L117.684 134.901C118.156 136.828 119.374 138.49 121.073 139.522C122.771 140.554 124.811 140.872 126.744 140.406L126.815 140.381C136.751 136.315 146.92 132.841 157.268 129.978C160.358 129.121 163.48 128.314 166.633 127.555C166.974 127.474 167.309 127.393 167.65 127.317V126.272C167.309 126.353 166.974 126.434 166.633 126.516C166.379 126.576 166.12 126.637 165.866 126.698C162.878 127.423 159.922 128.19 156.999 129C156.923 129.02 156.842 129.045 156.765 129.066C146.469 131.922 136.351 135.384 126.464 139.433C124.797 139.823 123.043 139.54 121.584 138.647C120.124 137.754 119.077 136.322 118.67 134.662L113.578 113.735C113.174 112.069 113.449 110.31 114.342 108.846C115.236 107.381 116.675 106.33 118.344 105.923L118.42 105.898C125.001 103.18 131.698 100.716 138.447 98.5264C139.097 98.3135 139.747 98.1057 140.398 97.8978C141.993 97.3959 143.591 96.9076 145.19 96.4327C146.877 95.9308 148.562 95.4475 150.246 94.9828C150.357 94.9524 150.469 94.922 150.581 94.8916C152.228 94.4404 153.879 94.0044 155.535 93.5836C159.209 92.6508 162.909 91.7941 166.633 91.0133C166.969 90.9424 167.309 90.8714 167.65 90.8055V89.7764C167.309 89.8372 166.974 89.9081 166.633 89.9842Z" fill="#C5B1FF"/>
<path d="M167.65 90.2886V126.794C167.314 126.871 166.974 126.947 166.633 127.028C163.452 127.798 160.285 128.62 157.131 129.492C157.004 129.35 156.882 129.208 156.765 129.066C153.473 125.22 151.053 120.71 149.673 115.843C148.294 110.977 147.986 105.87 148.772 100.874C148.798 100.707 148.828 100.534 148.859 100.367C148.884 100.205 148.914 100.037 148.945 99.8751C149.259 98.215 149.693 96.58 150.246 94.983C150.312 94.7904 150.378 94.5977 150.449 94.4051C151.999 93.9792 153.554 93.5703 155.114 93.1782C158.93 92.1947 162.77 91.3008 166.633 90.4964C166.969 90.4204 167.309 90.3545 167.65 90.2886Z" fill="#C5B1FF"/>
<path d="M144.036 123.357C143.655 122.424 142.918 121.679 141.988 121.286C141.057 120.894 140.008 120.886 139.072 121.263L125.885 126.597C124.95 126.977 124.204 127.712 123.812 128.64C123.419 129.568 123.412 130.614 123.792 131.547C124.172 132.481 124.907 133.226 125.837 133.619C126.767 134.012 127.815 134.021 128.751 133.643L141.938 128.31C142.873 127.929 143.618 127.194 144.012 126.266C144.405 125.338 144.414 124.292 144.036 123.357ZM141.556 127.367L128.37 132.706C127.683 132.983 126.914 132.976 126.231 132.688C125.549 132.4 125.009 131.853 124.73 131.168C124.451 130.483 124.457 129.715 124.745 129.034C125.033 128.353 125.58 127.814 126.266 127.535L139.453 122.201C140.139 121.923 140.909 121.928 141.591 122.216C142.274 122.503 142.815 123.05 143.094 123.735C143.373 124.42 143.367 125.187 143.079 125.869C142.791 126.55 142.243 127.089 141.556 127.367Z" fill="#C5B1FF"/>
<path d="M167.65 99.6113V119.489C167.315 119.574 166.975 119.642 166.633 119.692C164.593 119.977 162.514 119.643 160.667 118.734C158.819 117.825 157.288 116.383 156.273 114.594C155.259 112.806 154.806 110.754 154.976 108.706C155.145 106.658 155.928 104.708 157.223 103.109C157.339 102.962 157.461 102.82 157.594 102.683C157.715 102.541 157.848 102.405 157.985 102.273C159.108 101.164 160.473 100.329 161.974 99.8332C163.474 99.3373 165.068 99.1937 166.633 99.4135C166.976 99.4593 167.315 99.5254 167.65 99.6113Z" fill="white"/>
<path d="M166.633 65.0268V115.626C166.974 115.515 167.314 115.408 167.65 115.307V65.4881C167.309 65.3309 166.974 65.1789 166.633 65.0268ZM166.633 65.0268V115.626C166.974 115.515 167.314 115.408 167.65 115.307V65.4881C167.309 65.3309 166.974 65.1789 166.633 65.0268ZM166.633 65.0268V115.626C166.974 115.515 167.314 115.408 167.65 115.307V65.4881C167.309 65.3309 166.974 65.1789 166.633 65.0268ZM166.633 68.7225V127.028C166.974 126.946 167.314 126.87 167.65 126.794V69.0115C167.309 68.91 166.969 68.8137 166.633 68.7225V68.7225ZM166.633 68.7225V127.028C166.974 126.946 167.314 126.87 167.65 126.794V69.0115C167.309 68.91 166.969 68.8137 166.633 68.7225V68.7225ZM166.633 68.7225V127.028C166.974 126.946 167.314 126.87 167.65 126.794V69.0115C167.309 68.91 166.969 68.8137 166.633 68.7225V68.7225ZM166.633 68.7225V127.028C166.974 126.946 167.314 126.87 167.65 126.794V69.0115C167.309 68.91 166.969 68.8137 166.633 68.7225V68.7225ZM166.633 68.7225V127.555C166.974 127.474 167.309 127.393 167.65 127.317V69.0115C167.309 68.91 166.969 68.8137 166.633 68.7225V68.7225ZM388.312 20.7847H177.182C174.386 20.7893 171.706 21.8996 169.728 23.8723C167.751 25.845 166.638 28.5193 166.633 31.3091V187.7C166.638 190.49 167.751 193.163 169.729 195.135C171.706 197.107 174.387 198.216 177.182 198.22H388.312C391.107 198.216 393.787 197.107 395.764 195.135C397.74 193.163 398.852 190.489 398.856 187.7V31.3091C398.853 28.5194 397.742 25.8446 395.765 23.8716C393.788 21.8985 391.108 20.7883 388.312 20.7847V20.7847ZM397.839 187.7C397.837 190.22 396.832 192.637 395.046 194.419C393.26 196.201 390.838 197.203 388.312 197.206H177.182C174.656 197.203 172.233 196.201 170.446 194.419C168.659 192.637 167.653 190.221 167.65 187.7V31.3091C167.653 28.7879 168.659 26.3711 170.446 24.5883C172.233 22.8056 174.655 21.8024 177.182 21.7986H388.312C390.839 21.8015 393.261 22.8046 395.047 24.5877C396.834 26.3707 397.838 28.7881 397.839 31.3091V187.7ZM166.633 68.7225V126.516C166.974 126.434 167.309 126.353 167.65 126.272V69.0115C167.309 68.91 166.969 68.8137 166.633 68.7225V68.7225ZM166.633 68.7225V127.028C166.974 126.946 167.314 126.87 167.65 126.794V69.0115C167.309 68.91 166.969 68.8137 166.633 68.7225V68.7225ZM166.633 68.7225V127.028C166.974 126.946 167.314 126.87 167.65 126.794V69.0115C167.309 68.91 166.969 68.8137 166.633 68.7225V68.7225ZM166.633 68.7225V127.028C166.974 126.946 167.314 126.87 167.65 126.794V69.0115C167.309 68.91 166.969 68.8137 166.633 68.7225V68.7225ZM166.633 65.0268V115.626C166.974 115.515 167.314 115.408 167.65 115.307V65.4881C167.309 65.3309 166.974 65.1789 166.633 65.0268ZM166.633 65.0268V115.626C166.974 115.515 167.314 115.408 167.65 115.307V65.4881C167.309 65.3309 166.974 65.1789 166.633 65.0268Z" fill="#2F2E41"/>
<path d="M121.371 118.564C121.172 118.1 120.873 117.686 120.496 117.35C120.119 117.015 119.673 116.765 119.189 116.62C118.705 116.475 118.195 116.438 117.695 116.51C117.195 116.583 116.717 116.764 116.294 117.041L106.553 109.574L106.092 115.926L115.414 122.044C115.927 122.721 116.672 123.186 117.506 123.352C118.341 123.518 119.207 123.372 119.942 122.944C120.676 122.515 121.227 121.832 121.49 121.025C121.754 120.217 121.711 119.342 121.371 118.564V118.564Z" fill="#FFB6B6"/>
<path d="M82.116 73.4967L78.9105 71.9854C78.9105 71.9854 73.7464 73.4345 76.2553 80.2472L91.4383 108.466L109.975 119.294L115.754 114.185L97.2036 99.5417L82.116 73.4967Z" fill="#3F3D56"/>
</g>
<defs>
<clipPath id="clip0_94_761">
<rect width="478" height="220" fill="white"/>
</clipPath>
</defs>
</svg>
