<svg width="44" height="44" viewBox="0 0 44 44" fill="none" xmlns="http://www.w3.org/2000/svg">
<path d="M34.375 13.75L36.5654 17.875L41.25 18.4442L37.8125 21.5421L38.5 26.125L34.375 23.5469L30.25 26.125L30.9375 21.5421L27.5 18.4442L32.3125 17.875L34.375 13.75Z" fill="white"/>
<path d="M30.25 41.25H27.5V34.375C27.4978 32.5523 26.7728 30.8049 25.4839 29.5161C24.1951 28.2272 22.4477 27.5022 20.625 27.5H12.375C10.5523 27.5022 8.80489 28.2272 7.51605 29.5161C6.22721 30.8049 5.50218 32.5523 5.5 34.375V41.25H2.75V34.375C2.75291 31.8232 3.76791 29.3767 5.57231 27.5723C7.37672 25.7679 9.82318 24.7529 12.375 24.75H20.625C23.1768 24.7529 25.6233 25.7679 27.4277 27.5723C29.2321 29.3767 30.2471 31.8232 30.25 34.375V41.25Z" fill="white"/>
<path d="M16.5 5.5C17.8598 5.5 19.189 5.90321 20.3195 6.65865C21.4501 7.41408 22.3313 8.48781 22.8517 9.74405C23.372 11.0003 23.5082 12.3826 23.2429 13.7162C22.9776 15.0499 22.3228 16.2749 21.3614 17.2364C20.3999 18.1978 19.1749 18.8526 17.8413 19.1179C16.5076 19.3832 15.1253 19.247 13.8691 18.7267C12.6128 18.2063 11.5391 17.3251 10.7837 16.1945C10.0282 15.064 9.625 13.7347 9.625 12.375C9.625 10.5516 10.3493 8.80295 11.6386 7.51364C12.928 6.22433 14.6766 5.5 16.5 5.5ZM16.5 2.75C14.5964 2.75 12.7355 3.3145 11.1526 4.37211C9.56982 5.42971 8.33616 6.93293 7.60766 8.69167C6.87917 10.4504 6.68856 12.3857 7.05995 14.2527C7.43133 16.1198 8.34802 17.8348 9.6941 19.1809C11.0402 20.527 12.7552 21.4437 14.6223 21.8151C16.4893 22.1864 18.4246 21.9958 20.1833 21.2673C21.9421 20.5388 23.4453 19.3052 24.5029 17.7224C25.5605 16.1395 26.125 14.2786 26.125 12.375C26.125 9.82229 25.1109 7.37414 23.3059 5.5691C21.5009 3.76406 19.0527 2.75 16.5 2.75Z" fill="white"/>
</svg>
