<svg width="21" height="21" viewBox="0 0 21 21" fill="none" xmlns="http://www.w3.org/2000/svg">
<g clip-path="url(#clip0_413_1778)">
<path fill-rule="evenodd" clip-rule="evenodd" d="M1.92094 2.24111C1.92094 1.98638 1.81975 1.74208 1.63962 1.56195C1.4595 1.38183 1.2152 1.28064 0.960469 1.28064C0.705737 1.28064 0.461438 1.38183 0.281315 1.56195C0.101192 1.74208 0 1.98638 0 2.24111L0 18.2489C0 18.7791 0.43029 19.2094 0.960469 19.2094H19.5295C19.7843 19.2094 20.0286 19.1082 20.2087 18.9281C20.3888 18.748 20.49 18.5037 20.49 18.2489C20.49 17.9942 20.3888 17.7499 20.2087 17.5698C20.0286 17.3896 19.7843 17.2885 19.5295 17.2885H1.92094V2.24111ZM20.2083 5.48109C20.3779 5.29902 20.4703 5.0582 20.4659 4.80937C20.4615 4.56055 20.3607 4.32314 20.1847 4.14716C20.0088 3.97119 19.7713 3.87039 19.5225 3.866C19.2737 3.86161 19.0329 3.95397 18.8508 4.12363L12.8062 10.1682L9.64311 7.00503C9.46302 6.82517 9.2189 6.72414 8.96437 6.72414C8.70985 6.72414 8.46573 6.82517 8.28564 7.00503L4.12361 11.1671C3.95396 11.3491 3.86159 11.59 3.86598 11.8388C3.87037 12.0876 3.97117 12.325 4.14715 12.501C4.32312 12.677 4.56053 12.7778 4.80936 12.7822C5.05819 12.7865 5.299 12.6942 5.48108 12.5245L8.96437 9.04123L12.1275 12.2044C12.3076 12.3842 12.5517 12.4853 12.8062 12.4853C13.0608 12.4853 13.3049 12.3842 13.485 12.2044L20.2083 5.48109Z" fill="#C5C5C5"/>
</g>
<defs>
<clipPath id="clip0_413_1778">
<rect width="20.49" height="20.49" fill="white"/>
</clipPath>
</defs>
</svg>
