<svg width="24" height="24" viewBox="0 0 24 24" fill="none" xmlns="http://www.w3.org/2000/svg">
<path d="M21.26 12.8175H17.4431V10.9091H21.26V12.8175ZM21.26 13.908H17.4431V15.8165H21.26V13.908ZM21.26 4.91113H17.4431V6.81956H21.26V4.91118V4.91113ZM21.26 7.9101H17.4431V9.81853H21.26V7.9101ZM21.26 16.907H17.4431V18.8155H21.26V16.907V16.907ZM23.8964 20.6694C23.7873 21.2365 23.1057 21.2501 22.6504 21.2692H14.1715V23.7229H12.4785L0 21.5418V2.46018L12.5521 0.276367H14.1715V2.44926H22.3587C22.8195 2.46834 23.3266 2.43562 23.7273 2.71096C24.0082 3.11446 23.9809 3.62704 24 4.09049L23.9891 18.2838C23.9755 19.0772 24.0627 19.887 23.8964 20.6694ZM9.99745 16.3918C9.24502 14.865 8.47894 13.3492 7.72917 11.8224C8.47073 10.3365 9.20142 8.84526 9.92934 7.35393C9.31045 7.38393 8.69156 7.42209 8.07544 7.46573C7.61466 8.58623 7.07756 9.67678 6.7177 10.8355C6.38236 9.74221 5.93798 8.68982 5.53177 7.62384C4.93195 7.65656 4.33214 7.69199 3.73238 7.72743C4.36486 9.12337 5.03831 10.5001 5.65172 11.9042C4.92923 13.2674 4.25311 14.6497 3.55242 16.021C4.14947 16.0455 4.74656 16.0701 5.34361 16.0782C5.76895 14.9932 6.29784 13.949 6.66863 12.8421C7.00125 14.0308 7.56558 15.1295 8.02908 16.2663C8.68612 16.3127 9.34045 16.3536 9.9975 16.3918H9.99745ZM22.6997 3.74409H14.1715V4.91113H16.3526V6.81956H14.1715V7.9101H16.3526V9.81853H14.1715V10.9091H16.3526V12.8175H14.1715V13.908H16.3526V15.8165H14.1715V16.907H16.3526V18.8155H14.1715V20.0763H22.6997V3.74409Z" fill="#262626"/>
</svg>
