<svg width="21" height="21" viewBox="0 0 21 21" fill="none" xmlns="http://www.w3.org/2000/svg">
<path d="M16.0078 12.1659C15.4423 12.1658 14.893 12.3545 14.447 12.7022L12.5981 11.2615C12.7368 10.9406 12.8076 10.5946 12.8062 10.245C12.8076 10.1862 12.8049 10.1274 12.7982 10.0689L13.8628 9.71674C14.1985 10.2303 14.7079 10.6057 15.2978 10.7744C15.8877 10.9431 16.5186 10.8937 17.0751 10.6353C17.6316 10.3769 18.0764 9.92679 18.3282 9.36728C18.5799 8.80778 18.6218 8.17632 18.4461 7.58847C18.2705 7.00062 17.889 6.49568 17.3715 6.16607C16.854 5.83645 16.2351 5.7042 15.6281 5.79351C15.0211 5.88282 14.4666 6.18772 14.066 6.65241C13.6654 7.11711 13.4455 7.71052 13.4466 8.32406C13.4452 8.38287 13.4479 8.4417 13.4546 8.50015L12.39 8.85232C12.1586 8.49381 11.841 8.19901 11.4663 7.99488C11.0916 7.79074 10.6717 7.68377 10.245 7.68375C10.1031 7.68615 9.96144 7.69684 9.82079 7.71577L9.27652 6.48317C9.57924 6.24502 9.82377 5.94108 9.99157 5.59439C10.1594 5.2477 10.246 4.86735 10.245 4.48219C10.245 3.97562 10.0948 3.48043 9.81335 3.05923C9.53191 2.63804 9.1319 2.30976 8.66389 2.1159C8.19589 1.92205 7.6809 1.87133 7.18407 1.97015C6.68724 2.06898 6.23086 2.31291 5.87267 2.67111C5.51447 3.02931 5.27053 3.48568 5.17171 3.98251C5.07288 4.47935 5.1236 4.99433 5.31746 5.46234C5.51131 5.93034 5.8396 6.33036 6.26079 6.61179C6.68199 6.89322 7.17718 7.04344 7.68374 7.04344C7.82565 7.04104 7.96729 7.03035 8.10795 7.01142L8.65222 8.24403C8.3495 8.48217 8.10497 8.78611 7.93717 9.1328C7.76937 9.47949 7.68271 9.85984 7.68374 10.245C7.68434 10.6511 7.7803 11.0514 7.96388 11.4136L5.90688 13.2385C5.43232 12.9208 4.86521 12.7709 4.29567 12.8125C3.72612 12.854 3.18681 13.0848 2.76343 13.468C2.34004 13.8512 2.05687 14.3649 1.9589 14.9275C1.86094 15.4901 1.9538 16.0693 2.22273 16.5731C2.49166 17.0768 2.92123 17.4763 3.4432 17.708C3.96516 17.9396 4.54957 17.9902 5.10357 17.8516C5.65757 17.7131 6.14938 17.3934 6.50085 16.9433C6.85232 16.4932 7.0433 15.9386 7.04343 15.3675C7.04284 14.9614 6.94688 14.5611 6.7633 14.1989L8.8203 12.374C9.26583 12.6724 9.79397 12.8229 10.3298 12.8042C10.8657 12.7855 11.3821 12.5986 11.8058 12.27L13.6547 13.7107C13.516 14.0316 13.4452 14.3776 13.4466 14.7272C13.4466 15.2338 13.5968 15.729 13.8782 16.1501C14.1596 16.5713 14.5597 16.8996 15.0277 17.0935C15.4957 17.2873 16.0106 17.3381 16.5075 17.2392C17.0043 17.1404 17.4607 16.8965 17.8189 16.5383C18.1771 16.1801 18.421 15.7237 18.5198 15.2269C18.6187 14.73 18.5679 14.2151 18.3741 13.747C18.1802 13.279 17.852 12.879 17.4308 12.5976C17.0096 12.3162 16.5144 12.1659 16.0078 12.1659ZM16.0078 7.04344C16.2611 7.04344 16.5087 7.11855 16.7193 7.25926C16.9299 7.39998 17.094 7.59999 17.1909 7.83399C17.2879 8.06799 17.3132 8.32549 17.2638 8.5739C17.2144 8.82232 17.0924 9.0505 16.9133 9.2296C16.7342 9.4087 16.5061 9.53067 16.2576 9.58008C16.0092 9.6295 15.7517 9.60414 15.5177 9.50721C15.2837 9.41028 15.0837 9.24614 14.943 9.03554C14.8023 8.82494 14.7272 8.57735 14.7272 8.32406C14.7272 7.98442 14.8621 7.65869 15.1023 7.41853C15.3424 7.17836 15.6682 7.04344 16.0078 7.04344ZM6.40312 4.48219C6.40312 4.2289 6.47823 3.98131 6.61894 3.77071C6.75966 3.56011 6.95967 3.39597 7.19367 3.29904C7.42767 3.20212 7.68516 3.17676 7.93358 3.22617C8.182 3.27558 8.41018 3.39755 8.58928 3.57665C8.76838 3.75575 8.89035 3.98393 8.93976 4.23235C8.98918 4.48077 8.96382 4.73826 8.86689 4.97226C8.76996 5.20627 8.60582 5.40627 8.39522 5.54699C8.18462 5.68771 7.93703 5.76281 7.68374 5.76281C7.3441 5.76281 7.01837 5.62789 6.77821 5.38773C6.53804 5.14756 6.40312 4.82183 6.40312 4.48219ZM4.48218 16.6481C4.2289 16.6481 3.9813 16.573 3.77071 16.4323C3.56011 16.2916 3.39597 16.0916 3.29904 15.8576C3.20211 15.6236 3.17675 15.3661 3.22616 15.1177C3.27558 14.8692 3.39755 14.6411 3.57664 14.462C3.75574 14.2829 3.98393 14.1609 4.23234 14.1115C4.48076 14.0621 4.73825 14.0874 4.97226 14.1844C5.20626 14.2813 5.40627 14.4454 5.54698 14.656C5.6877 14.8666 5.76281 15.1142 5.76281 15.3675C5.76281 15.7071 5.62788 16.0329 5.38772 16.273C5.14756 16.5132 4.82183 16.6481 4.48218 16.6481ZM8.96437 10.245C8.96437 9.99172 9.03948 9.74412 9.18019 9.53353C9.32091 9.32293 9.52092 9.15879 9.75492 9.06186C9.98892 8.96493 10.2464 8.93957 10.4948 8.98898C10.7432 9.0384 10.9714 9.16037 11.1505 9.33946C11.3296 9.51856 11.4516 9.74675 11.501 9.99516C11.5504 10.2436 11.5251 10.5011 11.4281 10.7351C11.3312 10.9691 11.1671 11.1691 10.9565 11.3098C10.7459 11.4505 10.4983 11.5256 10.245 11.5256C9.90535 11.5256 9.57962 11.3907 9.33946 11.1505C9.09929 10.9104 8.96437 10.5846 8.96437 10.245ZM16.0078 16.0078C15.7545 16.0078 15.5069 15.9327 15.2963 15.792C15.0857 15.6513 14.9216 15.4513 14.8247 15.2173C14.7277 14.9833 14.7024 14.7258 14.7518 14.4774C14.8012 14.2289 14.9232 14.0008 15.1023 13.8217C15.2814 13.6426 15.5096 13.5206 15.758 13.4712C16.0064 13.4218 16.2639 13.4471 16.4979 13.544C16.7319 13.641 16.9319 13.8051 17.0726 14.0157C17.2133 14.2263 17.2884 14.4739 17.2884 14.7272C17.2884 15.0668 17.1535 15.3926 16.9133 15.6327C16.6732 15.8729 16.3474 16.0078 16.0078 16.0078Z" fill="#C5C5C5"/>
</svg>
