<svg width="136" height="122" viewBox="0 0 136 122" fill="none" xmlns="http://www.w3.org/2000/svg">
<g clip-path="url(#clip0_76_793)">
<path d="M134.807 46.6553C134.758 46.6553 134.711 46.6404 134.671 46.6125L68.6847 0.689567C68.4839 0.550466 68.2453 0.476127 68.0009 0.476544C67.7566 0.47696 67.5182 0.552111 67.3179 0.691896L1.80721 46.6121C1.7554 46.6484 1.69127 46.6627 1.62893 46.6517C1.56659 46.6408 1.51115 46.6056 1.4748 46.5538C1.43846 46.502 1.42419 46.4379 1.43513 46.3756C1.44607 46.3133 1.48133 46.2579 1.53314 46.2216L67.0439 0.301416C67.3244 0.105746 67.6581 0.000564041 68.0002 2.26215e-06C68.3422 -0.000559517 68.6763 0.103525 68.9574 0.298272L134.943 46.2211C134.985 46.2501 135.016 46.2917 135.033 46.3398C135.049 46.3878 135.05 46.4398 135.035 46.4883C135.019 46.5367 134.989 46.579 134.948 46.6091C134.907 46.6391 134.858 46.6553 134.807 46.6553L134.807 46.6553Z" fill="#3F3D56"/>
<path d="M5.5507 48.2831L68.0659 1.98352L131.055 51.5775L71.2869 86.9848L38.8378 79.5934L5.5507 48.2831Z" fill="#E6E6E6"/>
<path d="M41.5768 108.854H10.6928C10.5031 108.855 10.3153 108.817 10.14 108.745C9.96474 108.673 9.80546 108.567 9.67128 108.433C9.5371 108.299 9.43066 108.14 9.35803 107.965C9.2854 107.79 9.24802 107.602 9.24802 107.412C9.24802 107.223 9.2854 107.035 9.35803 106.86C9.43066 106.685 9.5371 106.526 9.67128 106.392C9.80546 106.258 9.96474 106.152 10.14 106.08C10.3153 106.007 10.5031 105.97 10.6928 105.971H41.5768C41.7664 105.97 41.9542 106.007 42.1295 106.08C42.3048 106.152 42.464 106.258 42.5982 106.392C42.7324 106.526 42.8389 106.685 42.9115 106.86C42.9841 107.035 43.0215 107.223 43.0215 107.412C43.0215 107.602 42.9841 107.79 42.9115 107.965C42.8389 108.14 42.7324 108.299 42.5982 108.433C42.464 108.567 42.3048 108.673 42.1295 108.745C41.9542 108.817 41.7664 108.855 41.5768 108.854V108.854Z" fill="#664FA7"/>
<path d="M21.7732 102.655H10.6928C10.5031 102.655 10.3153 102.618 10.14 102.546C9.96474 102.473 9.80546 102.367 9.67128 102.233C9.5371 102.099 9.43066 101.94 9.35803 101.765C9.2854 101.59 9.24802 101.403 9.24802 101.213C9.24802 101.024 9.2854 100.836 9.35803 100.661C9.43066 100.486 9.5371 100.327 9.67128 100.193C9.80546 100.059 9.96474 99.9528 10.14 99.8805C10.3153 99.8081 10.5031 99.771 10.6928 99.7712H21.7732C21.9629 99.771 22.1507 99.8081 22.326 99.8805C22.5013 99.9528 22.6605 100.059 22.7947 100.193C22.9289 100.327 23.0354 100.486 23.108 100.661C23.1806 100.836 23.218 101.024 23.218 101.213C23.218 101.403 23.1806 101.59 23.108 101.765C23.0354 101.94 22.9289 102.099 22.7947 102.233C22.6605 102.367 22.5013 102.473 22.326 102.546C22.1507 102.618 21.9629 102.655 21.7732 102.655Z" fill="#664FA7"/>
<path d="M68.9449 74.0713C68.7101 74.0716 68.4776 74.0261 68.2603 73.9373L29.7053 57.9507V7.90987C29.7058 7.46738 29.882 7.04315 30.1951 6.73026C30.5082 6.41737 30.9327 6.24136 31.3755 6.24084H105.34C105.783 6.24136 106.208 6.41737 106.521 6.73026C106.834 7.04315 107.01 7.46738 107.011 7.90987V57.9856L106.938 58.0166L69.6502 73.9295C69.4269 74.0233 69.1871 74.0715 68.9449 74.0713Z" fill="white"/>
<path d="M68.9449 74.1905C68.6946 74.1908 68.4466 74.1423 68.2149 74.0478L29.586 58.0304V7.90995C29.5866 7.43584 29.7753 6.98131 30.1107 6.64606C30.4462 6.31082 30.9011 6.12224 31.3755 6.1217H105.34C105.815 6.12224 106.27 6.31082 106.605 6.64606C106.941 6.98131 107.129 7.43584 107.13 7.90995V58.0644L69.697 74.0392C69.4589 74.1393 69.2032 74.1907 68.9449 74.1905V74.1905ZM30.0632 57.7119L68.3968 73.6069C68.7544 73.7519 69.1548 73.7495 69.5106 73.6003L106.653 57.7496V7.90995C106.652 7.56228 106.514 7.22896 106.268 6.98312C106.022 6.73728 105.688 6.59898 105.34 6.59857H31.3755C31.0276 6.59898 30.694 6.73728 30.448 6.98312C30.202 7.22896 30.0636 7.56228 30.0632 7.90995L30.0632 57.7119Z" fill="#3F3D56"/>
<path d="M134.33 46.1785H134.282L106.891 57.8664L69.4149 73.8581C69.2685 73.9197 69.1113 73.9518 68.9525 73.9526C68.7936 73.9534 68.6361 73.9229 68.4891 73.8629L29.8246 57.8331L1.76081 46.1975L1.71794 46.1785H1.67018C1.22737 46.179 0.802836 46.355 0.489724 46.6679C0.176612 46.9808 0.00049133 47.405 0 47.8475V120.331C0.00049196 120.774 0.176612 121.198 0.489724 121.511C0.802836 121.824 1.22737 122 1.67018 122H134.33C134.773 122 135.197 121.824 135.51 121.511C135.823 121.198 136 120.774 136 120.331V47.8475C136 47.405 135.823 46.9808 135.51 46.6679C135.197 46.355 134.773 46.179 134.33 46.1785V46.1785ZM135.523 120.331C135.523 120.647 135.397 120.95 135.173 121.174C134.95 121.397 134.646 121.523 134.33 121.523H1.67018C1.35382 121.523 1.05045 121.397 0.826751 121.174C0.60305 120.95 0.477319 120.647 0.477193 120.331V47.8475C0.477626 47.5392 0.597293 47.243 0.811176 47.0208C1.02506 46.7987 1.3166 46.6677 1.62486 46.6553L29.8246 58.3481L68.3055 74.304C68.722 74.4734 69.1888 74.4708 69.6034 74.2968L106.891 58.3838L134.378 46.6553C134.685 46.6686 134.976 46.7999 135.189 47.022C135.403 47.244 135.522 47.5397 135.523 47.8475V120.331Z" fill="#3F3D56"/>
<path d="M64.2136 57.5564C63.1908 57.5584 62.1951 57.2242 61.3767 56.6045L61.3259 56.566L50.6423 48.3028C50.1475 47.9198 49.7322 47.4421 49.4202 46.897C49.1081 46.3519 48.9054 45.7501 48.8236 45.1259C48.7418 44.5016 48.7826 43.8672 48.9435 43.2589C49.1044 42.6506 49.3823 42.0802 49.7614 41.5804C50.1405 41.0805 50.6133 40.661 51.1529 40.3458C51.6925 40.0306 52.2883 39.8258 52.9062 39.7432C53.5242 39.6606 54.1522 39.7017 54.7543 39.8642C55.3565 40.0268 55.9212 40.3075 56.4159 40.6905L63.336 46.0508L79.6892 24.5063C80.0685 24.0066 80.5415 23.5873 81.0812 23.2723C81.6209 22.9572 82.2167 22.7527 82.8347 22.6703C83.4527 22.5879 84.0806 22.6292 84.6828 22.792C85.2849 22.9548 85.8494 23.2358 86.3441 23.6189L86.2424 23.7584L86.3467 23.621C87.3445 24.3956 87.9973 25.5385 88.162 26.7988C88.3267 28.0591 87.9898 29.334 87.2252 30.3437L67.9898 55.6852C67.545 56.2691 66.9729 56.7417 66.318 57.0662C65.6631 57.3907 64.943 57.5585 64.2136 57.5564V57.5564Z" fill="#DE9F4C"/>
</g>
<defs>
<clipPath id="clip0_76_793">
<rect width="136" height="122" fill="white"/>
</clipPath>
</defs>
</svg>
