<svg width="318" height="211" viewBox="0 0 318 211" fill="none" xmlns="http://www.w3.org/2000/svg">
<path d="M161.096 59.3037C158.261 54.6177 154.901 49.6144 149.639 48.0842C143.545 46.3123 137.286 49.8324 131.976 53.306C116.097 63.6944 100.806 74.9526 86.1714 87.0288L86.1874 87.2107C97.5808 86.4256 108.974 85.6405 120.368 84.8554C128.599 84.2882 137.114 83.6427 144.388 79.7515C147.149 78.2749 149.84 76.3026 152.968 76.1651C156.854 75.9944 160.243 78.7065 162.906 81.5401C178.658 98.3016 183.216 123.934 200.889 138.66C189.745 111.198 176.439 84.663 161.096 59.3037V59.3037Z" fill="#F2F2F2"/>
<path d="M257.924 201.471C256.182 199.273 255.47 198.759 253.752 196.54C239.761 178.459 226.61 159.767 214.301 140.464C205.939 127.354 197.993 113.992 190.461 100.379C186.875 93.9066 183.387 87.3839 179.998 80.8103C177.368 75.7133 174.797 70.5859 172.284 65.4279C171.566 63.9547 170.867 62.4747 170.173 60.9914C168.536 57.5031 166.929 53.9979 165.204 50.557C163.238 46.6352 160.845 42.5237 157.236 39.8889C155.593 38.6406 153.629 37.8853 151.572 37.7113C148.634 37.5216 145.922 38.734 143.374 40.0582C124.726 49.7746 107.268 61.9566 91.4775 75.8184C75.6465 89.7112 61.4962 105.407 49.315 122.585C48.9424 123.117 48.0611 122.609 48.4373 122.074C49.9184 119.981 51.4289 117.91 52.9687 115.863C72.1156 90.417 95.5925 68.5352 122.326 51.2174C126.824 48.3048 131.406 45.5289 136.073 42.8895C138.425 41.5585 140.788 40.2445 143.191 39.0117C145.546 37.8027 148.048 36.7155 150.739 36.6749C159.896 36.5327 164.638 46.896 167.895 53.8692C168.919 56.0637 169.955 58.2515 171.003 60.4326C174.965 68.713 179.08 76.9179 183.347 85.0471C185.98 90.0662 188.671 95.0559 191.42 100.016C199.974 115.463 209.067 130.597 218.697 145.418C231.454 165.051 244.109 182.394 258.642 200.753C259.042 201.261 258.327 201.986 257.924 201.471Z" fill="#E4E4E4"/>
<path d="M90.5725 70.701C90.0404 70.1084 89.5117 69.5157 88.9761 68.923C84.7531 64.2561 80.2218 59.6435 74.4227 56.968C71.6576 55.652 68.6392 54.9528 65.5767 54.919C62.4112 54.9292 59.3168 55.7589 56.3919 56.9206C55.0091 57.4726 53.6567 58.0991 52.3248 58.7663C50.803 59.5317 49.3083 60.3479 47.8205 61.1709C45.0277 62.7152 42.2711 64.3273 39.5507 66.0071C34.138 69.3497 28.8948 72.9475 23.8211 76.8004C21.191 78.7986 18.6151 80.8622 16.0935 82.9913C13.7482 84.9692 11.4503 87 9.19984 89.084C8.71859 89.5276 8.00003 88.8097 8.48127 88.366C9.07439 87.814 9.6743 87.2653 10.2742 86.7235C11.9688 85.1927 13.6906 83.6912 15.4395 82.2192C18.6287 79.5301 21.9005 76.9449 25.2548 74.4636C30.4709 70.6028 35.8666 67.0039 41.4418 63.6669C44.2279 62.0006 47.0522 60.4043 49.9149 58.8781C50.7793 58.4175 51.6538 57.9671 52.5383 57.5403C54.5454 56.5287 56.6309 55.6804 58.7745 55.0037C61.811 54.0221 65.0237 53.7068 68.1933 54.0791C71.2536 54.5239 74.2022 55.5432 76.8834 57.0831C82.5773 60.2632 86.9934 65.1807 91.291 69.9797C91.7249 70.4673 91.0097 71.1887 90.5725 70.701Z" fill="#E4E4E4"/>
<path d="M207.239 119.062L220.883 114.076L227.657 111.6C229.863 110.793 232.064 109.875 234.345 109.298C236.327 108.732 238.432 108.759 240.398 109.375C242.153 110.024 243.758 111.018 245.12 112.3C246.511 113.58 247.806 114.961 248.993 116.432C250.468 118.203 251.921 119.993 253.38 121.777C259.405 129.139 265.389 136.532 271.335 143.958C277.28 151.384 283.185 158.841 289.051 166.329C294.931 173.836 300.771 181.375 306.57 188.944C307.28 189.872 307.99 190.799 308.699 191.728C309.091 192.241 309.975 191.735 309.577 191.215C303.735 183.569 297.853 175.955 291.929 168.371C285.991 160.77 280.012 153.201 273.992 145.664C267.972 138.127 261.912 130.623 255.81 123.152C254.29 121.29 252.768 119.431 251.243 117.574C249.956 116.007 248.684 114.424 247.273 112.965C244.684 110.289 241.448 107.923 237.574 107.859C235.297 107.821 233.093 108.544 230.977 109.308C228.696 110.133 226.421 110.973 224.143 111.806L210.403 116.827L206.968 118.082C206.359 118.305 206.622 119.287 207.239 119.062L207.239 119.062Z" fill="#E4E4E4"/>
<path d="M72.6272 62.8403C65.6936 59.2795 56.8141 59.9769 50.4426 64.4256C62.5958 66.5208 74.6159 69.3241 86.4416 72.8213C81.5309 69.9456 77.6895 65.4402 72.6272 62.8403Z" fill="#F2F2F2"/>
<path d="M50.3744 64.4133L49.0396 65.4975C49.4911 65.118 49.9605 64.7623 50.4426 64.4256C50.4199 64.4217 50.3972 64.4173 50.3744 64.4133Z" fill="#F2F2F2"/>
<path d="M244.606 119.112C243.263 117.478 241.811 115.768 239.802 115.104L237.927 115.178C252.204 140.388 271.487 162.416 294.591 179.91C277.93 159.644 261.268 139.378 244.606 119.112Z" fill="#F2F2F2"/>
<path d="M127.975 105.635C128.843 108.786 130.799 111.529 133.495 113.378C134.538 114.088 135.772 114.768 136.128 115.977C136.316 116.748 136.2 117.561 135.805 118.249C135.411 118.928 134.931 119.554 134.378 120.111L134.327 120.301C131.74 118.768 129.278 116.83 127.849 114.186C126.42 111.542 126.22 108.076 127.975 105.635" fill="#F2F2F2"/>
<path d="M214.118 180.63C214.986 183.781 216.941 186.524 219.638 188.373C220.681 189.082 221.914 189.763 222.271 190.972C222.459 191.742 222.343 192.556 221.948 193.244C221.554 193.923 221.074 194.549 220.521 195.106L220.47 195.295C217.883 193.763 215.421 191.825 213.992 189.181C212.563 186.536 212.363 183.071 214.118 180.63" fill="#F2F2F2"/>
<path d="M42.2023 175.458C43.0703 178.609 45.0257 181.352 47.7225 183.201C48.7652 183.91 49.9988 184.59 50.3555 185.799C50.5431 186.57 50.4275 187.383 50.0325 188.071C49.6382 188.751 49.1584 189.377 48.6049 189.934L48.5544 190.123C45.967 188.591 43.5055 186.653 42.0762 184.009C40.647 181.364 40.4474 177.899 42.2023 175.458" fill="#F2F2F2"/>
<path d="M240.034 37.682C250.448 37.682 258.89 29.2466 258.89 18.841C258.89 8.4354 250.448 0 240.034 0C229.621 0 221.179 8.4354 221.179 18.841C221.179 29.2466 229.621 37.682 240.034 37.682Z" fill="#DE9F4C"/>
<path d="M274.061 4.38532C264.923 3.15107 254.49 8.08654 252.122 16.9916C251.525 15.4083 250.44 14.0556 249.023 13.1289C247.606 12.2022 245.932 11.7495 244.241 11.8362C242.55 11.9229 240.93 12.5445 239.616 13.6112C238.301 14.678 237.361 16.1346 236.929 17.7706L237.975 18.5194C257.558 22.7509 277.829 22.6593 297.373 18.251C291.016 11.5758 283.199 5.61955 274.061 4.38532Z" fill="#F0F0F0"/>
<path d="M234.872 29.5067C225.733 28.2724 215.301 33.2079 212.932 42.113C212.336 40.5296 211.25 39.1769 209.834 38.2502C208.417 37.3235 206.742 36.8708 205.051 36.9575C203.36 37.0442 201.741 37.6658 200.426 38.7326C199.112 39.7993 198.171 41.2559 197.74 42.892L198.786 43.6407C218.369 47.8723 238.64 47.7807 258.183 43.3724C251.827 36.6971 244.01 30.7409 234.872 29.5067Z" fill="#F0F0F0"/>
<path d="M314.628 34.2567C314.59 34.2567 314.553 34.2509 314.517 34.2393C216.763 3.34818 130.606 7.38774 75.5429 16.2162C68.0494 17.4172 60.5358 18.8044 53.2109 20.3395C51.3409 20.7309 49.4008 21.1505 47.4447 21.5874C45.1085 22.1073 42.8034 22.6427 40.5931 23.1781C39.6385 23.4039 38.7026 23.6315 37.7852 23.861C36.3958 24.2037 34.9859 24.5609 33.4745 24.9534C31.7857 25.3885 30.0699 25.8449 28.3735 26.3099C28.3673 26.3121 28.361 26.3139 28.3545 26.3153L28.3547 26.3157C26.4387 26.8384 24.5327 27.3764 22.6896 27.9136C21.692 28.2015 20.7287 28.4854 19.8061 28.7657C19.703 28.7942 19.6116 28.8216 19.519 28.8498L19.3208 28.91C19.206 28.945 19.0926 28.9793 18.9793 29.0117L18.972 29.0139L18.9722 29.0143L18.6722 29.1074C18.3144 29.2156 17.9653 29.3213 17.6219 29.4267C8.54738 32.2219 3.55881 34.2105 3.50953 34.23C3.46446 34.248 3.41628 34.257 3.36773 34.2565C3.31919 34.2559 3.27122 34.2458 3.22658 34.2267C3.18194 34.2077 3.1415 34.18 3.10756 34.1453C3.07363 34.1106 3.04686 34.0696 3.0288 34.0245C3.01073 33.9795 3.00173 33.9313 3.00228 33.8828C3.00284 33.8343 3.01295 33.7864 3.03205 33.7418C3.05114 33.6972 3.07884 33.6568 3.11356 33.6229C3.14828 33.589 3.18935 33.5622 3.23441 33.5442C3.28406 33.5247 8.297 31.526 17.4046 28.7203C17.7492 28.6146 18.0992 28.5089 18.4581 28.4003L18.7368 28.3137C18.7464 28.3101 18.756 28.3072 18.7657 28.3043C18.8785 28.2722 18.9912 28.2379 19.1056 28.2033L19.3042 28.143C19.4031 28.1131 19.5006 28.0835 19.6004 28.0561C20.5168 27.7776 21.4833 27.4929 22.4834 27.2039C24.3273 26.6664 26.235 26.1285 28.1525 25.605C28.1585 25.6028 28.1646 25.6014 28.1706 25.5996V25.5992C29.8729 25.1327 31.5951 24.6746 33.2893 24.238C34.803 23.8451 36.2156 23.4873 37.6074 23.1438C38.5286 22.9147 39.4664 22.6866 40.4207 22.4594C42.6336 21.9233 44.9433 21.3872 47.2836 20.8662C49.2429 20.429 51.1862 20.0083 53.0593 19.6165C60.3956 18.0789 67.9208 16.6896 75.4257 15.4868C130.568 6.64565 216.848 2.59956 314.739 33.5351C314.824 33.5617 314.895 33.6174 314.942 33.6923C314.989 33.7673 315.007 33.8564 314.993 33.9435C314.98 34.0307 314.936 34.1102 314.869 34.1676C314.802 34.2251 314.716 34.2567 314.628 34.2567V34.2567Z" fill="#CCCCCC"/>
<path d="M97.2298 155.102C97.1018 154.728 96.8863 154.39 96.6013 154.116C96.4961 154.018 96.3823 153.93 96.2612 153.853C95.2962 153.211 93.8544 153.066 92.9375 153.853C92.8451 153.933 92.7598 154.021 92.6824 154.116C92.4088 154.452 92.1278 154.781 91.8394 155.102C91.3662 155.641 90.8819 156.162 90.3754 156.668C90.2312 156.809 90.087 156.953 89.9391 157.093C89.8541 157.178 89.7691 157.259 89.684 157.341C89.3587 157.651 89.0259 157.95 88.6895 158.246C88.512 158.405 88.3346 158.56 88.1534 158.711C87.8835 158.937 87.6137 159.162 87.3401 159.38C87.3142 159.399 87.2883 159.417 87.2624 159.439C87.255 159.443 87.2513 159.45 87.2439 159.454C87.2402 159.454 87.2365 159.454 87.2328 159.461C87.2228 159.465 87.214 159.472 87.207 159.48C87.1256 159.535 87.0702 159.572 87.0295 159.605C87.0443 159.598 87.0591 159.587 87.0739 159.58C87.0073 159.631 86.9371 159.683 86.8705 159.735C86.2235 160.211 85.5617 160.669 84.8852 161.098C83.2113 162.168 81.453 163.101 79.6279 163.887C79.5059 163.935 79.3802 163.987 79.2545 164.035C74.4758 165.991 69.2921 166.755 64.1518 166.259C63.6268 166.218 63.1018 166.163 62.5768 166.093C61.9705 166.004 61.3679 165.897 60.7689 165.775C58.4888 165.32 56.2577 164.647 54.1067 163.765C51.416 162.534 48.8569 161.034 46.4685 159.288C46.0988 159.025 45.7254 158.763 45.352 158.508C45.7772 157.466 46.1949 156.425 46.6016 155.375C46.805 154.869 47.0009 154.363 47.1932 153.853C48.7053 149.926 50.125 145.962 51.4855 141.984C52.8608 137.953 54.1585 133.899 55.3785 129.822C55.5042 129.408 55.6263 128.994 55.7446 128.581C56.3842 126.427 56.9979 124.268 57.5857 122.104C57.6412 121.894 57.7003 121.687 57.7521 121.476C57.9221 120.856 58.0885 120.235 58.2512 119.614C58.6209 118.214 57.7854 116.541 56.3139 116.205C55.6055 116.023 54.8541 116.123 54.2183 116.485C53.5824 116.846 53.1116 117.439 52.9052 118.14C52.7462 118.739 52.5872 119.334 52.4246 119.932C51.6445 122.825 50.8237 125.708 49.9623 128.581C49.8366 128.994 49.7109 129.408 49.5852 129.822C47.6849 136.08 45.5985 142.275 43.326 148.408C43.0524 149.15 42.7751 149.891 42.4941 150.628C42.3573 150.99 42.2205 151.352 42.08 151.714C41.8102 152.427 41.5329 153.14 41.2556 153.853C41.0966 154.271 40.9339 154.688 40.7713 155.102C40.6641 155.364 40.5605 155.627 40.457 155.885C39.4029 155.507 38.3108 155.244 37.1999 155.102L37.0224 155.08C36.1611 154.976 35.2901 154.984 34.4307 155.102C33.1445 155.252 31.907 155.682 30.8056 156.363C29.7042 157.043 28.7659 157.957 28.0569 159.04C26.2934 161.815 26.3156 165.782 28.7889 168.139C31.3362 170.566 35.1923 170.548 38.1907 169.03C39.7796 168.171 41.1194 166.916 42.08 165.387C42.4481 164.833 42.7862 164.259 43.0931 163.669C43.1707 163.721 43.2483 163.773 43.326 163.828C43.6217 164.035 43.9175 164.245 44.2096 164.452C45.9114 165.684 47.7047 166.785 49.5741 167.744C53.5936 169.741 57.9203 171.048 62.3735 171.612C62.4733 171.623 62.5694 171.638 62.6692 171.649C63.161 171.712 63.6564 171.76 64.1518 171.8C71.2584 172.335 78.3738 170.882 84.7003 167.604C85.2364 167.327 85.7676 167.036 86.2938 166.732C87.1108 166.259 87.9094 165.756 88.6895 165.224C89.1147 164.936 89.5288 164.644 89.9391 164.338C91.7324 163.018 93.404 161.54 94.9339 159.923C95.5144 159.314 96.0701 158.684 96.6013 158.035C97.1036 157.504 97.3931 156.808 97.4147 156.077C97.4118 155.744 97.3492 155.413 97.2298 155.102V155.102ZM36.0094 163.902C36.087 163.846 36.1647 163.787 36.2386 163.728C36.2164 163.784 36.1092 163.846 36.0094 163.902H36.0094ZM37.1962 162.709C37.1111 162.805 37.0335 162.901 36.9485 162.997C36.6898 163.286 36.4118 163.558 36.1166 163.81C36.0759 163.846 36.0316 163.883 35.9872 163.917C35.9867 163.917 35.9862 163.917 35.9858 163.917C35.9853 163.917 35.9849 163.917 35.9846 163.918C35.9842 163.918 35.984 163.918 35.9838 163.919C35.9836 163.919 35.9835 163.92 35.9835 163.92C35.9301 163.944 35.8782 163.971 35.8282 164.002C35.6692 164.098 35.5066 164.186 35.3402 164.268C35.0145 164.387 34.6794 164.48 34.3383 164.545C34.0762 164.564 33.8132 164.566 33.5508 164.552H33.5434C33.3623 164.512 33.1834 164.463 33.0073 164.404C32.9186 164.36 32.8336 164.308 32.7485 164.257C32.7153 164.227 32.6857 164.197 32.6672 164.179C32.6311 164.146 32.5977 164.11 32.5674 164.072C32.5674 164.071 32.5673 164.071 32.5671 164.07C32.567 164.07 32.5667 164.07 32.5663 164.069C32.566 164.069 32.5656 164.069 32.5651 164.068C32.5647 164.068 32.5642 164.068 32.5637 164.068C32.523 163.994 32.4787 163.92 32.438 163.846C32.4359 163.845 32.4346 163.842 32.4343 163.839C32.4047 163.747 32.3789 163.651 32.3567 163.555C32.3487 163.386 32.3499 163.217 32.3604 163.048C32.41 162.812 32.4767 162.58 32.56 162.354C32.6349 162.193 32.7201 162.038 32.8151 161.888C32.8225 161.874 32.8595 161.815 32.9001 161.748C32.9038 161.744 32.9038 161.744 32.9038 161.741C32.9593 161.678 33.0148 161.611 33.0739 161.552C33.1737 161.441 33.281 161.345 33.3882 161.246C33.5967 161.109 33.8127 160.985 34.0352 160.873C34.3881 160.747 34.7503 160.65 35.1184 160.581C35.6613 160.538 36.2069 160.543 36.7488 160.595C37.2622 160.684 37.7687 160.809 38.2646 160.969C37.964 161.552 37.6218 162.112 37.2405 162.646C37.2257 162.668 37.211 162.69 37.1962 162.709V162.709ZM33.085 161.493C33.0524 161.545 33.014 161.594 32.9704 161.637C32.9997 161.583 33.0385 161.534 33.085 161.493V161.493Z" fill="#3F3D56"/>
<path d="M86.1163 117.372C86.0831 118.532 86.0498 119.692 86.0165 120.852C85.9463 123.427 85.8735 126.003 85.7984 128.581C85.7207 131.481 85.6394 134.379 85.5544 137.277C85.5137 138.773 85.4718 140.269 85.4287 141.766C85.314 145.796 85.2007 149.825 85.0885 153.853C85.0774 154.271 85.0626 154.685 85.0516 155.102C84.9961 157.101 84.9406 159.099 84.8852 161.098C84.8223 163.266 84.7607 165.435 84.7003 167.604C84.656 169.229 84.6104 170.856 84.5635 172.484C84.2308 184.28 83.8981 196.076 83.5653 207.872C83.5513 208.602 83.2546 209.299 82.7376 209.815C82.2206 210.332 81.5235 210.628 80.7925 210.642C80.0589 210.636 79.3571 210.343 78.8383 209.824C78.3196 209.306 78.0256 208.605 78.0197 207.872C78.2045 201.237 78.3918 194.602 78.5816 187.967C78.748 181.967 78.9168 175.968 79.0881 169.968C79.1436 167.992 79.199 166.014 79.2545 164.035C79.3395 161.057 79.4233 158.08 79.5059 155.102C79.517 154.685 79.5318 154.271 79.5429 153.853C79.5503 153.488 79.5613 153.126 79.5724 152.76C79.7351 146.978 79.8978 141.195 80.0605 135.411C80.127 133.136 80.1911 130.859 80.2527 128.581C80.3266 125.984 80.4006 123.388 80.4745 120.793C80.5078 119.651 80.5374 118.514 80.5707 117.372C80.5847 116.642 80.8814 115.945 81.3984 115.428C81.9153 114.912 82.6125 114.615 83.3435 114.601C84.0771 114.607 84.7789 114.901 85.2976 115.419C85.8164 115.938 86.1104 116.639 86.1163 117.372V117.372Z" fill="#3F3D56"/>
<path d="M238.226 118.141C235.318 129.142 231.843 139.986 227.814 150.629C226.703 153.565 225.565 156.495 224.35 159.389L224.629 158.727C224.086 160.106 223.393 161.421 222.563 162.648C222.506 162.727 222.449 162.805 222.39 162.883C222.677 162.516 222.732 162.443 222.554 162.665C222.46 162.776 222.367 162.888 222.27 162.996C222.011 163.285 221.733 163.557 221.438 163.81C221.364 163.873 221.289 163.935 221.212 163.996L221.559 163.727C221.519 163.822 221.236 163.947 221.148 164.001C220.863 164.173 220.566 164.323 220.259 164.451L220.922 164.172C220.418 164.375 219.894 164.518 219.357 164.601L220.094 164.502C219.568 164.575 219.034 164.58 218.505 164.519L219.243 164.618C218.81 164.558 218.387 164.445 217.984 164.279L218.646 164.558C218.431 164.465 218.223 164.354 218.025 164.227C217.925 164.162 217.617 163.929 218.02 164.236C218.439 164.556 218.074 164.264 217.988 164.179C217.916 164.108 217.851 164.031 217.781 163.959C217.455 163.625 218.149 164.534 217.927 164.143C217.809 163.947 217.701 163.746 217.603 163.539L217.882 164.2C217.755 163.885 217.665 163.557 217.613 163.221L217.712 163.957C217.659 163.54 217.659 163.117 217.711 162.7L217.612 163.436C217.68 162.97 217.803 162.514 217.98 162.077L217.7 162.739C217.823 162.445 217.969 162.161 218.136 161.889C218.212 161.749 218.303 161.617 218.405 161.494C218.423 161.499 217.936 162.052 218.194 161.773C218.262 161.7 218.325 161.623 218.394 161.551C218.503 161.435 218.621 161.329 218.736 161.219C219.122 160.852 218.195 161.576 218.641 161.285C218.964 161.073 219.304 160.888 219.658 160.731L218.995 161.011C219.587 160.768 220.208 160.601 220.842 160.516L220.105 160.615C220.899 160.523 221.702 160.533 222.493 160.643L221.756 160.544C222.759 160.696 223.739 160.971 224.674 161.364L224.012 161.085C226.004 161.94 227.769 163.209 229.531 164.453C231.232 165.684 233.025 166.784 234.894 167.744C238.913 169.741 243.24 171.049 247.694 171.613C254.081 172.395 260.562 171.561 266.543 169.189C272.524 166.817 277.812 162.982 281.924 158.036C282.425 157.504 282.714 156.807 282.736 156.076C282.731 155.343 282.439 154.64 281.924 154.117C280.907 153.184 278.985 152.921 278.002 154.117C277.071 155.253 276.07 156.33 275.005 157.341C274.508 157.813 273.998 158.269 273.474 158.712C273.175 158.964 272.872 159.212 272.564 159.455C272.419 159.57 271.966 159.875 272.661 159.382C272.502 159.495 272.349 159.618 272.192 159.735C269.863 161.45 267.34 162.884 264.675 164.007L265.337 163.728C262.477 164.926 259.473 165.749 256.401 166.174L257.138 166.075C253.977 166.491 250.776 166.486 247.616 166.061L248.353 166.16C245.195 165.727 242.106 164.886 239.164 163.659L239.826 163.938C236.987 162.683 234.292 161.123 231.79 159.287C230.487 158.323 229.114 157.459 227.681 156.703C226.012 155.851 224.205 155.302 222.343 155.082C218.854 154.671 215.298 156.029 213.379 159.042C211.614 161.815 211.636 165.782 214.109 168.139C216.655 170.567 220.512 170.547 223.513 169.028C226.403 167.565 228.139 164.526 229.36 161.661C232.107 155.212 234.539 148.615 236.806 141.984C239.048 135.423 241.081 128.797 242.905 122.104C243.131 121.275 243.354 120.445 243.573 119.614C243.943 118.214 243.107 116.54 241.637 116.206C240.928 116.023 240.176 116.123 239.54 116.484C238.903 116.845 238.432 117.439 238.226 118.141L238.226 118.141Z" fill="#3F3D56"/>
<path d="M265.892 117.372L264.894 152.761L263.901 187.966L263.34 207.872C263.346 208.605 263.64 209.306 264.159 209.824C264.678 210.342 265.379 210.636 266.113 210.643C266.844 210.629 267.541 210.332 268.058 209.815C268.575 209.299 268.872 208.602 268.886 207.872L269.884 172.483L270.877 137.278L271.438 117.372C271.432 116.639 271.138 115.938 270.619 115.42C270.1 114.901 269.399 114.607 268.665 114.601C267.934 114.615 267.237 114.912 266.72 115.428C266.203 115.945 265.906 116.642 265.892 117.372V117.372Z" fill="#3F3D56"/>
<path opacity="0.2" d="M169.916 197.991H170.777V158.816H190.863V157.958H170.777V141.428H186.288C186.061 141.139 185.827 140.854 185.586 140.572H170.777V129.654C170.492 129.533 170.205 129.416 169.916 129.306V140.572H153.038V126.583C152.749 126.597 152.464 126.617 152.177 126.641V140.572H138.712V130.135C138.423 130.263 138.138 130.398 137.855 130.539V140.572H126.536V141.428H137.855V157.958H126.536V158.816H137.855V197.991H138.712V158.816C140.48 158.816 142.231 159.164 143.865 159.84C145.499 160.516 146.983 161.507 148.234 162.756C149.484 164.006 150.476 165.489 151.153 167.122C151.829 168.754 152.177 170.504 152.177 172.271V197.991H153.038V158.816H169.916V197.991ZM138.712 157.958V141.428H152.177V157.958H138.712ZM153.038 157.958V141.428H153.376C155.548 141.428 157.699 141.856 159.706 142.687C161.713 143.517 163.536 144.735 165.072 146.27C166.608 147.805 167.826 149.627 168.657 151.633C169.488 153.638 169.916 155.787 169.916 157.958H153.038Z" fill="black"/>
<path d="M164.658 186.245C163.574 191.077 160.977 195.438 157.245 198.695C156.971 198.931 156.698 199.16 156.413 199.386C155.722 199.449 155.035 199.513 154.354 199.578C153.788 199.63 153.23 199.685 152.675 199.737L152.576 199.748L152.505 199.142L152.224 196.689C151.134 194.911 150.459 192.91 150.248 190.836C150.036 188.761 150.295 186.666 151.004 184.705C151.98 182.074 153.748 179.75 155.485 177.445C157.885 174.261 160.217 171.113 160.303 167.23C161.483 168.74 162.465 170.395 163.223 172.155C162.508 172.492 161.865 172.965 161.33 173.548C161.179 173.714 161.027 173.947 161.131 174.146C161.219 174.316 161.441 174.357 161.634 174.379C162.096 174.427 162.561 174.475 163.024 174.523C163.393 174.564 163.763 174.601 164.133 174.641C164.58 176.108 164.883 177.615 165.039 179.141C165.288 181.514 165.159 183.912 164.658 186.245V186.245Z" fill="#3F3D56"/>
<path d="M176.932 176.562C174.751 178.147 173.475 180.427 172.484 182.939C171.469 183.263 170.555 183.847 169.834 184.631C169.682 184.797 169.531 185.03 169.634 185.229C169.723 185.399 169.945 185.44 170.137 185.462C170.599 185.51 171.065 185.558 171.527 185.606C170.536 188.576 169.627 191.65 167.874 194.158C166.709 195.815 165.19 197.191 163.427 198.189C162.946 198.463 162.45 198.708 161.94 198.924C160.062 199.068 158.22 199.222 156.413 199.386C155.722 199.449 155.035 199.513 154.354 199.578C153.788 199.63 153.23 199.685 152.675 199.737C152.672 199.534 152.672 199.33 152.675 199.127C152.792 193.715 154.785 188.51 158.313 184.402C158.48 184.21 158.65 184.021 158.824 183.833C160.611 181.925 162.713 180.338 165.039 179.141C168.702 177.238 172.808 176.347 176.932 176.562V176.562Z" fill="#664FA7"/>
<path d="M154.993 197.683L154.568 198.939L154.354 199.578C153.788 199.63 153.23 199.685 152.675 199.737L152.576 199.748C151.962 199.811 151.352 199.874 150.742 199.936C150.583 199.752 150.424 199.563 150.269 199.371C146.41 194.702 144.557 188.696 145.116 182.665C145.675 176.635 148.6 171.072 153.252 167.19C152.764 169.743 153.333 172.188 154.269 174.616C154.169 174.656 154.073 174.697 153.98 174.741C153.265 175.078 152.622 175.551 152.088 176.134C151.936 176.3 151.784 176.533 151.888 176.732C151.977 176.902 152.198 176.943 152.391 176.965C152.853 177.013 153.319 177.061 153.781 177.109C154.151 177.15 154.52 177.187 154.89 177.227C155.064 177.246 155.238 177.264 155.411 177.283C155.437 177.338 155.459 177.39 155.485 177.445C156.539 179.728 157.674 182.023 158.313 184.402C158.474 184.999 158.6 185.604 158.691 186.216C158.975 188.282 158.791 190.385 158.151 192.371C157.511 194.356 156.432 196.171 154.993 197.683V197.683Z" fill="#664FA7"/>
<path d="M192.208 144.101C189.025 137.897 184.094 132.677 178.295 128.842C172.477 125.011 165.801 122.679 158.862 122.052C157.952 121.969 157.04 121.921 156.126 121.907C155.046 121.89 138.8 126.573 133.357 130.397C127.917 134.174 123.443 139.176 120.294 144.999C117.151 150.855 115.605 157.433 115.811 164.074C116.08 170.756 117.944 177.276 121.247 183.091C124.504 188.888 129.13 193.802 134.721 197.405C140.391 201.021 146.087 210.607 152.783 210.945C159.528 211.286 167.221 202.243 173.374 199.498C179.526 196.729 184.845 192.398 188.8 186.935C192.644 181.582 195.13 175.377 196.046 168.852C196.998 162.172 196.554 155.282 194.271 148.897C193.685 147.256 192.996 145.654 192.208 144.101C191.55 142.806 189.621 142.329 188.414 143.107C187.792 143.489 187.342 144.097 187.156 144.803C186.971 145.509 187.065 146.259 187.419 146.897C187.806 147.658 188.165 148.431 188.497 149.217L188.218 148.555C189.475 151.575 190.329 154.747 190.76 157.989L190.661 157.253C191.119 160.771 191.111 164.333 190.636 167.849L190.736 167.112C190.256 170.628 189.317 174.065 187.943 177.336L188.222 176.674C187.515 178.343 186.691 179.96 185.756 181.513C185.282 182.298 184.779 183.064 184.247 183.812C184.013 184.14 183.773 184.462 183.53 184.784C183.213 185.203 183.961 184.236 183.634 184.647C183.579 184.717 183.523 184.788 183.467 184.858C183.299 185.067 183.129 185.275 182.956 185.481C181.804 186.855 180.546 188.138 179.194 189.317C178.857 189.611 178.515 189.898 178.167 190.178C177.994 190.318 177.823 190.464 177.642 190.594C177.649 190.589 178.226 190.151 177.884 190.405C177.777 190.485 177.67 190.566 177.563 190.646C176.845 191.177 176.109 191.681 175.354 192.157C173.615 193.252 171.791 194.205 169.899 195.007L170.561 194.728C167.297 196.101 163.867 197.039 160.358 197.517L161.095 197.418C157.588 197.892 154.034 197.898 150.526 197.437L151.263 197.536C148.074 197.108 144.955 196.266 141.985 195.03L142.647 195.309C140.927 194.583 139.268 193.719 137.687 192.726C136.905 192.234 136.143 191.711 135.401 191.157C135.295 191.078 135.19 190.998 135.085 190.919C134.746 190.663 135.328 191.107 135.333 191.11C135.136 190.969 134.946 190.818 134.765 190.658C134.407 190.366 134.054 190.068 133.707 189.763C132.319 188.541 131.022 187.219 129.828 185.807C129.529 185.453 129.236 185.095 128.95 184.731C128.826 184.574 128.6 184.255 129.099 184.927C129.034 184.838 128.966 184.751 128.899 184.664C128.74 184.452 128.583 184.24 128.428 184.025C127.885 183.275 127.369 182.505 126.879 181.718C125.774 179.935 124.809 178.069 123.994 176.136L124.273 176.798C122.939 173.626 122.026 170.293 121.559 166.884L121.658 167.62C121.237 164.478 121.231 161.294 121.64 158.15L121.541 158.886C121.961 155.842 122.781 152.865 123.979 150.035L123.7 150.697C124.454 148.925 125.343 147.213 126.36 145.578C126.869 144.759 127.409 143.961 127.979 143.182C128.108 143.005 128.239 142.829 128.371 142.655C128.491 142.497 128.821 142.103 128.258 142.798C128.314 142.73 128.367 142.66 128.421 142.591C128.734 142.195 129.054 141.806 129.382 141.422C130.623 139.97 131.968 138.609 133.406 137.351C133.769 137.032 134.138 136.721 134.513 136.416C134.683 136.278 134.855 136.141 135.027 136.005C135.096 135.951 135.166 135.898 135.235 135.843C134.496 136.43 135.03 136.003 135.197 135.877C135.97 135.299 136.763 134.75 137.576 134.229C139.385 133.073 141.288 132.071 143.265 131.234L142.603 131.513C145.472 130.309 158.182 127.468 160.494 127.778L159.757 127.679C163.155 128.153 166.476 129.07 169.636 130.407L168.973 130.127C170.575 130.807 172.131 131.588 173.632 132.466C174.382 132.905 175.117 133.368 175.838 133.856C176.179 134.086 176.517 134.322 176.85 134.563C177.017 134.684 177.183 134.805 177.348 134.928C177.44 134.997 177.531 135.066 177.622 135.135C178.006 135.422 177.093 134.718 177.496 135.036C178.844 136.094 180.124 137.236 181.329 138.454C181.921 139.057 182.492 139.678 183.043 140.318C183.326 140.647 183.603 140.98 183.874 141.319C184.008 141.487 184.467 142.095 183.905 141.35C184.042 141.532 184.181 141.713 184.317 141.896C185.485 143.476 186.523 145.149 187.419 146.897C188.082 148.19 190.002 148.671 191.213 147.892C191.835 147.509 192.286 146.901 192.471 146.195C192.657 145.489 192.562 144.739 192.208 144.101Z" fill="#3F3D56"/>
<path d="M159.899 189.317C159.613 189.33 159.329 189.255 159.087 189.102C158.845 188.949 158.656 188.725 158.545 188.461C158.435 188.197 158.408 187.905 158.469 187.625C158.53 187.346 158.676 187.091 158.886 186.897C158.921 186.757 158.947 186.657 158.982 186.517C158.969 186.486 158.957 186.456 158.944 186.425C157.657 183.36 149.448 191.905 149.093 194.786C148.936 196.06 149.002 197.351 149.288 198.601C146.628 192.805 145.248 186.505 145.239 180.129C145.238 178.529 145.327 176.93 145.505 175.34C145.652 174.036 145.857 172.742 146.118 171.457C147.543 164.484 150.603 157.949 155.047 152.388C157.588 152.53 159.815 152.143 160.03 147.222C160.069 146.346 160.719 145.588 160.862 144.726C160.619 144.757 160.372 144.777 160.13 144.793C160.054 144.797 159.975 144.801 159.899 144.805L159.871 144.806C159.604 144.818 159.34 144.753 159.109 144.618C158.879 144.484 158.692 144.285 158.572 144.047C158.452 143.809 158.403 143.541 158.432 143.276C158.461 143.011 158.565 142.76 158.734 142.552C158.838 142.424 158.943 142.295 159.048 142.166C159.207 141.967 159.37 141.773 159.529 141.574C159.548 141.555 159.565 141.535 159.581 141.514C159.764 141.288 159.947 141.065 160.13 140.839C159.796 140.321 159.347 139.887 158.817 139.571C156.984 138.498 154.454 139.241 153.13 140.898C151.801 142.556 151.551 144.881 152.012 146.951C152.466 148.713 153.216 150.385 154.232 151.895C154.132 152.022 154.029 152.146 153.929 152.273C152.112 154.608 150.527 157.116 149.199 159.761C149.575 156.828 144.98 146.236 143.203 143.993C141.069 141.298 136.692 142.474 136.316 145.89C136.313 145.923 136.309 145.956 136.306 145.989C136.57 146.138 136.828 146.296 137.081 146.463C137.398 146.675 137.644 146.978 137.787 147.332C137.929 147.686 137.961 148.075 137.878 148.448C137.796 148.82 137.602 149.159 137.324 149.42C137.045 149.681 136.694 149.852 136.317 149.91L136.278 149.916C132.745 154.956 144.07 168.075 146.905 165.13C145.571 168.908 144.734 172.844 144.415 176.838C144.235 179.195 144.246 181.562 144.447 183.916L144.435 183.833C143.805 178.704 133 171.079 129.844 171.714C128.026 172.08 126.236 171.997 126.512 173.829C126.516 173.859 126.521 173.888 126.525 173.917C127.015 174.116 127.492 174.346 127.953 174.605C128.217 174.753 128.476 174.911 128.728 175.078C129.046 175.29 129.292 175.593 129.434 175.947C129.577 176.301 129.609 176.69 129.526 177.063C129.443 177.436 129.25 177.774 128.971 178.035C128.693 178.296 128.342 178.467 127.964 178.525L127.925 178.531C127.898 178.535 127.874 178.539 127.846 178.543C126.238 184.072 138.164 192.995 145.414 190.156H145.418C146.136 193.276 147.177 196.313 148.524 199.217H159.621C159.661 199.094 159.696 198.967 159.732 198.844C158.705 198.908 157.674 198.847 156.662 198.661C157.485 197.652 158.308 196.634 159.132 195.625C159.15 195.606 159.167 195.586 159.183 195.565C159.601 195.048 160.022 194.536 160.44 194.019L160.44 194.018C160.463 192.435 160.281 190.855 159.899 189.317L159.899 189.317ZM147.192 164.339L147.197 164.331L147.192 164.347V164.339ZM144.734 186.48L144.638 186.265C144.642 186.11 144.642 185.955 144.638 185.796C144.638 185.752 144.63 185.709 144.63 185.665C144.666 185.939 144.698 186.214 144.738 186.488L144.734 186.48Z" fill="#3F3D56"/>
<path d="M35.2145 166.244C37.4606 166.244 39.2813 164.425 39.2813 162.18C39.2813 159.936 37.4606 158.117 35.2145 158.117C32.9685 158.117 31.1477 159.936 31.1477 162.18C31.1477 164.425 32.9685 166.244 35.2145 166.244Z" fill="#3F3D56"/>
<path d="M84.0164 210.576C86.2624 210.576 88.0832 208.756 88.0832 206.512C88.0832 204.268 86.2624 202.448 84.0164 202.448C81.7703 202.448 79.9496 204.268 79.9496 206.512C79.9496 208.756 81.7703 210.576 84.0164 210.576Z" fill="#3F3D56"/>
<path d="M269.242 210.576C271.488 210.576 273.308 208.756 273.308 206.512C273.308 204.268 271.488 202.448 269.242 202.448C266.996 202.448 265.175 204.268 265.175 206.512C265.175 208.756 266.996 210.576 269.242 210.576Z" fill="#3F3D56"/>
<path d="M279.224 158.856C281.47 158.856 283.291 157.036 283.291 154.792C283.291 152.547 281.47 150.728 279.224 150.728C276.978 150.728 275.157 152.547 275.157 154.792C275.157 157.036 276.978 158.856 279.224 158.856Z" fill="#3F3D56"/>
<path d="M267.393 121.173C269.639 121.173 271.46 119.354 271.46 117.11C271.46 114.865 269.639 113.046 267.393 113.046C265.147 113.046 263.326 114.865 263.326 117.11C263.326 119.354 265.147 121.173 267.393 121.173Z" fill="#3F3D56"/>
<path d="M97.6957 154.792C97.6932 155.83 97.2915 156.827 96.5736 157.577C95.8558 158.328 94.8767 158.774 93.839 158.823C92.8014 158.872 91.7846 158.52 90.999 157.841C90.2134 157.162 89.7193 156.207 89.6187 155.174C89.5182 154.14 89.819 153.108 90.459 152.291C91.0989 151.473 92.0289 150.932 93.0566 150.781C94.0843 150.629 95.131 150.878 95.98 151.476C96.8291 152.074 97.4155 152.976 97.618 153.994C97.6702 154.257 97.6962 154.524 97.6957 154.792V154.792Z" fill="#3F3D56"/>
<path d="M179.032 132.995C181.278 132.995 183.099 131.176 183.099 128.932C183.099 126.687 181.278 124.868 179.032 124.868C176.786 124.868 174.965 126.687 174.965 128.932C174.965 131.176 176.786 132.995 179.032 132.995Z" fill="#3F3D56"/>
<path d="M138.734 128.932C138.731 129.97 138.329 130.967 137.612 131.717C136.894 132.467 135.915 132.913 134.877 132.962C133.839 133.011 132.822 132.66 132.037 131.981C131.251 131.302 130.757 130.347 130.657 129.313C130.556 128.28 130.857 127.248 131.497 126.43C132.137 125.613 133.067 125.072 134.095 124.92C135.122 124.769 136.169 125.018 137.018 125.616C137.867 126.214 138.453 127.115 138.656 128.134C138.708 128.396 138.734 128.664 138.734 128.932V128.932Z" fill="#3F3D56"/>
<path d="M86.2346 117.11C86.2322 118.148 85.8305 119.145 85.1126 119.895C84.3947 120.646 83.4157 121.092 82.378 121.141C81.3404 121.19 80.3235 120.838 79.538 120.159C78.7524 119.48 78.2582 118.525 78.1577 117.492C78.0572 116.458 78.358 115.426 78.9979 114.609C79.6379 113.791 80.5679 113.25 81.5956 113.099C82.6232 112.947 83.6699 113.196 84.519 113.794C85.368 114.392 85.9545 115.294 86.157 116.312C86.2092 116.575 86.2352 116.842 86.2346 117.11V117.11Z" fill="#3F3D56"/>
<path d="M221.549 167.722C223.795 167.722 225.616 165.902 225.616 163.658C225.616 161.414 223.795 159.594 221.549 159.594C219.303 159.594 217.482 161.414 217.482 163.658C217.482 165.902 219.303 167.722 221.549 167.722Z" fill="#3F3D56"/>
<path d="M157.589 130.779C160.856 130.779 163.504 128.132 163.504 124.868C163.504 121.603 160.856 118.957 157.589 118.957C154.322 118.957 151.673 121.603 151.673 124.868C151.673 128.132 154.322 130.779 157.589 130.779Z" fill="#3F3D56"/>
<path d="M317.56 210.886L0.440205 211C0.382396 211 0.325152 210.989 0.271743 210.967C0.218335 210.944 0.16981 210.912 0.128933 210.871C0.0880558 210.83 0.0556264 210.782 0.0335039 210.728C0.0113814 210.675 0 210.618 0 210.56C0 210.502 0.0113814 210.445 0.0335039 210.392C0.0556264 210.338 0.0880558 210.29 0.128933 210.249C0.16981 210.208 0.218335 210.176 0.271743 210.154C0.325152 210.132 0.382396 210.12 0.440205 210.12L317.56 210.007C317.676 210.007 317.788 210.054 317.87 210.136C317.953 210.218 317.999 210.33 317.999 210.447C317.999 210.563 317.953 210.675 317.87 210.757C317.788 210.84 317.676 210.886 317.56 210.886V210.886Z" fill="#CACACA"/>
</svg>
