<svg width="358" height="239" viewBox="0 0 358 239" fill="none" xmlns="http://www.w3.org/2000/svg">
<g clip-path="url(#clip0_76_749)">
<path d="M61.2854 227.605L66.6788 229.063L74.8809 208.983L66.92 206.829L61.2854 227.605Z" fill="#FFB6B6"/>
<path d="M59.5711 233.172L76.1578 237.658L76.2147 237.449C76.6784 235.739 76.443 233.915 75.5602 232.379C74.6775 230.842 73.2197 229.719 71.5076 229.256L71.5072 229.256L69.1001 226.141L62.8244 226.907L61.3765 226.516L59.5711 233.172Z" fill="#2F2E41"/>
<path d="M98.5277 232.278L104.116 232.278L106.774 210.754L98.5265 210.755L98.5277 232.278Z" fill="#FFB6B6"/>
<path d="M98.3307 238.099L115.515 238.098V237.881C115.515 236.11 114.81 234.411 113.556 233.159C112.302 231.906 110.6 231.203 108.826 231.203H108.826L105.687 228.825L99.8305 231.203L98.3304 231.203L98.3307 238.099Z" fill="#2F2E41"/>
<path d="M100.914 108.167L108.413 214.232L96.336 215.3L79.4876 136.694L81.3546 182.175L74.6676 217.947L64.4454 213.011L64.6152 175.764L51.1944 115.573L54.7665 108.167H100.914Z" fill="#2F2E41"/>
<path d="M52.907 121.364L52.8321 121.259C48.8297 115.664 54.8493 102.218 55.7572 100.269C54.6791 99.9198 53.7556 99.2081 53.144 98.2552C52.5324 97.3023 52.2705 96.1672 52.4029 95.0431L52.7943 91.721L53.2022 88.4625L50.2796 85.5441L50.2714 85.4713L48.5895 70.7757L46.144 61.015C45.2226 57.3251 45.3011 53.4568 46.3715 49.8073C47.442 46.1577 49.4657 42.8583 52.235 40.2478L57.8877 39.3515L64.7574 32.7419H75.8357L79.6342 36.3659C86.7252 37.6077 87.9433 37.2022 94.0343 44.5009L91.2666 67.1926L90.5762 70.3143L90.5782 74.5483L92.3336 76.4963C92.9659 77.198 93.4253 78.0374 93.6754 78.9478C93.9254 79.8581 93.959 80.8142 93.7736 81.7398L93.5428 82.8922C95.3531 83.667 97.0806 97.435 97.4934 99.3581L98.1099 102.231C98.6373 102.926 102.119 107.561 102.119 108.828C102.119 109.019 101.978 109.203 101.676 109.407C99.3038 111.011 89.8446 122.391 84.0406 120.072C77.8583 117.604 53.2823 121.307 53.0347 121.344L52.907 121.364Z" fill="#3F3D56"/>
<path d="M51.4186 94.9773C51.4186 94.9773 54.2635 78.9225 51.3975 72.8845L40.0276 73.6955L41.7579 96.5997L51.6973 122.03C51.5456 122.814 51.6042 123.624 51.8672 124.377C52.1301 125.131 52.5881 125.801 53.1945 126.321C53.801 126.841 54.5344 127.191 55.3202 127.336C56.1061 127.481 56.9164 127.416 57.6689 127.148C58.4215 126.879 59.0894 126.416 59.605 125.807C60.1205 125.197 60.4654 124.462 60.6044 123.676C60.7435 122.89 60.6718 122.081 60.3968 121.332C60.1217 120.583 59.653 119.92 59.0382 119.41L51.4186 94.9773Z" fill="#FFB6B6"/>
<path d="M40.0276 64.3695L40.7313 56.7176C40.9961 53.8377 41.8286 51.0385 43.1807 48.481C44.5329 45.9235 46.378 43.6582 48.6101 41.8154C49.9969 40.6789 51.6745 39.9523 53.4532 39.7179C55.2318 39.4834 57.0407 39.7504 58.6754 40.4886V40.4886C60.8846 41.5043 62.6252 43.3196 63.5452 45.5678C64.4652 47.8159 64.496 50.3289 63.6313 52.5989C61.0035 59.4809 61.9524 66.7588 56.8283 67.646L57.385 70.2908L52.3468 86.7088L37.9973 85.049L40.0276 64.3695Z" fill="#3F3D56"/>
<path d="M96.3812 116.752C95.8784 117.372 95.549 118.114 95.4262 118.903C95.3035 119.691 95.3919 120.498 95.6825 121.241C95.9731 121.985 96.4555 122.638 97.0807 123.135C97.7059 123.632 98.4517 123.955 99.2424 124.072C100.033 124.188 100.84 124.093 101.583 123.797C102.325 123.501 102.975 123.014 103.468 122.386C103.961 121.757 104.278 121.01 104.388 120.22C104.498 119.429 104.397 118.624 104.094 117.885L108.85 91.0025L106.053 68.2037L94.744 69.6332C93.1184 76.1149 99.0586 91.3018 99.0586 91.3018L96.3812 116.752Z" fill="#FFB6B6"/>
<path d="M110.271 78.9399L96.5258 83.3753L91.2336 75.1312L91.2605 72.4288C86.0617 72.5614 82.694 58.3691 78.7666 52.1347C77.4732 50.078 77.0103 47.6076 77.4713 45.223C77.9323 42.8385 79.2829 40.7177 81.2499 39.2895V39.2895C82.7081 38.2457 84.4295 37.63 86.2197 37.5119C88.0099 37.3937 89.7975 37.778 91.3805 38.6211V38.6211C93.9309 39.9914 96.1848 41.8518 98.0126 44.0951C99.8404 46.3384 101.206 48.9205 102.031 51.6927L104.222 59.0586L110.271 78.9399Z" fill="#3F3D56"/>
<path d="M69.5491 29.5489C76.344 29.5489 81.8524 24.0485 81.8524 17.2634C81.8524 10.4783 76.344 4.97791 69.5491 4.97791C62.7542 4.97791 57.2459 10.4783 57.2459 17.2634C57.2459 24.0485 62.7542 29.5489 69.5491 29.5489Z" fill="#FFB6B6"/>
<path d="M60.6204 25.9229C60.513 25.8288 60.4116 25.7284 60.3066 25.6317C60.3029 25.6416 60.3023 25.6518 60.2983 25.6617L60.6204 25.9229Z" fill="#2F2E41"/>
<path d="M79.6316 4.2899C79.0203 3.30727 78.1736 2.4921 77.1679 1.91794C76.4805 1.58503 75.7582 1.32947 75.0142 1.15597L73.0671 0.625489C72.0695 0.317232 71.0431 0.110868 70.0038 0.00956506C68.5604 -0.0615328 67.1253 0.264793 65.8551 0.952893C64.5849 1.64099 63.5285 2.66441 62.8013 3.91135C62.2131 4.95326 61.7412 6.2516 60.6058 6.63279C59.6904 6.94017 58.6915 6.5066 57.7294 6.59071C57.1656 6.6723 56.6307 6.89148 56.172 7.22886C55.7133 7.56624 55.345 8.01139 55.0998 8.52486C54.6203 9.55814 54.3843 10.6874 54.41 11.826C54.3722 14.4109 54.8774 16.975 55.893 19.3529C56.9087 21.7308 58.4122 23.8698 60.3067 25.6318C60.6242 24.796 60.1012 23.8936 59.6878 23.094C59.2694 22.285 59.0109 21.1571 59.7115 20.5744C60.4912 19.9261 61.7403 20.5548 62.6623 20.132C62.9573 19.9628 63.2058 19.7233 63.3855 19.4348C63.5652 19.1464 63.6705 18.818 63.6922 18.479C63.7814 17.8072 63.6882 17.1244 63.7305 16.4481C63.7721 15.7815 63.9447 15.1296 64.2386 14.5297C64.5325 13.9298 64.9419 13.3936 65.4433 12.9516C65.9447 12.5096 66.5284 12.1706 67.1611 11.9539C67.7937 11.7373 68.4629 11.6471 69.1304 11.6887C69.1458 11.6896 69.1611 11.6906 69.1765 11.6917C71.2752 11.8414 73.312 13.2735 75.3317 12.6843C76.2797 12.4078 77.0883 11.7037 78.0688 11.5853C79.1547 11.4541 80.1762 12.066 81.0983 12.6536C81.4333 11.233 81.4761 9.7592 81.224 8.32156C80.9719 6.88392 80.4301 5.51234 79.6316 4.2899V4.2899Z" fill="#2F2E41"/>
<path d="M143.923 231.197L140.792 226.173L140.167 229.044C140.057 229.547 139.947 230.057 139.846 230.564C138.956 229.806 138.01 229.105 137.085 228.432C134.242 226.372 131.401 224.309 128.561 222.244L129.45 227.393C129.999 230.564 130.571 233.8 131.928 236.699C132.078 237.028 132.24 237.352 132.415 237.668H145.628C145.735 237.375 145.808 237.07 145.847 236.76C145.851 236.74 145.852 236.72 145.851 236.699C146.059 234.733 144.97 232.88 143.923 231.197Z" fill="#F0F0F0"/>
<path d="M159.297 238.162L31.2408 238.287C31.113 238.286 30.9907 238.235 30.9005 238.144C30.8104 238.054 30.7598 237.931 30.7598 237.804C30.7598 237.676 30.8104 237.554 30.9005 237.463C30.9907 237.373 31.113 237.322 31.2408 237.321L159.297 237.196C159.424 237.197 159.547 237.248 159.637 237.339C159.727 237.429 159.778 237.552 159.778 237.679C159.778 237.807 159.727 237.929 159.637 238.02C159.547 238.11 159.424 238.161 159.297 238.162V238.162Z" fill="#CACACA"/>
<path d="M291.662 78.4182C291.634 92.6123 286.29 106.282 276.68 116.741C267.07 127.2 253.89 133.691 239.73 134.938C225.571 136.185 211.456 132.098 200.161 123.48C188.867 114.862 181.209 102.337 178.693 88.3668C176.178 74.3967 178.987 59.9924 186.568 47.9855C194.149 35.9787 205.954 27.238 219.662 23.4817C233.37 19.7255 247.989 21.2255 260.645 27.6868C273.302 34.1481 283.08 45.1033 288.057 58.3987C288.182 58.7326 288.303 59.0664 288.42 59.4035V59.4067C288.946 60.8884 289.409 62.3977 289.809 63.9346C291.043 68.6637 291.666 73.5311 291.662 78.4182V78.4182Z" fill="#3F3D56"/>
<path d="M228.074 39.8025C225.498 38.4116 222.638 37.6264 219.712 37.5069C216.786 37.3874 213.872 37.9366 211.191 39.1128C208.83 40.1386 206.345 41.9789 205.557 45.302C208.742 43.4251 212.865 46.3906 213.684 51.1478L213.493 51.2005C213.06 54.4955 214.026 58.083 215.897 60.1261C216.036 59.2042 216.379 58.3248 216.901 57.5518C217.423 56.7788 218.111 56.1316 218.915 55.6572C220.289 54.7549 221.81 54.0995 222.859 52.5486C224.103 50.71 224.419 48.0229 224.913 45.5716C225.407 43.1203 226.344 40.4856 228.074 39.8025Z" fill="#DE9F4C"/>
<path d="M210.246 67.8425C209.364 69.1652 208.186 69.9952 207.129 71.0285C205.908 72.1371 205.107 73.6317 204.861 75.2607C204.728 76.4118 204.935 77.5819 204.906 78.7457C204.877 79.9094 204.489 81.2195 203.696 81.5088C202.444 81.9603 201.489 79.6391 200.203 79.477C199.181 79.3498 198.26 80.9556 198.556 82.3483C198.853 83.741 200.244 84.3578 201.043 83.4484C201.766 84.6599 201.257 86.8571 200.171 87.2291C200.056 87.9922 199.942 88.7522 199.83 89.5153C197.085 87.598 194.312 85.6488 191.978 82.8411C189.382 79.745 187.772 75.9448 187.354 71.9284C187.052 68.701 187.501 65.0093 186.017 62.526C184.829 60.5387 182.791 60.0999 180.957 60.2239C180.622 60.2461 180.285 60.2843 179.951 60.3256C181.032 57.0816 182.406 53.942 184.055 50.9455C184.428 50.7855 184.775 50.57 185.084 50.3063C186.79 48.8596 187.548 45.9311 188.933 43.9056C189.023 43.7752 189.115 43.648 189.21 43.524C190.628 41.6766 192.525 40.7259 194.359 39.8419C198.419 37.8737 202.597 35.88 206.883 36.1534L205.664 36.2711C204.24 40.2521 202.816 44.2331 201.39 48.2141C201.174 48.8246 200.955 49.4361 200.734 50.0488C199.926 52.3127 199.091 54.723 199.216 57.2572C199.289 58.758 199.811 60.3606 200.804 60.8757C201.731 61.3527 202.744 60.7676 203.638 60.1889C204.017 59.9472 204.393 59.7055 204.772 59.4607C206.132 58.5863 207.638 57.6896 209.074 58.2747C210.389 58.8089 211.36 60.5927 211.545 62.5164C211.714 64.3864 211.258 66.2597 210.246 67.8425Z" fill="#DE9F4C"/>
<path d="M218.333 95.0217C214.362 92.5801 210.39 90.1386 206.419 87.6971L206.487 87.5237C204.018 88.4628 202.993 92.8453 203.401 96.4293C203.809 100.013 205.192 103.217 205.891 106.709C206.834 111.488 206.478 116.432 204.861 121.027C210.083 115.177 214.704 108.818 218.655 102.047C219.207 101.193 219.628 100.262 219.903 99.2837C220.195 98.2414 220.091 97.1283 219.611 96.1577C219.286 95.6788 218.847 95.2883 218.333 95.0217Z" fill="#DE9F4C"/>
<path d="M202.66 50.6027C202.194 51.6025 202.122 52.7411 202.459 53.7914C202.851 54.6377 203.561 55.2951 204.436 55.6204L206.631 56.7065C207.361 57.0678 208.147 57.4327 208.892 57.1354C209.789 56.7769 210.411 55.3718 210.25 54.0674C210.079 52.6793 209.203 51.7245 208.392 50.9114C207.258 49.7735 206.124 48.6357 204.99 47.4978L204.351 48.2795C203.66 48.9528 203.088 49.7384 202.66 50.6027V50.6027Z" fill="#DE9F4C"/>
<path d="M279.899 65.4417C280.886 65.6738 281.874 65.906 282.861 66.1381C282.689 69.4672 281.036 72.5484 278.82 73.6644C277.896 74.1287 276.868 74.3004 276.104 75.1685C275.413 75.957 275.062 77.1843 274.741 78.3577C274.177 80.4054 273.613 82.4531 273.05 84.5008C272.445 86.7076 271.668 89.1592 270.095 89.9541C268.745 90.6377 267.2 89.8014 266.162 88.3991C265.124 86.9969 264.49 85.1114 263.876 83.2735C263.914 85.2767 262.981 87.2418 261.66 87.9381C260.335 88.6344 258.724 88.0049 257.838 86.45C257.202 85.3339 256.937 83.8617 256.313 82.7297C255.689 81.5978 254.38 80.9491 253.699 82.0111C253.25 82.7171 253.307 83.7981 253.084 84.6948C252.972 85.2901 252.677 85.8357 252.24 86.2557C251.803 86.6757 251.245 86.9492 250.645 87.0383C250.093 87.0256 249.55 86.901 249.048 86.6719C248.546 86.4429 248.096 86.1142 247.725 85.7059C245.775 83.7141 244.506 81.1577 244.098 78.4022C243.822 77.081 243.857 75.7138 244.2 74.4084C244.592 73.1716 245.538 72.2177 246.477 72.4529C247.095 71.1492 245.875 69.4195 244.776 69.5721C243.675 69.7248 242.812 70.9044 241.907 71.8106C241.006 72.7169 239.745 73.375 238.838 72.4752C238.858 72.8043 238.747 73.128 238.528 73.3751C238.309 73.6222 238.001 73.7723 237.671 73.7926C237.639 73.7946 237.606 73.7953 237.574 73.7948C236.97 73.6218 236.409 73.3251 235.927 72.9235C233.848 71.6294 231.208 72.4879 229.731 74.9363C230.654 71.0125 232.007 66.51 234.845 65.5879C236.004 65.2095 237.268 65.5211 238.363 64.8661C240.303 63.7056 240.694 59.3207 239.019 57.5115C239.233 59.2222 239.191 61.219 238.287 62.3892C237.383 63.5594 235.485 62.7962 235.599 61.0664C235.574 61.3097 235.471 61.5386 235.307 61.7204C235.143 61.9021 234.926 62.0274 234.686 62.0782C234.447 62.129 234.197 62.1028 233.973 62.0033C233.75 61.9038 233.563 61.7361 233.44 61.5243C232.839 60.6086 232.89 59.1109 233.316 58.0171C233.756 57.0264 234.387 56.1318 235.173 55.3843C236.685 53.7659 238.22 52.1283 239.971 51.1108C241.726 50.0933 243.751 49.7499 245.509 50.761C246.436 51.2952 247.251 52.1855 248.196 52.6561C248.419 52.7938 248.666 52.8865 248.924 52.9288C249.182 52.9711 249.446 52.9622 249.701 52.9026C249.955 52.8431 250.196 52.734 250.408 52.5817C250.621 52.4293 250.801 52.2367 250.939 52.0148C250.95 51.9977 250.96 51.9804 250.97 51.9629C251.674 50.7292 251.343 48.8977 251.604 47.3555C252.072 44.6306 254.801 43.3555 256.313 45.1552C255.183 44.8659 254.014 46.2013 253.874 47.8198C253.731 49.4383 254.549 51.0726 255.645 51.5623C257.485 52.3763 259.287 50.3286 260.679 48.4335C262.131 46.4493 263.585 44.4663 265.041 42.4843C265.274 42.1468 265.535 41.8298 265.822 41.5367C266.278 41.0928 266.886 40.8386 267.522 40.8256C268.159 40.8126 268.777 41.0418 269.251 41.4668C270.722 42.6655 271.413 45.1234 272.62 46.815C274.371 49.2729 276.992 49.8707 279.431 50.3477C281.249 50.7006 283.069 51.0557 284.889 51.4129C286.103 53.6671 287.161 56.0011 288.057 58.3987C284.719 59.9187 281.888 62.363 279.899 65.4417Z" fill="#DE9F4C"/>
<path d="M289.809 63.9345C289.436 65.0326 289.232 66.1808 289.204 67.34C287.643 65.4385 287.395 61.8741 288.42 59.4066C288.946 60.8883 289.409 62.3977 289.809 63.9345Z" fill="#6C63FF"/>
<path d="M285.777 103.7C284.413 106.466 282.826 109.117 281.033 111.627C279.887 111.137 278.654 112.012 277.581 112.832C276.46 113.691 275.113 114.527 273.964 113.745C272.789 112.943 272.41 110.702 272.782 108.924C273.211 107.285 273.959 105.746 274.986 104.396C275.941 102.972 276.963 101.493 278.291 100.94C279.622 100.387 281.332 101.169 281.721 103.058L282.663 103.026C282.135 102.301 282.412 100.8 283.122 100.536C283.94 100.228 284.65 101.35 285.134 102.342C285.351 102.791 285.57 103.242 285.777 103.7Z" fill="#DE9F4C"/>
<path d="M249.678 90.2692C247.653 90.3964 246.048 87.9059 244.981 85.4559C243.915 83.0058 242.942 80.204 241.114 78.9569C240.069 78.2443 238.879 78.1466 237.746 77.8012C237.103 77.6392 236.508 77.3265 236.011 76.8892C235.514 76.4519 235.128 75.9024 234.885 75.2865L233.6 74.7681C231.802 75.6654 230.156 76.8375 228.721 78.2422C227.08 79.982 226.059 82.2124 225.813 84.5893C225.568 87.1579 226.474 90.0222 228.168 90.9871C229.507 91.7495 231.065 91.2689 232.421 91.967C234.115 92.839 235.12 95.3723 235.501 97.8736C235.882 100.375 235.785 102.974 236.057 105.504C236.33 108.034 237.08 110.666 238.634 111.962C240.578 113.585 243.43 112.237 244.302 109.284C244.73 107.835 244.715 106.201 245.035 104.697C245.599 102.049 247.119 100.084 248.325 97.9122C249.531 95.7401 250.481 92.79 249.678 90.2692Z" fill="#DE9F4C"/>
<path d="M229.659 64.2491C229.848 64.4228 230.024 64.6097 230.187 64.8084C230.355 65.0977 230.44 65.4272 230.435 65.7616C230.429 66.0959 230.332 66.4224 230.154 66.7058C230.398 66.6919 230.637 66.6276 230.855 66.5171C231.073 66.4065 231.265 66.252 231.42 66.0633C231.79 65.6428 232.115 65.1852 232.391 64.698C232.52 64.5311 232.613 64.3386 232.662 64.1332C232.712 63.9279 232.717 63.7144 232.677 63.507C232.581 63.2342 232.355 63.1179 232.196 62.9128C231.976 62.5117 231.826 62.0763 231.752 61.625C231.664 61.2021 231.46 60.812 231.162 60.4987C230.865 60.1853 230.485 59.9611 230.067 59.8512L230.168 59.8706C229.995 59.973 229.859 60.1268 229.778 60.3105C229.697 60.4942 229.676 60.6986 229.717 60.895C229.779 61.2917 230.034 61.6212 230.009 62.0259C229.972 62.6078 229.39 62.8809 229.354 63.4629C229.348 63.7548 229.458 64.0373 229.659 64.2491V64.2491Z" fill="#DE9F4C"/>
<path d="M226.188 54.3602L226.197 54.3584C226.259 54.3017 226.317 54.2402 226.37 54.1746L226.188 54.3602Z" fill="#6C63FF"/>
<path d="M226.796 57.0917C227.039 56.8785 227.219 56.6026 227.316 56.2942C227.413 55.9858 227.423 55.6567 227.346 55.3428C227.198 54.6811 226.677 54.2363 226.197 54.3585C226.058 54.4996 225.885 54.603 225.694 54.659C225.504 54.7149 225.302 54.7216 225.108 54.6785C224.811 54.6021 224.485 54.4054 224.228 54.6289C224.08 54.7958 223.977 54.9969 223.928 55.2139C223.832 55.5062 223.737 55.7985 223.642 56.0908C223.596 56.1954 223.584 56.3114 223.608 56.423C223.626 56.4678 223.655 56.507 223.693 56.5371C223.731 56.5672 223.776 56.587 223.824 56.5947C224.396 56.7631 224.968 56.9315 225.54 57.0999C225.737 57.1906 225.952 57.2368 226.169 57.2354C226.386 57.234 226.6 57.1849 226.796 57.0917V57.0917Z" fill="#DE9F4C"/>
<path d="M269.988 94.8027C269.723 94.3703 269.459 93.938 269.194 93.5056C268.935 93.0049 268.579 92.5596 268.149 92.1947C268.056 92.1167 267.948 92.0578 267.832 92.0213C267.716 91.9849 267.594 91.9717 267.472 91.9823C267.351 91.993 267.233 92.0274 267.126 92.0836C267.018 92.1398 266.922 92.2167 266.844 92.3098L266.83 92.3266L266.862 92.5736C267.57 93.3317 268.053 94.2719 268.256 95.2887C268.316 95.7305 268.295 96.1878 268.348 96.6316C268.354 96.8374 268.4 97.0401 268.484 97.228C268.568 97.416 268.688 97.5855 268.838 97.727C269.254 98.0048 269.743 97.5952 270.04 97.0954C270.305 96.6849 270.424 96.1973 270.377 95.7111C270.311 95.3848 270.179 95.0756 269.988 94.8027V94.8027Z" fill="#DE9F4C"/>
<path d="M274.137 95.3653C274.187 94.9606 274.154 94.5498 274.04 94.1582C274.021 93.6283 274.162 93.105 274.444 92.6558C274.724 92.2321 274.936 91.7673 275.073 91.2782C275.131 91.0554 275.12 90.8204 275.043 90.6036C274.955 90.4073 274.743 90.3177 274.621 90.4732L274.882 90.6406C274.53 90.578 274.169 90.5954 273.826 90.6917C273.629 90.7666 273.454 90.8877 273.315 91.0445C273.176 91.2014 273.076 91.3894 273.025 91.5928C272.982 91.9099 272.912 92.2227 272.815 92.5278C272.66 92.8465 272.359 92.9524 272.17 93.2321C272.042 93.4801 271.977 93.7562 271.981 94.0354C271.986 94.3147 272.06 94.5885 272.197 94.832C272.434 95.2304 272.811 95.5265 273.255 95.6627C273.573 95.7766 273.991 95.7826 274.137 95.3653Z" fill="#DE9F4C"/>
<path d="M281.525 97.5913C281.64 97.8899 281.794 98.172 281.983 98.4303C282.336 98.7861 282.817 98.5675 283.246 98.481C283.636 98.4196 284.034 98.4646 284.4 98.6111C284.766 98.7576 285.086 99.0003 285.324 99.3134C285.158 98.4846 284.795 97.7079 284.265 97.0483C283.736 96.3888 283.056 95.8658 282.282 95.5232C281.277 95.1756 280.217 95.0102 279.153 95.0346L278.971 95.0811C279.435 96.4269 280.889 96.3968 281.525 97.5913Z" fill="#DE9F4C"/>
<path d="M250.233 100.343L250.235 100.349L250.288 100.248L250.233 100.343Z" fill="#6C63FF"/>
<path d="M249.112 102.51C248.867 102.954 248.657 103.415 248.483 103.89C248.252 104.659 248.1 105.45 248.027 106.25C247.97 106.705 247.953 107.286 248.238 107.507C248.32 107.562 248.419 107.584 248.517 107.571C248.614 107.558 248.703 107.51 248.768 107.436C248.926 107.268 249.056 107.076 249.152 106.866C249.713 105.901 250.148 104.869 250.448 103.794C250.76 102.654 250.686 101.443 250.235 100.35C249.861 101.07 249.486 101.79 249.112 102.51Z" fill="#DE9F4C"/>
<path d="M238.299 44.7937C238.477 44.9675 238.702 45.0854 238.947 45.1331C239.191 45.1807 239.444 45.1559 239.674 45.0617C240.151 44.8534 240.589 44.5647 240.968 44.2082C241.282 43.9763 241.549 43.6862 241.753 43.3538C241.865 43.1551 241.937 42.9362 241.965 42.7097C241.992 42.4832 241.975 42.2534 241.913 42.0337C241.825 41.8231 241.685 41.6384 241.506 41.4969C241.327 41.3554 241.115 41.2619 240.89 41.2252C240.255 41.0371 239.62 40.8491 238.984 40.661L239.444 40.2476C238.971 39.9943 238.448 40.4644 238.153 41.0464C237.963 41.4264 237.831 41.8324 237.761 42.251C237.661 42.6884 237.657 43.1425 237.75 43.5815C237.842 44.0206 238.03 44.4343 238.299 44.7937V44.7937Z" fill="#DE9F4C"/>
<path d="M249.511 41.0353C249.69 41.2323 249.937 41.3539 250.203 41.3755C250.468 41.3971 250.732 41.317 250.941 41.1514C251.12 41.0168 251.269 40.846 251.378 40.65C251.487 40.454 251.554 40.2373 251.573 40.014C251.618 39.5152 251.371 38.9608 251.018 38.9177L251.099 38.4507C250.419 38.3281 249.583 38.3036 249.219 39.1276C249.096 39.4433 249.059 39.7856 249.11 40.1204C249.161 40.4551 249.299 40.7706 249.511 41.0353V41.0353Z" fill="#DE9F4C"/>
<g opacity="0.35">
<path opacity="0.35" d="M357.018 81.2379C360.769 79.6051 353.163 78.6546 344.535 78.3421C335.906 78.0296 325.468 78.0469 319.954 77.158C314.621 76.2983 315.014 74.7698 314.565 73.3848C314.117 71.9999 312.066 70.5799 303.745 70.272C293.375 69.8884 276.275 71.3651 268.447 70.4785C261.142 69.6512 265.484 67.0561 254.832 66.9568C248.75 66.9001 240.914 67.7556 234.146 67.9621C229.348 68.1699 224.542 67.9197 219.792 67.2148C216.493 66.6751 214.195 65.9909 210.483 65.5142C200.735 64.2627 181.665 64.6833 164.644 66.2874C147.622 67.8914 133.032 70.5201 124.804 73.1237C116.575 75.7274 114.302 78.2908 116.219 80.4646C117.443 81.8527 120.575 83.1507 128.172 83.7084C142.383 84.7517 167.683 82.9559 182.367 83.9051C190.551 84.4342 194.182 85.7458 201.363 86.4635C209.078 87.2346 220.371 87.2754 231.467 87.2572C254.569 87.2191 278.263 86.982 302.423 86.5474C312.514 86.3658 323.088 86.1298 333.826 85.2646C344.564 84.3993 355.516 82.73 357.782 81.165" fill="white"/>
</g>
<path d="M291.819 153.354C286.576 153.354 280.829 153.156 274.579 152.761C242.251 150.711 200.376 143.583 156.668 132.692C112.96 121.801 72.6403 108.447 43.1375 95.0904C28.7658 88.5837 17.7357 82.4247 10.3537 76.784C2.53813 70.8125 -0.880508 65.6074 0.192345 61.3138C2.28275 52.9492 20.7925 51.1192 35.9521 51.057L35.9572 52.2734C15.1391 52.3588 2.85736 55.6741 1.37447 61.6084C-0.514488 69.1666 14.891 80.9663 43.6406 93.9825C73.0785 107.31 113.324 120.638 156.963 131.512C200.601 142.386 242.399 149.501 274.657 151.546C306.159 153.545 325.31 150.355 327.199 142.797C328.767 136.522 318.429 127.277 298.089 116.766L298.649 115.686C313.428 123.323 330.584 134.278 328.381 143.092C327.308 147.385 321.841 150.376 312.133 151.981C306.598 152.896 299.8 153.354 291.819 153.354Z" fill="#664FA7"/>
<path d="M91.7693 154.938C77.3138 154.938 63.8749 154.443 51.8441 153.444C36.1185 152.137 23.6572 150.036 14.8067 147.201C5.43602 144.198 0.464684 140.442 0.0306606 136.038C-0.815174 127.459 16.0028 119.525 30.2603 114.38L30.6743 115.525C11.0952 122.59 0.642949 129.833 1.24291 135.92C2.00706 143.672 20.4872 149.617 51.945 152.231C84.1562 154.907 126.546 153.959 171.307 149.559C216.067 145.16 257.829 137.838 288.9 128.942C319.244 120.254 336.208 110.825 335.444 103.073C334.81 96.6363 321.962 91.3979 299.267 88.3219L299.431 87.1166C315.921 89.3515 335.765 93.9131 336.657 102.954C337.091 107.358 332.948 112.009 324.344 116.778C316.216 121.283 304.404 125.769 289.236 130.111C258.097 139.027 216.258 146.363 171.426 150.77C143.302 153.534 116.102 154.938 91.7693 154.938Z" fill="#664FA7"/>
<path d="M177.795 180.631C181.716 180.631 184.894 177.458 184.894 173.542C184.894 169.627 181.716 166.453 177.795 166.453C173.874 166.453 170.696 169.627 170.696 173.542C170.696 177.458 173.874 180.631 177.795 180.631Z" fill="#664FA7"/>
<path d="M37.9973 138.778C41.9181 138.778 45.0965 135.604 45.0965 131.689C45.0965 127.774 41.9181 124.6 37.9973 124.6C34.0765 124.6 30.898 127.774 30.898 131.689C30.898 135.604 34.0765 138.778 37.9973 138.778Z" fill="#DE9F4C"/>
<path d="M168.344 30.1169C170.744 30.1169 172.69 28.174 172.69 25.7773C172.69 23.3806 170.744 21.4377 168.344 21.4377C165.944 21.4377 163.998 23.3806 163.998 25.7773C163.998 28.174 165.944 30.1169 168.344 30.1169Z" fill="#0DB2B2"/>
<path d="M142.05 62.8758C145.971 62.8758 149.149 59.702 149.149 55.7868C149.149 51.8716 145.971 48.6978 142.05 48.6978C138.129 48.6978 134.95 51.8716 134.95 55.7868C134.95 59.702 138.129 62.8758 142.05 62.8758Z" fill="#193636"/>
</g>
<defs>
<clipPath id="clip0_76_749">
<rect width="358" height="238.287" fill="white"/>
</clipPath>
</defs>
</svg>
