<svg width="358" height="284" viewBox="0 0 358 284" fill="none" xmlns="http://www.w3.org/2000/svg">
<g clip-path="url(#clip0_76_631)">
<path d="M28.3367 268.678C28.4605 273.316 29.2348 277.914 30.6367 282.336C30.6678 282.438 30.7023 282.539 30.7359 282.642H39.3184C39.3094 282.55 39.3001 282.447 39.291 282.336C38.7188 275.733 41.988 236.029 45.9328 229.157C45.5872 229.714 27.6712 247.699 28.3367 268.678Z" fill="#E6E6E6"/>
<path d="M28.9807 282.336C29.0525 282.438 29.1271 282.541 29.2035 282.642H35.6424C35.5936 282.555 35.537 282.452 35.4714 282.336C34.4078 280.409 31.2596 274.649 28.3373 268.678C25.1981 262.261 22.3156 255.6 22.5583 253.19C22.4831 253.733 20.3099 270.307 28.9807 282.336Z" fill="#E6E6E6"/>
<path d="M133.346 275.547C133.408 277.904 133.802 280.24 134.514 282.487C134.53 282.539 134.547 282.59 134.564 282.642H138.925C138.92 282.595 138.916 282.543 138.911 282.487C138.62 279.132 140.281 258.96 142.285 255.468C142.11 255.752 133.007 264.889 133.346 275.547Z" fill="#E6E6E6"/>
<path d="M133.673 282.486C133.709 282.539 133.747 282.591 133.786 282.642H137.057C137.033 282.598 137.004 282.546 136.97 282.486C136.43 281.508 134.831 278.581 133.346 275.547C131.751 272.287 130.286 268.903 130.41 267.679C130.372 267.955 129.267 276.375 133.673 282.486Z" fill="#E6E6E6"/>
<path d="M107.531 141.198L96.4316 149.121L103.338 149.863L112.958 141.693L107.531 141.198Z" fill="#3F3D56"/>
<path d="M64.1065 276.479L70.7822 276.478L73.9581 250.637L64.1053 250.637L64.1065 276.479Z" fill="#9F616A"/>
<path d="M62.4035 274.291L75.5505 274.291H75.551C77.773 274.291 79.9039 275.177 81.4751 276.753C83.0463 278.33 83.9291 280.469 83.9292 282.699V282.972L62.4039 282.973L62.4035 274.291Z" fill="#2F2E41"/>
<path d="M59.9095 184.178C59.9095 184.178 57.0163 187.46 61.807 200.254L60.9631 270.409L76.4883 270.105L79.9009 235.884L86.1143 185.946L59.9095 184.178Z" fill="#2F2E41"/>
<path d="M44.409 173.103C43.4917 173.101 42.6115 172.74 41.9552 172.097C41.2989 171.454 40.9182 170.579 40.8938 169.659L40.1652 142.104L52.6316 118.368C52.9146 117.833 53.3288 117.38 53.835 117.051C54.3412 116.722 54.9226 116.528 55.5244 116.487L65.0249 115.875L64.2045 171.419L44.7179 173.09C44.6145 173.099 44.5115 173.104 44.409 173.103Z" fill="#664FA7"/>
<path d="M91.439 193.877L91.269 193.851C71.408 190.811 56.4205 187.897 56.2714 187.868L56.0852 187.832L61.2917 175.123C61.2505 173.795 60.1235 136.503 62.281 125.789C64.3695 115.417 74.2143 113.717 75.3361 113.557L76.4626 109.811L90.694 117.243L93.176 125.816L93.6802 149.313L91.439 193.877Z" fill="#3F3D56"/>
<path d="M71.8815 158.305C62.7125 158.305 55.2529 148.3 55.2529 136.002C55.2529 123.704 62.7125 113.699 71.8815 113.699C81.0506 113.699 88.5101 123.704 88.5101 136.002C88.5101 148.3 81.0506 158.305 71.8815 158.305ZM71.8815 115.882C63.9122 115.882 57.4286 124.908 57.4286 136.002C57.4286 147.096 63.9122 156.121 71.8815 156.121C79.8509 156.121 86.3344 147.096 86.3344 136.002C86.3344 124.908 79.8509 115.882 71.8815 115.882Z" fill="#6C63FF"/>
<path d="M100.01 145.516C99.3695 145.515 98.7355 145.648 98.1483 145.906C97.5612 146.164 97.0335 146.541 96.5985 147.013H72.6779L63.9159 148.885L65.3545 160.02L96.5234 153.293C97.0395 153.878 97.6933 154.324 98.4251 154.59C99.157 154.856 99.9437 154.934 100.713 154.816C101.483 154.699 102.211 154.39 102.831 153.917C103.451 153.445 103.943 152.824 104.262 152.112C104.582 151.399 104.718 150.618 104.659 149.839C104.6 149.06 104.348 148.308 103.925 147.652C103.502 146.996 102.923 146.457 102.239 146.084C101.555 145.711 100.789 145.515 100.01 145.516Z" fill="#9F616A"/>
<path d="M98.254 108.233C102.756 103.715 102.756 96.3896 98.254 91.8712C93.7519 87.3529 86.4525 87.3529 81.9503 91.8712C77.4482 96.3896 77.4482 103.715 81.9503 108.233C86.4525 112.752 93.7519 112.752 98.254 108.233Z" fill="#9F616A"/>
<path d="M79.2595 90.8028L78.7006 89.6739L81.5128 88.2717C81.5128 88.2717 84.6151 83.2057 90.2289 84.6294C95.8427 86.053 98.3684 86.905 98.3684 86.905L101.173 88.3215L99.7656 89.7273L102.291 90.5794L100.604 91.4207L102.567 92.5532L101.51 98.3587C101.51 98.3587 99.755 93.9555 96.3803 95.6381C93.0057 97.3208 86.833 94.7683 86.833 94.7683L81.4703 105.184C81.4703 105.184 80.364 101.533 78.3914 102.506C78.3914 102.506 73.3521 94.4522 79.2595 90.8028Z" fill="#2F2E41"/>
<path d="M179.431 162.032L178.939 152.757L173.965 148.702L171.084 157.29L154.971 178.858C154.209 178.981 153.498 179.32 152.922 179.835C152.347 180.35 151.93 181.021 151.721 181.766C151.513 182.512 151.522 183.301 151.747 184.042C151.972 184.783 152.403 185.443 152.991 185.945C153.578 186.448 154.296 186.771 155.061 186.876C155.825 186.981 156.603 186.865 157.304 186.54C158.004 186.215 158.597 185.696 159.013 185.043C159.428 184.391 159.649 183.633 159.648 182.858C159.648 182.804 159.642 182.751 159.64 182.697L179.431 162.032Z" fill="#FFB7B7"/>
<path d="M189.007 278.925L185.197 278.924L183.384 264.174L189.008 264.174L189.007 278.925Z" fill="#FFB7B7"/>
<path d="M189.979 282.632L177.693 282.631V282.475C177.693 281.202 178.197 279.982 179.093 279.081C179.99 278.181 181.207 277.676 182.475 277.676H182.475L189.98 277.676L189.979 282.632Z" fill="#2F2E41"/>
<path d="M206.724 278.925L202.914 278.924L201.101 264.174L206.725 264.174L206.724 278.925Z" fill="#FFB7B7"/>
<path d="M207.696 282.632L195.409 282.631V282.475C195.409 281.202 195.913 279.982 196.81 279.081C197.707 278.181 198.923 277.676 200.191 277.676H200.192L207.696 277.676L207.696 282.632Z" fill="#2F2E41"/>
<path d="M202.696 123.286C204.31 116.601 205.677 109.061 202.634 102.904C200.523 98.6319 192.713 97.1932 188.237 98.7323C183.76 100.271 180.523 104.447 179.1 109C177.676 113.552 177.841 118.458 178.462 123.191C186.695 123.032 194.929 122.874 202.696 123.286Z" fill="#2F2E41"/>
<path d="M193.408 122.104C198.06 119.551 199.77 113.697 197.227 109.027C194.683 104.358 188.85 102.642 184.197 105.194C179.544 107.747 177.834 113.601 180.378 118.271C182.921 122.94 188.755 124.656 193.408 122.104Z" fill="#FFB8B8"/>
<path d="M200.539 111.664C200.57 110.042 200.275 108.431 199.673 106.926C199.071 105.421 198.173 104.052 197.034 102.902C195.894 101.752 194.536 100.843 193.04 100.23C191.543 99.6174 189.939 99.3126 188.323 99.3339C186.707 99.3553 185.112 99.7025 183.632 100.355C182.153 101.007 180.819 101.951 179.71 103.131C178.601 104.311 177.74 105.703 177.177 107.223C176.615 108.744 176.362 110.363 176.436 111.983C184.653 112 192.871 112.018 200.539 111.664Z" fill="#2F2E41"/>
<path d="M173.385 171.701C173.385 171.701 171.822 194.475 172.67 201.423C173.518 208.37 182.75 269.106 182.75 269.106L189.713 269.094L191.781 197.52L200.015 269.79L207.217 269.038L211.302 198.345C211.302 198.345 210.662 171.879 205.455 169.225L173.385 171.701Z" fill="#2F2E41"/>
<path d="M184.308 194.276C179.193 194.275 174.152 193.05 169.603 190.703L169.503 190.652L173.352 165.02L173.103 134.471C173.096 133.633 173.255 132.801 173.572 132.025C173.889 131.249 174.357 130.545 174.948 129.952C175.539 129.359 176.242 128.891 177.015 128.574C177.788 128.257 178.617 128.097 179.453 128.105L200.106 128.295C201.021 128.304 201.924 128.501 202.759 128.874C203.594 129.248 204.344 129.79 204.962 130.467C205.579 131.144 206.051 131.941 206.348 132.809C206.646 133.677 206.762 134.597 206.69 135.512L204.757 160.002L211.149 179.879L210.038 181.362C207.043 185.371 203.158 188.626 198.692 190.868C194.226 193.109 189.301 194.276 184.308 194.276V194.276Z" fill="#3F3D56"/>
<path d="M171.027 154.46L173.192 132.296L173.887 131.303C174.364 130.623 174.969 130.043 175.67 129.599C176.37 129.154 177.15 128.852 177.967 128.711C178.784 128.57 179.62 128.592 180.428 128.776C181.236 128.96 182 129.302 182.676 129.783L183.272 130.208L182.684 152.669L171.027 154.46Z" fill="#3F3D56"/>
<path d="M259.711 262.741C265.306 261.19 267.693 269.717 262.112 271.318C256.518 272.869 254.13 264.342 259.711 262.741Z" fill="#3F3D56"/>
<path d="M228.689 273.716C234.284 272.165 236.672 280.692 231.091 282.292C225.496 283.844 223.108 275.317 228.689 273.716Z" fill="#3F3D56"/>
<path d="M216.134 183.784L216.221 183.759L230.632 223.026L232.532 222.49L218.017 182.942C217.986 182.332 217.748 181.752 217.342 181.297C216.937 180.842 216.388 180.54 215.788 180.441C208.581 179.297 205.66 185.718 205.66 185.718L205.689 185.761L220.423 225.906L222.323 225.37L208.022 186.406C212.376 182.084 216.134 183.784 216.134 183.784Z" fill="#3F3D56"/>
<path d="M232.651 275.925C230.595 275.907 228.598 275.231 226.951 273.994C225.305 272.758 224.095 271.027 223.497 269.052C220.747 260.017 214.257 238.369 213.397 232.494C212.277 224.845 218.586 222.669 218.727 222.623C218.896 222.565 221.433 221.853 224.943 220.867C230.911 219.191 239.929 216.658 240.26 216.508C241.657 216.021 243.14 215.828 244.615 215.943C246.09 216.057 247.525 216.476 248.831 217.173C250.178 217.883 251.366 218.861 252.323 220.047C253.281 221.233 253.989 222.602 254.403 224.071L263.686 257.215C264.258 259.246 264.098 261.416 263.232 263.34C262.366 265.265 260.851 266.821 258.954 267.734C251.792 271.187 241.287 275.794 232.792 275.924C232.745 275.925 232.698 275.925 232.651 275.925Z" fill="#DE9F4C"/>
<path d="M214.602 182.426L209.935 155.07L209.414 145.838L201.87 148.318L208.233 184.138C207.976 184.835 207.915 185.59 208.057 186.319C208.199 187.049 208.538 187.725 209.036 188.274C209.535 188.824 210.175 189.225 210.886 189.434C211.597 189.643 212.351 189.651 213.066 189.459C213.782 189.267 214.431 188.881 214.942 188.343C215.453 187.805 215.808 187.137 215.966 186.411C216.125 185.685 216.081 184.929 215.841 184.226C215.6 183.524 215.171 182.901 214.602 182.426V182.426Z" fill="#FFB7B7"/>
<path d="M211.211 153.354L199.437 152.711L196.67 130.415L196.94 130.181C197.603 129.603 198.373 129.163 199.206 128.886C200.039 128.608 200.918 128.498 201.793 128.562C202.669 128.627 203.523 128.864 204.307 129.26C205.091 129.656 205.789 130.204 206.361 130.872L206.905 131.508L206.913 131.548L211.211 153.354Z" fill="#3F3D56"/>
<path d="M259.16 262.266L247.125 221.387L218.826 229.413L218.657 228.813L247.548 220.619L247.635 220.915L259.756 262.09L259.16 262.266Z" fill="#3F3D56"/>
<path d="M45.3072 170.173L44.0257 142.13L57.152 116.378L57.7053 116.663L44.6545 142.266L45.9282 170.144L45.3072 170.173Z" fill="#3F3D56"/>
<path d="M286.571 283.266H0.310815C0.228382 283.266 0.149324 283.233 0.0910353 283.175C0.0327462 283.116 0 283.037 0 282.954C0 282.871 0.0327462 282.792 0.0910353 282.733C0.149324 282.675 0.228382 282.642 0.310815 282.642H286.571C286.654 282.642 286.733 282.675 286.791 282.733C286.849 282.792 286.882 282.871 286.882 282.954C286.882 283.037 286.849 283.116 286.791 283.175C286.733 283.233 286.654 283.266 286.571 283.266Z" fill="#CCCCCC"/>
<path d="M65.5076 162.108L62.7721 153.942L62.1104 126.72L63.276 122.858C63.6955 121.467 64.3903 120.177 65.3189 119.062C66.2474 117.948 67.3905 117.034 68.6796 116.374C69.9688 115.713 71.3775 115.321 72.8213 115.221C74.2651 115.12 75.7143 115.313 77.082 115.788C78.4497 116.263 79.7078 117.01 80.7809 117.984C81.8541 118.959 82.7201 120.141 83.3271 121.459C83.9342 122.778 84.2697 124.206 84.3137 125.658C84.3576 127.11 84.1091 128.555 83.5829 129.908L77.3357 145.975L77.6532 146.593L91.188 146.483L95.9957 155.168L65.5076 162.108Z" fill="#3F3D56"/>
<path d="M151.729 220.221L151.72 220.223L136.718 223.237L123.814 228.452C123.647 228.52 123.468 228.554 123.289 228.552C123.109 228.55 122.931 228.513 122.765 228.442C122.6 228.371 122.45 228.268 122.324 228.14C122.198 228.011 122.099 227.858 122.032 227.691C122.016 227.651 122.002 227.611 121.99 227.571L112.562 195.89C112.463 195.562 112.491 195.208 112.639 194.899C112.787 194.591 113.046 194.349 113.363 194.222L126.504 188.911L126.513 188.909L141.515 185.895L154.419 180.679C154.756 180.543 155.133 180.547 155.468 180.69C155.802 180.833 156.066 181.103 156.202 181.441C156.217 181.48 156.231 181.52 156.243 181.561L165.671 213.242C165.77 213.57 165.743 213.923 165.594 214.232C165.446 214.541 165.188 214.783 164.87 214.91L151.729 220.221Z" fill="#E5E5E5"/>
<path d="M135.632 198.941C132.192 197.722 128.636 196.655 125.065 195.769L124.885 195.724L126.699 201.818L135.937 199.049L135.632 198.941ZM126.84 201.555L125.193 196.019C128.592 196.868 131.975 197.881 135.256 199.032L126.84 201.555ZM153.658 207.178C152.057 206.269 150.432 205.399 148.785 204.567C148.331 204.338 147.875 204.112 147.418 203.889C144.628 202.527 141.796 201.285 138.922 200.164L138.888 200.151L127.241 203.641L130.422 214.329L153.874 207.3L153.658 207.178ZM130.563 214.066L127.503 203.783L138.879 200.374C141.651 201.456 144.392 202.654 147.101 203.969C147.571 204.198 148.04 204.429 148.506 204.664C150.138 205.484 151.749 206.343 153.338 207.24L130.563 214.066ZM153.658 207.178C152.057 206.269 150.432 205.399 148.785 204.567C148.331 204.338 147.875 204.112 147.418 203.889C144.628 202.527 141.796 201.285 138.922 200.164L138.888 200.151L127.241 203.641L130.422 214.329L153.874 207.3L153.658 207.178ZM130.563 214.066L127.503 203.783L138.879 200.374C141.651 201.456 144.392 202.654 147.101 203.969C147.571 204.198 148.04 204.429 148.506 204.664C150.138 205.484 151.749 206.343 153.338 207.24L130.563 214.066ZM135.632 198.941C132.192 197.722 128.636 196.655 125.065 195.769L124.885 195.724L126.699 201.818L135.937 199.049L135.632 198.941ZM126.84 201.555L125.193 196.019C128.592 196.868 131.975 197.881 135.256 199.032L126.84 201.555ZM135.632 198.941C132.192 197.722 128.636 196.655 125.065 195.769L124.885 195.724L126.699 201.818L135.937 199.049L135.632 198.941ZM126.84 201.555L125.193 196.019C128.592 196.868 131.975 197.881 135.256 199.032L126.84 201.555ZM153.658 207.178C152.057 206.269 150.432 205.399 148.785 204.567C148.331 204.338 147.875 204.112 147.418 203.889C144.628 202.527 141.796 201.285 138.922 200.164L138.888 200.151L127.241 203.641L130.422 214.329L153.874 207.3L153.658 207.178ZM130.563 214.066L127.503 203.783L138.879 200.374C141.651 201.456 144.392 202.654 147.101 203.969C147.571 204.198 148.04 204.429 148.506 204.664C150.138 205.484 151.749 206.343 153.338 207.24L130.563 214.066ZM120.972 219.148L121.032 219.351L129.006 216.961L129.88 219.899L121.906 222.288L121.967 222.491L130.142 220.041L129.147 216.698L120.972 219.148ZM132.502 221.32L133.113 223.373L133.309 223.293L132.764 221.462L163.855 212.143L163.795 211.941L132.502 221.32ZM162.318 206.976L162.258 206.774L130.964 216.153L131.959 219.496L163.253 210.117L163.192 209.914L132.101 219.233L131.227 216.295L162.318 206.976ZM139.077 197.887C134.312 196.049 129.417 194.57 124.432 193.463L123.822 191.411L123.625 191.49L124.241 193.558L124.447 193.683C129.412 194.789 134.288 196.265 139.035 198.097L139.069 198.11L157.992 192.439L157.932 192.236L139.077 197.887ZM124.619 202.22L116.646 204.61L116.706 204.813L124.882 202.362L121.859 192.204L121.662 192.283L124.619 202.22ZM158.535 194.262L141.899 199.248L142.17 199.362C144.722 200.44 147.266 201.631 149.804 202.936C150.165 203.121 150.526 203.309 150.886 203.499C152.678 204.444 154.455 205.44 156.219 206.49L156.415 206.539L161.715 204.95L161.655 204.748L156.368 206.332C154.622 205.293 152.861 204.304 151.083 203.364C150.728 203.176 150.372 202.99 150.015 202.807C147.531 201.526 145.033 200.351 142.522 199.282L158.595 194.465L158.535 194.262ZM122.509 224.315L122.57 224.517L130.543 222.127L131.15 224.166L131.346 224.086L130.685 221.864L122.509 224.315ZM117.249 206.636L117.309 206.839L125.283 204.449L128.343 214.732L120.369 217.122L120.429 217.324L128.605 214.874L125.424 204.186L117.249 206.636ZM135.632 198.941C132.192 197.722 128.636 196.655 125.065 195.769L124.885 195.724L126.699 201.818L135.937 199.049L135.632 198.941ZM126.84 201.555L125.193 196.019C128.592 196.868 131.975 197.881 135.256 199.032L126.84 201.555ZM153.658 207.178C152.057 206.269 150.432 205.399 148.785 204.567C148.331 204.338 147.875 204.112 147.418 203.889C144.628 202.527 141.796 201.285 138.922 200.164L138.888 200.151L127.241 203.641L130.422 214.329L153.874 207.3L153.658 207.178ZM130.563 214.066L127.503 203.783L138.879 200.374C141.651 201.456 144.392 202.654 147.101 203.969C147.571 204.198 148.04 204.429 148.506 204.664C150.138 205.484 151.749 206.343 153.338 207.24L130.563 214.066ZM135.632 198.941C132.192 197.722 128.636 196.655 125.065 195.769L124.885 195.724L126.699 201.818L135.937 199.049L135.632 198.941ZM126.84 201.555L125.193 196.019C128.592 196.868 131.975 197.881 135.256 199.032L126.84 201.555ZM153.658 207.178C152.057 206.269 150.432 205.399 148.785 204.567C148.331 204.338 147.875 204.112 147.418 203.889C144.628 202.527 141.796 201.285 138.922 200.164L138.888 200.151L127.241 203.641L130.422 214.329L153.874 207.3L153.658 207.178ZM130.563 214.066L127.503 203.783L138.879 200.374C141.651 201.456 144.392 202.654 147.101 203.969C147.571 204.198 148.04 204.429 148.506 204.664C150.138 205.484 151.749 206.343 153.338 207.24L130.563 214.066Z" fill="white"/>
<path d="M138.31 199.895C139.074 202.461 136.146 209.564 136.146 209.564C136.146 209.564 129.816 205.236 129.052 202.67C128.686 201.438 128.822 200.11 129.431 198.978C130.039 197.847 131.071 197.005 132.299 196.637C133.527 196.269 134.85 196.405 135.977 197.016C137.104 197.627 137.944 198.663 138.31 199.895H138.31Z" fill="#0DB2B2"/>
<path d="M135.737 200.446C135.862 200.866 135.86 201.314 135.732 201.733C135.603 202.152 135.354 202.523 135.015 202.8C134.676 203.076 134.263 203.246 133.828 203.287C133.393 203.328 132.956 203.239 132.572 203.031C132.187 202.822 131.873 202.504 131.669 202.117C131.465 201.729 131.38 201.29 131.424 200.854C131.469 200.418 131.642 200.005 131.92 199.667C132.199 199.329 132.571 199.082 132.989 198.957C133.267 198.873 133.559 198.846 133.847 198.875C134.136 198.905 134.416 198.991 134.671 199.13C134.926 199.268 135.152 199.456 135.335 199.681C135.518 199.907 135.654 200.167 135.737 200.446Z" fill="white"/>
<path d="M136.771 212.971C137.49 212.971 138.073 212.386 138.073 211.665C138.073 210.943 137.49 210.358 136.771 210.358C136.052 210.358 135.468 210.943 135.468 211.665C135.468 212.386 136.052 212.971 136.771 212.971Z" fill="#6C63FF"/>
<path d="M150.981 194.48L141.93 197.193C141.919 197.196 141.907 197.199 141.896 197.2L143.962 188.476C143.974 188.422 144.001 188.372 144.038 188.332C144.076 188.291 144.124 188.261 144.177 188.245C144.23 188.229 144.287 188.228 144.34 188.241C144.394 188.254 144.444 188.281 144.484 188.32L148.842 192.452L149.051 192.65L150.981 194.48Z" fill="white"/>
<path opacity="0.2" d="M150.981 194.48L147.891 195.406L148.75 192.74L148.811 192.548L148.842 192.452L149.051 192.65L150.981 194.48Z" fill="black"/>
<path d="M156.02 192.97L148.192 195.316L149.051 192.65L149.113 192.458L150.232 188.984C150.254 188.929 150.287 188.88 150.329 188.839C150.371 188.798 150.421 188.767 150.476 188.747C150.531 188.727 150.59 188.718 150.648 188.722C150.706 188.726 150.763 188.743 150.815 188.77C150.829 188.778 150.842 188.788 150.854 188.797L156.02 192.97Z" fill="white"/>
</g>
<g clip-path="url(#clip1_76_631)">
<path d="M328.007 58.6409C326.567 59.1731 324.037 59.6107 321.11 59.9626C313.151 60.9205 302.243 61.2606 302.243 61.2606C302.243 61.2606 246.173 65.9248 204.149 48.5777C204.149 48.5777 198.036 45.3637 203.707 41.038C204.58 40.3916 205.508 39.8237 206.481 39.3408L206.55 39.2714C207.195 38.6735 207.892 38.1347 208.633 37.6614C210.81 36.2496 214.486 34.5761 218.961 35.3345L329.333 53.239C329.333 53.239 333.364 56.6555 328.007 58.6409Z" fill="#3F3D56"/>
<path d="M306.015 50.5261L329.121 34.0837L339.304 35.8504L329.333 53.2389C329.333 53.2389 306.281 53.4237 306.015 50.5261Z" fill="#3F3D56"/>
<path d="M247.844 40.5367L293.868 27.5907L301.287 29.1459L280.497 38.5262L273.999 45.8175L247.844 40.5367Z" fill="#3F3D56"/>
<path d="M321.11 59.9625C313.151 60.9205 302.243 61.2605 302.243 61.2605C302.243 61.2605 246.173 65.9248 204.149 48.5776C204.149 48.5776 198.036 45.3637 203.707 41.038L203.726 41.1178C203.726 41.1178 212.794 47.2648 256.119 52.3962L321.11 59.9625Z" fill="#0DB2B2"/>
<path d="M313.712 59.6077L334.289 68.0344L339.458 67.4593L327.15 58.181C327.15 58.181 312.263 54.9952 313.712 59.6077Z" fill="#3F3D56"/>
<path d="M211.187 42.0181C210.205 42.0344 207.956 40.383 206.557 39.2713C207.202 38.6734 207.899 38.1346 208.64 37.6614C209.768 38.5292 211.774 39.9336 212.889 39.8789C214.5 39.8124 212.665 41.9915 211.187 42.0181Z" fill="#FBBC04"/>
<path d="M304.667 88.736L291.455 89.4293L254.312 64.3089L247.417 59.6447L244.068 57.3784C250.351 52.0562 275.988 59.3963 275.988 59.3963C276.479 59.8118 276.635 60.5021 276.613 61.265C276.57 62.6931 275.901 64.3695 275.643 64.9727C275.581 65.1206 275.543 65.1989 275.543 65.1989L304.667 88.736Z" fill="#3F3D56"/>
<path d="M261.158 75.7115L258.866 77.1662L260.255 74.6338C259.862 74.3192 259.375 74.1449 258.872 74.1386H258.835C258.676 74.1417 258.518 74.1298 258.361 74.1031L257.586 74.5968L257.917 73.9907C257.368 73.7974 256.893 73.4352 256.561 72.9559L255.174 73.8429L256.05 72.2433C255.239 71.2661 254.145 70.6674 252.941 70.6674C251.498 70.6674 250.213 71.5278 249.383 72.8701C249.137 73.2721 248.789 73.6015 248.375 73.8248C247.961 74.0482 247.495 74.1574 247.025 74.1415H246.948C245.355 74.1415 244.063 75.9525 244.063 78.1878C244.063 80.4231 245.355 82.2341 246.948 82.2341C247.298 82.233 247.643 82.1462 247.952 81.9813C248.494 81.7173 249.087 81.5745 249.69 81.5628C250.293 81.551 250.891 81.6706 251.444 81.9133C251.911 82.1223 252.416 82.2304 252.928 82.2304C253.439 82.2304 253.945 82.1223 254.412 81.9133C254.96 81.6752 255.552 81.5579 256.149 81.5694C256.746 81.5808 257.333 81.7208 257.871 81.9798C258.179 82.1406 258.52 82.2253 258.866 82.2267C260.46 82.2267 261.751 80.4157 261.751 78.1804C261.762 77.3207 261.559 76.4718 261.158 75.7115Z" fill="#E7E7E7"/>
<path opacity="0.03" d="M256.847 81.6324C256.015 81.4744 255.154 81.5681 254.375 81.9015C253.909 82.111 253.403 82.2194 252.892 82.2194C252.38 82.2194 251.875 82.111 251.408 81.9015C250.856 81.6581 250.258 81.5382 249.655 81.5499C249.052 81.5617 248.459 81.7048 247.916 81.9695C247.607 82.1339 247.262 82.2206 246.911 82.2223C245.496 82.2223 244.318 80.7912 244.074 78.9048C244.357 78.6986 244.597 78.439 244.781 78.1405C245.611 76.7996 246.896 75.9392 248.339 75.9392C249.782 75.9392 251.054 76.7819 251.883 78.1124C252.13 78.5134 252.476 78.8436 252.888 79.0707C253.3 79.2979 253.764 79.4144 254.234 79.4089H254.271C255.397 79.406 256.372 80.3107 256.847 81.6324Z" fill="black"/>
<path d="M325.865 73.7897L323.573 75.2444L324.961 72.7119C324.568 72.3973 324.082 72.223 323.579 72.2167H323.542C323.383 72.2198 323.224 72.2079 323.067 72.1812L322.292 72.675L322.624 72.0688C322.074 71.8755 321.6 71.5134 321.268 71.034L319.881 71.921L320.756 70.3214C319.946 69.3442 318.852 68.7455 317.648 68.7455C316.205 68.7455 314.919 69.6059 314.089 70.9482C313.843 71.3502 313.496 71.6796 313.081 71.903C312.667 72.1263 312.201 72.2356 311.731 72.2196H311.655C310.061 72.2196 308.77 74.0306 308.77 76.2659C308.77 78.5012 310.061 80.3122 311.655 80.3122C312.005 80.3111 312.349 80.2243 312.658 80.0594C313.201 79.7955 313.794 79.6527 314.397 79.6409C315 79.6292 315.598 79.7488 316.15 79.9914C316.617 80.2005 317.123 80.3085 317.634 80.3085C318.146 80.3085 318.652 80.2005 319.119 79.9914C319.666 79.7533 320.259 79.636 320.856 79.6475C321.452 79.659 322.04 79.799 322.578 80.0579C322.885 80.2187 323.226 80.3034 323.573 80.3048C325.166 80.3048 326.457 78.4938 326.457 76.2585C326.469 75.3988 326.265 74.55 325.865 73.7897V73.7897Z" fill="#F2F2F2"/>
<path opacity="0.03" d="M321.554 79.7105C320.721 79.5526 319.861 79.6462 319.082 79.9796C318.615 80.1891 318.11 80.2975 317.598 80.2975C317.087 80.2975 316.581 80.1891 316.115 79.9796C315.563 79.7363 314.964 79.6163 314.361 79.628C313.758 79.6398 313.165 79.7829 312.623 80.0476C312.313 80.212 311.968 80.2987 311.618 80.3004C310.203 80.3004 309.025 78.8693 308.78 76.9829C309.063 76.7767 309.304 76.5171 309.488 76.2186C310.318 74.8777 311.603 74.0173 313.046 74.0173C314.489 74.0173 315.761 74.86 316.589 76.1905C316.837 76.5926 317.185 76.9234 317.598 77.1507C318.011 77.3779 318.476 77.4938 318.948 77.4871H318.984C320.103 77.4841 321.079 78.3889 321.554 79.7105Z" fill="black"/>
<path d="M325.865 25.2993L323.573 26.754L324.961 24.2216C324.568 23.907 324.082 23.7327 323.579 23.7263H323.542C323.383 23.7294 323.224 23.7176 323.067 23.6909L322.292 24.1846L322.624 23.5785C322.074 23.3851 321.6 23.023 321.268 22.5436L319.881 23.4307L320.756 21.8311C319.946 20.8539 318.852 20.2551 317.648 20.2551C316.205 20.2551 314.919 21.1155 314.089 22.4579C313.843 22.8599 313.496 23.1893 313.081 23.4126C312.667 23.6359 312.201 23.7452 311.731 23.7293H311.655C310.061 23.7293 308.77 25.5403 308.77 27.7756C308.77 30.0109 310.061 31.8219 311.655 31.8219C312.005 31.8208 312.349 31.734 312.658 31.5691C313.201 31.3051 313.794 31.1623 314.397 31.1506C315 31.1388 315.598 31.2584 316.15 31.5011C316.617 31.7113 317.122 31.8206 317.634 31.8219C318.145 31.8231 318.651 31.7164 319.119 31.5085C319.666 31.2704 320.259 31.1531 320.856 31.1646C321.452 31.176 322.04 31.316 322.578 31.575C322.885 31.7358 323.226 31.8204 323.573 31.8219C325.166 31.8219 326.457 30.0109 326.457 27.7756C326.47 26.9134 326.266 26.0618 325.865 25.2993V25.2993Z" fill="#F2F2F2"/>
<path opacity="0.03" d="M321.554 31.2202C320.721 31.0622 319.861 31.1559 319.082 31.4892C318.615 31.6988 318.11 31.8071 317.598 31.8071C317.087 31.8071 316.581 31.6988 316.115 31.4892C315.563 31.2459 314.964 31.126 314.361 31.1377C313.758 31.1494 313.165 31.2926 312.623 31.5572C312.313 31.7217 311.968 31.8084 311.618 31.81C310.203 31.81 309.025 30.379 308.78 28.4926C309.063 28.2864 309.304 28.0267 309.488 27.7283C310.318 26.3874 311.603 25.527 313.046 25.527C314.489 25.527 315.761 26.3696 316.589 27.7002C316.837 28.1023 317.185 28.4331 317.598 28.6603C318.011 28.8876 318.476 29.0035 318.948 28.9967H318.984C320.103 28.9937 321.079 29.8985 321.554 31.2202Z" fill="black"/>
<path d="M231.234 20.0674L230.092 20.7933L230.785 19.5307C230.589 19.3729 230.346 19.2855 230.095 19.2824H230.077C229.998 19.2832 229.918 19.2773 229.84 19.2646L229.454 19.51L229.619 19.2144C229.345 19.1181 229.108 18.9375 228.942 18.6984L228.251 19.1419L228.693 18.3451C228.509 18.1066 228.275 17.9122 228.006 17.7761C227.738 17.6401 227.443 17.5658 227.142 17.5586C226.423 17.5586 225.782 17.9873 225.374 18.657C225.251 18.8581 225.077 19.0227 224.87 19.1342C224.663 19.2456 224.43 19.2998 224.195 19.2912H224.156C223.362 19.2912 222.718 20.196 222.718 21.3107C222.718 22.4254 223.362 23.3286 224.156 23.3286C224.331 23.3281 224.503 23.285 224.657 23.203C224.928 23.0709 225.224 22.9994 225.525 22.9936C225.826 22.9877 226.124 23.0475 226.4 23.169C226.632 23.2724 226.883 23.3259 227.137 23.3259C227.39 23.3259 227.642 23.2724 227.874 23.169C228.147 23.0501 228.442 22.9916 228.74 22.9974C229.038 23.0033 229.331 23.0734 229.6 23.203C229.753 23.2825 229.922 23.3245 230.095 23.3257C230.889 23.3257 231.533 22.4224 231.533 21.3077C231.539 20.8756 231.436 20.4491 231.234 20.0674Z" fill="#E7E7E7"/>
<path opacity="0.03" d="M229.084 23.0211C228.668 22.9413 228.239 22.9882 227.85 23.1557C227.618 23.2585 227.367 23.3119 227.113 23.3124C226.856 23.3123 226.603 23.2574 226.369 23.1512C226.093 23.0303 225.794 22.9708 225.494 22.977C225.193 22.9831 224.897 23.0547 224.626 23.1867C224.473 23.2687 224.301 23.3118 224.127 23.3124C223.421 23.3124 222.833 22.5983 222.71 21.6581C222.851 21.5544 222.971 21.425 223.064 21.2766C223.477 20.6069 224.118 20.1782 224.833 20.1782C225.548 20.1782 226.186 20.6025 226.602 21.2633C226.725 21.4643 226.899 21.6295 227.106 21.7428C227.313 21.856 227.545 21.9134 227.781 21.9094H227.8C228.356 21.9094 228.846 22.3618 229.084 23.0211Z" fill="black"/>
<path d="M332.937 92.3594L331.795 93.0853L332.487 91.8227C332.292 91.6649 332.049 91.5775 331.798 91.5744H331.78C331.7 91.5752 331.621 91.5692 331.543 91.5566L331.156 91.802L331.321 91.5064C331.047 91.4101 330.811 91.2295 330.645 90.9904L329.954 91.4339L330.396 90.6371C330.212 90.3986 329.977 90.2042 329.709 90.0681C329.441 89.9321 329.146 89.8578 328.845 89.8506C328.126 89.8506 327.485 90.2793 327.077 90.949C326.954 91.15 326.78 91.3147 326.572 91.4262C326.365 91.5376 326.132 91.5918 325.897 91.5832H325.859C325.065 91.5832 324.42 92.488 324.42 93.6027C324.42 94.7174 325.065 95.6207 325.859 95.6207C326.034 95.6201 326.206 95.577 326.36 95.495C326.631 95.3629 326.927 95.2914 327.228 95.2856C327.528 95.2797 327.827 95.3395 328.102 95.461C328.334 95.5644 328.585 95.6179 328.839 95.6179C329.093 95.6179 329.344 95.5644 329.576 95.461C329.85 95.3421 330.145 95.2836 330.443 95.2894C330.741 95.2953 331.034 95.3654 331.302 95.495C331.455 95.5745 331.625 95.6165 331.798 95.6177C332.592 95.6177 333.236 94.7144 333.236 93.5997C333.242 93.1676 333.139 92.7411 332.937 92.3594V92.3594Z" fill="#F2F2F2"/>
<path opacity="0.03" d="M330.786 95.3132C330.371 95.2334 329.941 95.2803 329.553 95.4478C329.321 95.5506 329.07 95.604 328.816 95.6045C328.559 95.6044 328.305 95.5495 328.071 95.4433C327.796 95.3224 327.497 95.263 327.196 95.2691C326.896 95.2752 326.6 95.3468 326.329 95.4788C326.175 95.5608 326.004 95.6039 325.83 95.6045C325.124 95.6045 324.535 94.8904 324.413 93.9502C324.554 93.8465 324.674 93.7171 324.767 93.5688C325.18 92.8991 325.821 92.4703 326.536 92.4703C327.25 92.4703 327.889 92.8946 328.304 93.5555C328.428 93.7564 328.602 93.9216 328.809 94.0349C329.015 94.1481 329.248 94.2055 329.483 94.2015H329.503C330.058 94.2015 330.549 94.6539 330.786 95.3132Z" fill="black"/>
<path d="M226.812 96.2031L225.67 96.929L226.363 95.6665C226.167 95.5087 225.924 95.4212 225.673 95.4181H225.655C225.576 95.4189 225.496 95.413 225.418 95.4004L225.032 95.6458L225.197 95.3501C224.923 95.2538 224.686 95.0733 224.52 94.8342L223.829 95.2777L224.271 94.4808C224.087 94.2423 223.853 94.0479 223.585 93.9119C223.316 93.7758 223.021 93.7015 222.721 93.6943C222.001 93.6943 221.36 94.1231 220.952 94.7928C220.829 94.9938 220.655 95.1585 220.448 95.2699C220.241 95.3813 220.008 95.4356 219.773 95.427H219.734C218.94 95.427 218.296 96.3317 218.296 97.4464C218.296 98.5611 218.94 99.4644 219.734 99.4644C219.909 99.4638 220.081 99.4207 220.236 99.3387C220.506 99.2066 220.802 99.1352 221.103 99.1293C221.404 99.1234 221.702 99.1833 221.978 99.3047C222.21 99.4082 222.461 99.4616 222.715 99.4616C222.969 99.4616 223.22 99.4082 223.452 99.3047C223.725 99.1858 224.021 99.1273 224.318 99.1332C224.616 99.1391 224.909 99.2092 225.178 99.3387C225.331 99.4182 225.501 99.4603 225.673 99.4614C226.467 99.4614 227.112 98.5582 227.112 97.4435C227.117 97.0114 227.014 96.5848 226.812 96.2031V96.2031Z" fill="#F2F2F2"/>
<path opacity="0.03" d="M224.662 99.157C224.246 99.0772 223.817 99.124 223.428 99.2915C223.196 99.3943 222.945 99.4477 222.691 99.4482C222.434 99.4481 222.181 99.3932 221.947 99.2871C221.671 99.1661 221.373 99.1067 221.072 99.1128C220.771 99.1189 220.475 99.1905 220.205 99.3225C220.051 99.4045 219.879 99.4476 219.705 99.4482C218.999 99.4482 218.411 98.7342 218.288 97.7939C218.429 97.6903 218.549 97.5609 218.642 97.4125C219.055 96.7428 219.696 96.3141 220.411 96.3141C221.126 96.3141 221.764 96.7384 222.18 97.3992C222.304 97.6002 222.477 97.7654 222.684 97.8786C222.891 97.9919 223.123 98.0493 223.359 98.0452H223.378C223.934 98.0452 224.425 98.4976 224.662 99.157Z" fill="black"/>
<path d="M279.583 5.04565L277.291 6.50036L278.679 3.96792C278.286 3.65329 277.8 3.47903 277.297 3.47267H277.26C277.101 3.47578 276.942 3.46391 276.785 3.43719L276.01 3.93096L276.342 3.32483C275.792 3.13147 275.318 2.76935 274.986 2.28997L273.599 3.17699L274.474 1.5774C273.663 0.600203 272.57 0.00146484 271.366 0.00146484C269.923 0.00146484 268.637 0.861873 267.807 2.20423C267.561 2.60621 267.213 2.93563 266.799 3.15895C266.385 3.38228 265.919 3.49154 265.449 3.47562H265.372C263.779 3.47562 262.488 5.28662 262.488 7.52191C262.488 9.7572 263.779 11.5682 265.372 11.5682C265.723 11.5671 266.067 11.4803 266.376 11.3154C266.919 11.0514 267.512 10.9087 268.115 10.8969C268.717 10.8852 269.316 11.0048 269.868 11.2474C270.335 11.4576 270.84 11.5669 271.351 11.5682C271.863 11.5695 272.369 11.4627 272.837 11.2548C273.384 11.0167 273.977 10.8994 274.573 10.9109C275.17 10.9224 275.758 11.0623 276.296 11.3213C276.603 11.4821 276.944 11.5668 277.291 11.5682C278.884 11.5682 280.175 9.7572 280.175 7.52191C280.188 6.65971 279.984 5.80815 279.583 5.04565V5.04565Z" fill="#F2F2F2"/>
<path opacity="0.03" d="M275.271 10.9665C274.439 10.8086 273.579 10.9022 272.8 11.2356C272.333 11.4451 271.827 11.5535 271.316 11.5535C270.805 11.5535 270.299 11.4451 269.833 11.2356C269.28 10.9922 268.682 10.8723 268.079 10.884C267.476 10.8958 266.883 11.0389 266.341 11.3036C266.031 11.468 265.686 11.5547 265.336 11.5564C263.921 11.5564 262.743 10.1253 262.498 8.23892C262.781 8.0327 263.022 7.77308 263.206 7.4746C264.036 6.13372 265.321 5.27332 266.764 5.27332C268.207 5.27332 269.479 6.11598 270.307 7.44651C270.555 7.84863 270.903 8.17944 271.316 8.40667C271.729 8.6339 272.194 8.74979 272.666 8.74304H272.702C273.821 8.74008 274.797 9.64484 275.271 10.9665Z" fill="black"/>
<path d="M357.699 30.4159L356.557 31.1418L357.25 29.8792C357.054 29.7214 356.811 29.634 356.56 29.6309H356.542C356.463 29.6317 356.383 29.6258 356.305 29.6131L355.919 29.8585L356.084 29.5629C355.81 29.4666 355.573 29.286 355.407 29.0469L354.716 29.4904L355.158 28.6936C354.974 28.4551 354.74 28.2607 354.472 28.1247C354.203 27.9886 353.908 27.9143 353.608 27.9071C352.888 27.9071 352.247 28.3358 351.839 29.0055C351.716 29.2066 351.542 29.3712 351.335 29.4827C351.128 29.5941 350.895 29.6483 350.66 29.6397H350.621C349.827 29.6397 349.183 30.5445 349.183 31.6592C349.183 32.7739 349.827 33.6772 350.621 33.6772C350.796 33.6766 350.968 33.6335 351.123 33.5515C351.393 33.4194 351.689 33.3479 351.99 33.3421C352.291 33.3362 352.589 33.3961 352.865 33.5175C353.097 33.6209 353.348 33.6744 353.602 33.6744C353.856 33.6744 354.107 33.6209 354.339 33.5175C354.612 33.3986 354.908 33.3401 355.205 33.346C355.503 33.3518 355.796 33.4219 356.065 33.5515C356.218 33.631 356.388 33.673 356.56 33.6742C357.354 33.6742 357.999 32.7709 357.999 31.6562C358.004 31.2242 357.901 30.7976 357.699 30.4159V30.4159Z" fill="#F2F2F2"/>
<path opacity="0.03" d="M355.549 33.3696C355.133 33.2898 354.704 33.3367 354.315 33.5042C354.083 33.607 353.832 33.6604 353.578 33.6609C353.324 33.6598 353.073 33.6048 352.841 33.4997C352.566 33.3788 352.267 33.3194 351.966 33.3255C351.665 33.3316 351.369 33.4032 351.099 33.5352C350.945 33.6172 350.774 33.6603 350.599 33.6609C349.893 33.6609 349.305 32.9468 349.183 32.0066C349.324 31.9029 349.444 31.7735 349.537 31.6252C349.949 30.9555 350.59 30.5267 351.305 30.5267C352.02 30.5267 352.658 30.951 353.074 31.6119C353.197 31.8117 353.37 31.9762 353.575 32.0894C353.781 32.2026 354.012 32.2607 354.246 32.2579H354.265C354.821 32.2579 355.311 32.7103 355.549 33.3696Z" fill="black"/>
</g>
<defs>
<clipPath id="clip0_76_631">
<rect width="286.882" height="198.889" fill="white" transform="translate(0 84.3771)"/>
</clipPath>
<clipPath id="clip1_76_631">
<rect width="156.7" height="99.4556" fill="white" transform="translate(201.3)"/>
</clipPath>
</defs>
</svg>
