<svg width="438" height="247" viewBox="0 0 438 247" fill="none" xmlns="http://www.w3.org/2000/svg">
<path d="M32.9536 246.876L32.4926 246.023C38.6731 242.677 46.3651 238.513 50.3827 231.679C54.3432 224.943 54.432 215.795 50.6146 207.806C47.3659 201.006 41.3983 194.915 33.3569 190.189C31.7707 189.257 30.1057 188.374 28.4955 187.519C24.6033 185.454 20.5786 183.319 17.26 180.29C12.6892 176.117 9.23089 169.115 11.8085 162.878C12.6562 160.887 14.0445 159.174 15.8158 157.934C17.5871 156.693 19.6704 155.974 21.8292 155.859L21.8838 156.828C19.9062 156.933 17.9975 157.591 16.3744 158.727C14.7514 159.863 13.4789 161.432 12.7014 163.255C10.3061 169.051 13.5925 175.628 17.9131 179.573C21.1409 182.519 25.1105 184.625 28.9493 186.662C30.5687 187.521 32.2433 188.41 33.8477 189.353C42.0563 194.176 48.1567 200.412 51.489 207.387C55.4436 215.663 55.3399 225.16 51.218 232.171C47.0635 239.238 39.24 243.473 32.9536 246.876Z" fill="#F1F1F1"/>
<path d="M27.972 160.973C32.6558 160.973 36.4528 159.127 36.4528 156.85C36.4528 154.572 32.6558 152.726 27.972 152.726C23.2882 152.726 19.4912 154.572 19.4912 156.85C19.4912 159.127 23.2882 160.973 27.972 160.973Z" fill="#F1F1F1"/>
<path d="M34.7567 188.141C39.4405 188.141 43.2375 186.295 43.2375 184.017C43.2375 181.74 39.4405 179.894 34.7567 179.894C30.0729 179.894 26.2759 181.74 26.2759 184.017C26.2759 186.295 30.0729 188.141 34.7567 188.141Z" fill="#F1F1F1"/>
<path d="M19.249 192.506C23.9328 192.506 27.7298 190.66 27.7298 188.383C27.7298 186.105 23.9328 184.259 19.249 184.259C14.5652 184.259 10.7682 186.105 10.7682 188.383C10.7682 190.66 14.5652 192.506 19.249 192.506Z" fill="#F1F1F1"/>
<path d="M43.4798 215.308C48.1636 215.308 51.9606 213.462 51.9606 211.184C51.9606 208.907 48.1636 207.061 43.4798 207.061C38.796 207.061 34.999 208.907 34.999 211.184C34.999 213.462 38.796 215.308 43.4798 215.308Z" fill="#F1F1F1"/>
<path d="M60.4414 215.308C65.1252 215.308 68.9222 213.462 68.9222 211.184C68.9222 208.907 65.1252 207.061 60.4414 207.061C55.7576 207.061 51.9606 208.907 51.9606 211.184C51.9606 213.462 55.7576 215.308 60.4414 215.308Z" fill="#F1F1F1"/>
<path d="M438 7.48511H165.26V137.041H438V7.48511Z" fill="#E6E6E6"/>
<path d="M430.201 18.595H173.059V126.688H430.201V18.595Z" fill="white"/>
<path d="M437.884 0H165.143V11.599H437.884V0Z" fill="#E9C547"/>
<path d="M173.754 7.515C174.94 7.515 175.901 6.55249 175.901 5.36517C175.901 4.17785 174.94 3.21533 173.754 3.21533C172.568 3.21533 171.606 4.17785 171.606 5.36517C171.606 6.55249 172.568 7.515 173.754 7.515Z" fill="white"/>
<path d="M181.905 7.515C183.091 7.515 184.053 6.55249 184.053 5.36517C184.053 4.17785 183.091 3.21533 181.905 3.21533C180.719 3.21533 179.758 4.17785 179.758 5.36517C179.758 6.55249 180.719 7.515 181.905 7.515Z" fill="white"/>
<path d="M190.057 7.515C191.243 7.515 192.205 6.55249 192.205 5.36517C192.205 4.17785 191.243 3.21533 190.057 3.21533C188.871 3.21533 187.91 4.17785 187.91 5.36517C187.91 6.55249 188.871 7.515 190.057 7.515Z" fill="white"/>
<path d="M288.072 44.2473C287.796 44.2473 287.531 44.357 287.336 44.5524C287.141 44.7477 287.031 45.0126 287.031 45.2888C287.031 45.565 287.141 45.83 287.336 46.0253C287.531 46.2206 287.796 46.3303 288.072 46.3303H345.162C345.438 46.3303 345.702 46.2206 345.897 46.0253C346.092 45.83 346.202 45.565 346.202 45.2888C346.202 45.0126 346.092 44.7477 345.897 44.5524C345.702 44.357 345.438 44.2473 345.162 44.2473H288.072Z" fill="#E6E6E6"/>
<path d="M288.072 50.4971C287.796 50.4977 287.532 50.6077 287.338 50.8029C287.143 50.9982 287.034 51.2627 287.034 51.5386C287.034 51.8144 287.143 52.079 287.338 52.2742C287.532 52.4695 287.796 52.5795 288.072 52.5801H317.217C317.493 52.5795 317.757 52.4695 317.952 52.2742C318.146 52.079 318.256 51.8144 318.256 51.5386C318.256 51.2627 318.146 50.9982 317.952 50.8029C317.757 50.6077 317.493 50.4977 317.217 50.4971H288.072Z" fill="#E6E6E6"/>
<path d="M286.635 80.7463C286.359 80.7463 286.095 80.8561 285.899 81.0514C285.704 81.2467 285.595 81.5116 285.595 81.7878C285.595 82.0641 285.704 82.329 285.899 82.5243C286.095 82.7196 286.359 82.8294 286.635 82.8294H393.679C393.955 82.8294 394.219 82.7196 394.414 82.5243C394.61 82.329 394.719 82.0641 394.719 81.7878C394.719 81.5116 394.61 81.2467 394.414 81.0514C394.219 80.8561 393.955 80.7463 393.679 80.7463H286.635Z" fill="#E6E6E6"/>
<path d="M286.635 86.9961C286.36 86.9967 286.096 87.1067 285.901 87.3019C285.706 87.4972 285.597 87.7618 285.597 88.0376C285.597 88.3134 285.706 88.578 285.901 88.7733C286.096 88.9685 286.36 89.0785 286.635 89.0791H365.735C366.01 89.0785 366.274 88.9685 366.469 88.7733C366.663 88.578 366.773 88.3134 366.773 88.0376C366.773 87.7618 366.663 87.4972 366.469 87.3019C366.274 87.1067 366.01 86.9967 365.735 86.9961H286.635Z" fill="#E6E6E6"/>
<path d="M286.635 93.104C286.36 93.1046 286.096 93.2146 285.901 93.4098C285.706 93.6051 285.597 93.8697 285.597 94.1455C285.597 94.4213 285.706 94.6859 285.901 94.8812C286.096 95.0764 286.36 95.1864 286.635 95.187H393.679C393.954 95.1864 394.218 95.0764 394.413 94.8812C394.608 94.6859 394.717 94.4213 394.717 94.1455C394.717 93.8697 394.608 93.6051 394.413 93.4098C394.218 93.2146 393.954 93.1046 393.679 93.104H286.635Z" fill="#E6E6E6"/>
<path d="M286.635 99.354C286.36 99.3546 286.096 99.4646 285.901 99.6598C285.706 99.8551 285.597 100.12 285.597 100.396C285.597 100.671 285.706 100.936 285.901 101.131C286.096 101.326 286.36 101.436 286.635 101.437H365.735C366.01 101.436 366.274 101.326 366.469 101.131C366.663 100.936 366.773 100.671 366.773 100.396C366.773 100.12 366.663 99.8551 366.469 99.6598C366.274 99.4646 366.01 99.3546 365.735 99.354H286.635Z" fill="#E6E6E6"/>
<path d="M230.672 84.9732C235.676 84.9732 239.732 80.9128 239.732 75.9041C239.732 70.8953 235.676 66.835 230.672 66.835C225.669 66.835 221.613 70.8953 221.613 75.9041C221.613 80.9128 225.669 84.9732 230.672 84.9732Z" fill="#A0616A"/>
<path d="M227.803 68.6487C227.803 68.6487 232.031 69.7823 234.221 70.2358C236.41 70.6892 236.184 69.4044 236.184 69.4044C236.184 69.4044 239.052 69.7823 238.901 69.48C238.75 69.1777 240.109 67.5906 238.524 65.7768C236.938 63.963 237.391 62.6026 237.391 62.6026H236.033L235.655 62.0736H233.541C233.541 62.0736 231.204 60.022 227.052 60.6266C222.899 61.2312 217.989 62.8293 217.536 65.3233C217.474 65.6616 217.394 66.0374 217.3 66.4344C216.164 71.233 218.577 75.7228 221.079 79.9707C221.694 81.0147 224.668 83.2911 224.592 81.7292C224.516 80.1674 221.915 76.6597 223.727 76.433C225.539 76.2063 228.634 71.5961 227.803 68.6487Z" fill="#2F2E41"/>
<path d="M225.533 105.223C223.784 105.083 222.05 104.797 220.348 104.37L220.443 102.561L221.237 88.1811L221.244 88.0708H237.202L239.707 101.311L240.045 103.098C239.384 103.355 238.715 103.598 238.033 103.811C238.025 103.811 238.025 103.818 238.018 103.818C237.07 104.112 236.108 104.37 235.139 104.583C233.849 104.861 232.545 105.063 231.232 105.186C230.217 105.287 229.197 105.336 228.177 105.333C227.295 105.333 226.407 105.296 225.533 105.223Z" fill="#C5B1FF"/>
<path d="M215.273 102.664C214.612 102.378 213.973 102.069 213.342 101.745L213.07 101.606C212.886 101.51 212.695 101.407 212.512 101.304C212.262 101.164 212.02 101.025 211.785 100.885C211.557 100.753 211.322 100.613 211.094 100.473C211.08 100.466 211.072 100.459 211.058 100.459C210.265 99.9514 209.486 99.4294 208.737 98.8633C208.612 98.7678 208.487 98.6722 208.362 98.5766L208.23 96.4593L208.421 96.3416L221.237 88.1811L221.413 88.0708L221.427 88.0635L223.234 88.0708V94.8051C224.255 96.2828 224.945 99.3779 225.371 103.429C225.43 104.01 225.481 104.605 225.533 105.223C223.784 105.083 222.05 104.797 220.348 104.37C220.164 104.333 219.988 104.289 219.804 104.237C218.734 103.957 217.68 103.618 216.647 103.223C216.331 103.105 216.022 102.98 215.714 102.855L215.684 102.841C215.552 102.782 215.405 102.723 215.273 102.664Z" fill="#2F2E41"/>
<path d="M212.512 101.304C212.262 101.165 212.02 101.025 211.785 100.885C211.557 100.753 211.322 100.613 211.094 100.474C211.08 100.466 211.073 100.459 211.058 100.459C210.265 99.9516 209.486 99.4296 208.737 98.8635C208.612 98.7679 208.487 98.6724 208.362 98.5768C208.304 98.5253 208.245 98.4812 208.179 98.4298C207.709 98.0695 207.253 97.6946 206.813 97.2976C206.791 97.2829 206.776 97.2608 206.754 97.2461C207.199 96.9036 207.698 96.6377 208.23 96.4595L208.752 96.6139L212.468 97.7313L212.49 99.2384L212.512 101.304Z" fill="#2F2E41"/>
<path d="M243.805 101.327C243.584 101.444 243.364 101.562 243.144 101.672C243.092 101.702 243.049 101.724 243.005 101.746C242.71 101.893 242.424 102.04 242.131 102.179C242.123 102.187 242.108 102.187 242.108 102.194C242.094 102.201 242.072 102.209 242.057 102.216C241.396 102.532 240.728 102.826 240.045 103.098C239.384 103.356 238.715 103.598 238.033 103.811C238.025 103.811 238.025 103.819 238.018 103.819C237.07 104.113 236.108 104.37 235.139 104.583C235.128 103.979 235.207 103.377 235.374 102.797L235.381 102.694L236.013 92.4602L235.168 88.0712L237.592 87.7109L250.921 94.8937C250.921 94.8937 249.453 96.3641 243.423 99.496C242.89 99.7729 243.673 100.694 243.805 101.327Z" fill="#2F2E41"/>
<path d="M231.07 103.422C230.115 103.51 229.146 103.554 228.177 103.554C227.236 103.554 226.304 103.517 225.371 103.429C225.43 104.01 225.481 104.605 225.533 105.223C226.407 105.296 227.295 105.333 228.177 105.333C229.197 105.336 230.216 105.287 231.232 105.186C232.545 105.063 233.849 104.862 235.139 104.583C235.128 103.979 235.207 103.377 235.374 102.797L235.381 102.694C233.963 103.039 232.523 103.282 231.07 103.422ZM258.823 62.1631C257.271 57.7005 254.766 53.6304 251.481 50.2368C248.196 46.8431 244.212 44.2075 239.805 42.5138C235.398 40.8201 230.676 40.109 225.966 40.4301C221.257 40.7512 216.674 42.0968 212.537 44.373C208.401 46.6493 204.81 49.8014 202.015 53.6096C199.221 57.4178 197.29 61.7903 196.356 66.4224C195.423 71.0545 195.511 75.8346 196.613 80.4293C197.715 85.0241 199.805 89.3229 202.737 93.0261C203.03 93.3937 203.332 93.7613 203.64 94.1142C203.669 94.1436 203.684 94.1656 203.706 94.1877C204.464 95.063 205.271 95.8951 206.122 96.6799C206.328 96.8711 206.541 97.0623 206.754 97.2461C206.776 97.2607 206.791 97.2828 206.812 97.2975C207.253 97.6945 207.709 98.0694 208.178 98.4297C208.245 98.4812 208.304 98.5253 208.362 98.5767C208.487 98.6723 208.612 98.7679 208.737 98.8634C209.486 99.4295 210.264 99.9515 211.058 100.459C211.072 100.459 211.079 100.466 211.094 100.473C211.322 100.613 211.557 100.753 211.784 100.885C212.02 101.025 212.262 101.165 212.512 101.304C212.695 101.407 212.886 101.51 213.07 101.606L213.341 101.745C213.973 102.069 214.612 102.378 215.273 102.664C215.405 102.723 215.552 102.782 215.684 102.841L215.714 102.855C216.022 102.98 216.33 103.105 216.646 103.223C217.68 103.619 218.734 103.957 219.804 104.238C219.988 104.289 220.164 104.333 220.348 104.37C222.05 104.797 223.784 105.083 225.533 105.223C226.407 105.296 227.295 105.333 228.177 105.333C229.197 105.336 230.216 105.287 231.232 105.186C232.545 105.063 233.849 104.862 235.139 104.583C236.108 104.37 237.07 104.113 238.018 103.819C238.025 103.819 238.025 103.811 238.032 103.811C238.715 103.598 239.384 103.355 240.045 103.098C240.728 102.826 241.396 102.532 242.057 102.216C242.072 102.209 242.094 102.201 242.108 102.194C242.108 102.186 242.123 102.186 242.13 102.179C242.424 102.039 242.71 101.892 243.004 101.745C243.049 101.723 243.092 101.701 243.144 101.672C243.364 101.562 243.584 101.444 243.805 101.326C243.819 101.319 243.827 101.312 243.841 101.304C244.422 100.981 244.995 100.643 245.56 100.282C245.714 100.187 245.869 100.091 246.023 99.9809C246.25 99.8412 246.471 99.6869 246.684 99.5325C246.97 99.334 247.256 99.1281 247.536 98.9149C247.628 98.8553 247.717 98.7889 247.8 98.7164C248.483 98.2018 249.144 97.6578 249.775 97.0843C254.565 92.8121 257.981 87.2139 259.592 80.9978C261.202 74.7817 260.935 68.2271 258.823 62.1631L258.823 62.1631ZM249.225 95.1876C248.43 95.9363 247.596 96.643 246.728 97.3049C246.537 97.4519 246.338 97.5989 246.14 97.7313C245.949 97.8783 245.758 98.018 245.56 98.1503C245.391 98.268 245.222 98.3856 245.046 98.4959C245.031 98.5105 245.009 98.5179 244.995 98.5326C244.87 98.6208 244.738 98.7017 244.613 98.7826C244.223 99.0252 243.82 99.2678 243.423 99.4957C243.328 99.5472 243.239 99.606 243.144 99.6574C243.092 99.6869 243.041 99.7163 242.982 99.7456C242.762 99.8707 242.541 99.9809 242.321 100.099C242.292 100.121 242.255 100.128 242.226 100.15C242.215 100.152 242.205 100.157 242.197 100.165C242.042 100.246 241.888 100.319 241.734 100.393C241.602 100.459 241.477 100.525 241.345 100.584C240.808 100.841 240.258 101.084 239.707 101.312C239.127 101.547 238.539 101.76 237.944 101.959C237.797 102.01 237.643 102.069 237.489 102.113C236.791 102.333 236.094 102.532 235.381 102.694C233.963 103.039 232.523 103.282 231.07 103.422C230.115 103.51 229.146 103.554 228.177 103.554C227.237 103.554 226.304 103.517 225.371 103.429C223.707 103.277 222.059 102.986 220.443 102.561C220.384 102.547 220.318 102.532 220.26 102.517C218.934 102.171 217.636 101.729 216.375 101.194C216.309 101.165 216.235 101.142 216.176 101.113C216.103 101.084 216.037 101.062 215.978 101.032C215.904 101.003 215.838 100.973 215.772 100.944C215.222 100.701 214.686 100.437 214.149 100.165L213.9 100.032C213.422 99.7824 212.952 99.5251 212.49 99.2383C212.328 99.1501 212.159 99.0472 211.998 98.9443C211.814 98.834 211.63 98.7164 211.454 98.5987C211.41 98.5693 211.366 98.5399 211.322 98.5105C210.911 98.2312 210.492 97.9518 210.096 97.6504C209.817 97.4445 209.545 97.246 209.273 97.0328C209.096 96.9005 208.92 96.7608 208.751 96.6138C208.641 96.5329 208.531 96.4373 208.421 96.3418C208.274 96.2168 208.127 96.0918 207.98 95.9595C207.753 95.7757 207.54 95.5698 207.334 95.3787C206.507 94.6158 205.725 93.8057 204.991 92.9525C204.742 92.6732 204.506 92.3938 204.279 92.0998C204.226 92.0418 204.177 91.9804 204.132 91.916C200.435 87.2436 198.176 81.595 197.631 75.6593C197.086 69.7237 198.278 63.7575 201.062 58.4887C203.847 53.2198 208.103 48.8762 213.312 45.9875C218.52 43.0989 224.456 41.7902 230.395 42.221C236.334 42.6519 242.019 44.8038 246.757 48.414C251.495 52.0243 255.081 56.937 257.077 62.5526C259.074 68.1683 259.394 74.2443 258 80.0393C256.605 85.8342 253.556 91.0977 249.225 95.1875L249.225 95.1876Z" fill="#3F3D56"/>
<path d="M79.2038 240.962L85.1452 240.961L87.9715 218.021L79.2029 218.021L79.2038 240.962Z" fill="#A0616A"/>
<path d="M77.6885 239.02L89.389 239.019H89.3895C91.3671 239.019 93.2636 239.806 94.662 241.205C96.0603 242.605 96.846 244.504 96.8461 246.483V246.726L77.6888 246.727L77.6885 239.02Z" fill="#2F2E41"/>
<path d="M101.496 240.962L107.438 240.961L110.264 218.021L101.495 218.021L101.496 240.962Z" fill="#A0616A"/>
<path d="M99.9808 239.02L111.681 239.019H111.682C113.659 239.019 115.556 239.806 116.954 241.205C118.353 242.605 119.138 244.504 119.138 246.483V246.726L99.9812 246.727L99.9808 239.02Z" fill="#2F2E41"/>
<path d="M61.1764 150.312C61.6627 149.791 62.0288 149.169 62.2491 148.491C62.4695 147.813 62.5385 147.094 62.4515 146.386C62.3645 145.679 62.1235 144.998 61.7455 144.394C61.3675 143.789 60.8617 143.275 60.2637 142.887L64.3918 126.051L55.9147 129.075L53.2942 144.599C52.7103 145.648 52.5309 146.875 52.7901 148.047C53.0493 149.22 53.7292 150.256 54.7007 150.96C55.6723 151.664 56.8682 151.987 58.0617 151.868C59.2552 151.748 60.3634 151.195 61.1764 150.312Z" fill="#9E616A"/>
<path d="M124.245 148.856C123.759 148.335 123.392 147.713 123.172 147.035C122.952 146.357 122.883 145.639 122.97 144.931C123.057 144.223 123.298 143.543 123.676 142.938C124.054 142.334 124.56 141.82 125.158 141.432L121.03 124.596L129.507 127.619L132.127 143.144C132.711 144.193 132.89 145.419 132.631 146.592C132.372 147.764 131.692 148.801 130.721 149.505C129.749 150.209 128.553 150.532 127.36 150.412C126.166 150.293 125.058 149.739 124.245 148.856Z" fill="#9E616A"/>
<path d="M68.9934 138.51L77.2285 235.082L89.278 233.982L94.1004 159.345L98.3932 188.898L99.2529 235.842L110.157 235.114L116.212 184.613L114.726 135.704L73.3317 131.507L68.9934 138.51Z" fill="#2F2E41"/>
<path d="M91.6468 50.6317C98.5483 50.6317 104.143 45.0311 104.143 38.1224C104.143 31.2137 98.5483 25.613 91.6468 25.613C84.7454 25.613 79.1506 31.2137 79.1506 38.1224C79.1506 45.0311 84.7454 50.6317 91.6468 50.6317Z" fill="#A0616A"/>
<path d="M87.6898 28.1149C87.6898 28.1149 93.5213 29.6785 96.5413 30.304C99.5612 30.9295 99.2488 29.1573 99.2488 29.1573C99.2488 29.1573 103.206 29.6785 102.998 29.2616C102.789 28.8446 104.664 26.6554 102.477 24.1536C100.29 21.6517 100.915 19.7753 100.915 19.7753H99.0405L98.5198 19.0456H95.604C95.604 19.0456 92.3803 16.2158 86.6529 17.0498C80.9255 17.8837 74.1522 20.088 73.5274 23.5281C73.4426 23.9947 73.3311 24.5131 73.2015 25.0606C71.6354 31.6795 74.963 37.8725 78.4144 43.7317C79.2626 45.1717 83.3655 48.3117 83.2606 46.1574C83.1556 44.003 79.5672 39.1648 82.0665 38.8521C84.5657 38.5393 88.8353 32.1804 87.6898 28.1149Z" fill="#2F2E41"/>
<path d="M78.6433 54.905H100.651L116.212 137.17C116.212 137.17 102.645 138.332 94.8913 141.242C87.1375 144.153 74.2474 134.593 74.2474 134.593L78.6433 54.905Z" fill="#C5B1FF"/>
<path d="M81.3908 64.1949V54.9049L78.899 54.8896L60.6935 66.4769L64.6439 129.962C64.6439 129.962 69.3195 151.142 76.4112 150.922C83.5029 150.702 88.9711 75.1981 81.3908 64.1949Z" fill="#2F2E41"/>
<path d="M66.5413 68.2308L60.6934 66.4771C60.6934 66.4771 56.3643 67.7457 56.3643 72.1118C56.3643 76.4779 52.6343 138.51 52.6343 138.51L64.4835 139.558L67.0259 108.011L66.5413 68.2308Z" fill="#2F2E41"/>
<path d="M99.0106 60.9538L97.8449 54.9049L101.191 54.4045L113.307 59.2558C113.307 59.2558 124.211 139.059 119.365 141.485C114.518 143.91 111.246 142.031 111.246 142.031C111.246 142.031 95.3066 83.1726 98.1278 75.2165L99.0106 60.9538Z" fill="#2F2E41"/>
<path d="M104.826 60.4686L106.894 59.5677C106.894 59.5677 112.963 56.5571 116.406 62.6364C119.849 68.7158 131.965 136.634 131.965 136.634L121.996 138.51L114.543 114.067L104.826 60.4686Z" fill="#2F2E41"/>
<path d="M185.124 247H0.484617C0.356088 247 0.232824 246.949 0.141941 246.858C0.0510573 246.767 0 246.644 0 246.515C0 246.386 0.0510573 246.263 0.141941 246.172C0.232824 246.081 0.356088 246.03 0.484617 246.03H185.124C185.252 246.03 185.375 246.081 185.466 246.172C185.557 246.263 185.608 246.386 185.608 246.515C185.608 246.644 185.557 246.767 185.466 246.858C185.375 246.949 185.252 247 185.124 247Z" fill="#CACACA"/>
</svg>
