<svg width="321" height="336" viewBox="0 0 321 336" fill="none" xmlns="http://www.w3.org/2000/svg">
<path d="M124.174 336C192.753 336 248.347 326.176 248.347 314.056C248.347 301.937 192.753 292.113 124.174 292.113C55.5944 292.113 0 301.937 0 314.056C0 326.176 55.5944 336 124.174 336Z" fill="#3F3D56"/>
<path d="M199.643 242.79C266.666 242.79 320.999 188.439 320.999 121.395C320.999 54.3503 266.666 0 199.643 0C132.62 0 78.2871 54.3503 78.2871 121.395C78.2871 188.439 132.62 242.79 199.643 242.79Z" fill="#E9C547" fill-opacity="0.2"/>
<path opacity="0.05" d="M199.644 221.61C254.974 221.61 299.828 176.742 299.828 121.395C299.828 66.0476 254.974 21.1797 199.644 21.1797C144.315 21.1797 99.4609 66.0476 99.4609 121.395C99.4609 176.742 144.315 221.61 199.644 221.61Z" fill="#E9C547"/>
<path opacity="0.05" d="M199.644 203.53C244.992 203.53 281.753 166.757 281.753 121.395C281.753 76.033 244.992 39.2598 199.644 39.2598C154.297 39.2598 117.535 76.033 117.535 121.395C117.535 166.757 154.297 203.53 199.644 203.53Z" fill="#E9C547"/>
<path opacity="0.05" d="M199.644 180.284C232.157 180.284 258.515 153.918 258.515 121.395C258.515 88.871 232.157 62.5054 199.644 62.5054C167.131 62.5054 140.773 88.871 140.773 121.395C140.773 153.918 167.131 180.284 199.644 180.284Z" fill="#E9C547"/>
<path d="M79.3635 132.259C79.3635 132.259 69.8225 159.124 74.063 168.668C78.3034 178.212 85.0175 187.402 85.0175 187.402C85.0175 187.402 82.5439 134.026 79.3635 132.259Z" fill="#D0CDE1"/>
<path opacity="0.1" d="M79.3635 132.259C79.3635 132.259 69.8225 159.124 74.063 168.668C78.3034 178.212 85.0175 187.402 85.0175 187.402C85.0175 187.402 82.5439 134.026 79.3635 132.259Z" fill="black"/>
<path d="M86.0775 194.472C86.0775 194.472 85.3708 201.188 85.0174 201.542C84.664 201.895 85.3708 202.602 85.0174 203.663C84.664 204.723 84.3106 206.137 85.0174 206.491C85.7241 206.844 81.1303 237.951 81.1303 237.951C81.1303 237.951 69.8224 252.797 74.4163 276.127L75.8297 299.81C75.8297 299.81 86.7842 300.517 86.7842 296.629C86.7842 296.629 86.0775 292.034 86.0775 289.913C86.0775 287.792 87.8444 287.792 86.7842 286.731C85.7241 285.671 85.7241 284.964 85.7241 284.964C85.7241 284.964 87.491 283.55 87.1376 283.197C86.7843 282.843 90.318 257.746 90.318 257.746C90.318 257.746 94.205 253.857 94.205 251.736V249.616C94.205 249.616 95.9719 245.02 95.9719 244.667C95.9719 244.313 105.513 222.751 105.513 222.751L109.4 238.304L113.64 260.574C113.64 260.574 115.761 280.722 120.001 288.499C120.001 288.499 127.422 313.95 127.422 313.243C127.422 312.536 139.79 310.768 139.437 307.587C139.083 304.406 132.016 259.867 132.016 259.867L133.783 193.765L86.0775 194.472Z" fill="#2F2E41"/>
<path d="M76.5348 298.043C76.5348 298.043 66.9938 316.778 73.3545 317.485C79.7151 318.192 82.1887 318.192 85.0157 315.364C86.5612 313.818 89.6909 311.744 92.2108 310.181C93.7039 309.27 94.91 307.956 95.6909 306.391C96.4718 304.825 96.7958 303.071 96.6259 301.33C96.4395 299.601 95.7935 298.176 94.2033 298.043C89.9629 297.69 85.0157 293.801 85.0157 293.801L76.5348 298.043Z" fill="#2F2E41"/>
<path d="M129.187 311.829C129.187 311.829 119.646 330.563 126.007 331.27C132.367 331.977 134.841 331.977 137.668 329.149C139.214 327.603 142.343 325.529 144.863 323.966C146.356 323.055 147.562 321.742 148.343 320.176C149.124 318.611 149.448 316.857 149.278 315.116C149.092 313.386 148.446 311.961 146.856 311.829C142.615 311.475 137.668 307.587 137.668 307.587L129.187 311.829Z" fill="#2F2E41"/>
<path d="M119.104 101.6C127.308 101.6 133.959 94.9475 133.959 86.741C133.959 78.5345 127.308 71.8818 119.104 71.8818C110.901 71.8818 104.25 78.5345 104.25 86.741C104.25 94.9475 110.901 101.6 119.104 101.6Z" fill="#FFB8B8"/>
<path d="M109.556 91.623C109.556 91.623 98.9455 111.152 98.0967 111.152C97.2478 111.152 117.195 117.52 117.195 117.52C117.195 117.52 122.713 98.8403 123.561 97.1422L109.556 91.623Z" fill="#FFB8B8"/>
<path d="M125.83 112.994C125.83 112.994 104.628 101.329 102.508 101.683C100.388 102.036 77.7718 121.831 78.1252 129.961C78.4786 138.092 81.3055 151.524 81.3055 151.524C81.3055 151.524 82.3656 188.993 84.4859 189.347C86.6061 189.7 84.1325 196.063 84.8392 196.063C85.546 196.063 134.311 196.063 134.665 195.002C135.018 193.942 125.83 112.994 125.83 112.994Z" fill="#D0CDE1"/>
<path d="M137.669 196.946C137.669 196.946 144.383 217.448 138.729 216.741C133.075 216.034 130.602 199.067 130.602 199.067L137.669 196.946Z" fill="#FFB8B8"/>
<path d="M119.646 111.757C119.646 111.757 106.571 114.585 108.692 132.259C110.812 149.933 114.699 167.607 114.699 167.607L127.774 196.24L129.187 201.542L138.728 199.067L131.661 158.063C131.661 158.063 129.187 114.231 126.007 112.817C124.001 111.962 121.82 111.598 119.646 111.757V111.757Z" fill="#D0CDE1"/>
<path opacity="0.1" d="M111.695 167.077L127.951 196.062L114.255 165.52L111.695 167.077Z" fill="black"/>
<path d="M133.892 82.3654L133.941 81.2299L136.199 81.7921C136.175 81.4276 136.072 81.0727 135.897 80.7519C135.722 80.431 135.48 80.152 135.187 79.9339L137.592 79.7994C135.574 76.9303 132.995 74.5002 130.012 72.6559C127.029 70.8115 123.702 69.5912 120.234 69.0686C115.032 68.3143 109.239 69.4058 105.671 73.2683C103.94 75.1417 102.853 77.5242 102.08 79.9548C100.655 84.4314 100.365 89.7678 103.335 93.4066C106.354 97.1049 111.628 97.8293 116.379 98.287C118.051 98.4481 119.803 98.5979 121.352 97.9491C121.524 96.1716 121.297 94.3781 120.686 92.7C120.432 92.1805 120.31 91.606 120.332 91.028C120.544 89.6141 122.429 89.2579 123.845 89.4489C125.262 89.64 126.965 89.9322 127.895 88.8473C128.536 88.0999 128.499 87.0117 128.583 86.0305C128.815 83.3596 133.868 82.9254 133.892 82.3654Z" fill="#2F2E41"/>
<path d="M225.001 317.076C234.56 317.076 242.309 309.324 242.309 299.763C242.309 290.201 234.56 282.449 225.001 282.449C215.442 282.449 207.693 290.201 207.693 299.763C207.693 309.324 215.442 317.076 225.001 317.076Z" fill="#C5B1FF"/>
<path d="M21.7356 311.036C31.2944 311.036 39.0434 303.285 39.0434 293.723C39.0434 284.161 31.2944 276.41 21.7356 276.41C12.1767 276.41 4.42773 284.161 4.42773 293.723C4.42773 303.285 12.1767 311.036 21.7356 311.036Z" fill="#C5B1FF"/>
<path d="M21.7356 283.254C28.6268 283.254 34.2133 277.666 34.2133 270.773C34.2133 263.879 28.6268 258.291 21.7356 258.291C14.8443 258.291 9.25781 263.879 9.25781 270.773C9.25781 277.666 14.8443 283.254 21.7356 283.254Z" fill="#C5B1FF"/>
<path d="M21.736 260.304C26.6266 260.304 30.5912 256.338 30.5912 251.446C30.5912 246.554 26.6266 242.588 21.736 242.588C16.8455 242.588 12.8809 246.554 12.8809 251.446C12.8809 256.338 16.8455 260.304 21.736 260.304Z" fill="#C5B1FF"/>
</svg>
