<svg width="50" height="50" viewBox="0 0 50 50" fill="none" xmlns="http://www.w3.org/2000/svg">
<path d="M9.37435 17.8171C9.37435 21.9733 12.5098 25.1087 16.666 25.1087C20.8223 25.1087 23.9577 21.9733 23.9577 17.8171C23.9577 13.6608 20.8223 10.5254 16.666 10.5254C12.5098 10.5254 9.37435 13.6608 9.37435 17.8171ZM39.5827 16.6671H35.416V22.9171H29.166V27.0837H35.416V33.3337H39.5827V27.0837H45.8327V22.9171H39.5827V16.6671ZM8.33268 39.5837H29.166V37.5004C29.166 31.7566 24.4931 27.0837 18.7493 27.0837H14.5827C8.83893 27.0837 4.16602 31.7566 4.16602 37.5004V39.5837H8.33268Z" fill="white"/>
</svg>
