<svg width="50" height="50" viewBox="0 0 50 50" fill="none" xmlns="http://www.w3.org/2000/svg">
<path d="M30.9243 41.667H13.541C10.6681 41.667 8.33268 39.3316 8.33268 36.4587C8.33268 33.5857 10.6681 31.2503 13.541 31.2503H28.1243C32.1452 31.2503 35.416 27.9795 35.416 23.9587C35.416 19.9378 32.1452 16.667 28.1243 16.667H17.9973C17.2322 18.1667 16.2847 19.5662 15.1764 20.8337H28.1243C29.8473 20.8337 31.2493 22.2357 31.2493 23.9587C31.2493 25.6816 29.8473 27.0837 28.1243 27.0837H13.541C8.37226 27.0837 4.16602 31.2899 4.16602 36.4587C4.16602 41.6274 8.37226 45.8337 13.541 45.8337H33.5264C32.5041 44.5477 31.6312 43.1499 30.9243 41.667ZM10.416 4.16699C6.97018 4.16699 4.16602 6.97116 4.16602 10.417C4.16602 17.0587 10.416 20.8337 10.416 20.8337C10.416 20.8337 16.666 17.0566 16.666 10.417C16.666 6.97116 13.8618 4.16699 10.416 4.16699ZM10.416 13.542C10.0055 13.5419 9.59903 13.4609 9.21981 13.3036C8.84059 13.1464 8.49606 12.916 8.20587 12.6257C7.91569 12.3353 7.68554 11.9906 7.52857 11.6113C7.3716 11.232 7.29088 10.8254 7.29102 10.4149C7.29115 10.0044 7.37214 9.59792 7.52937 9.2187C7.68659 8.83949 7.91697 8.49495 8.20735 8.20477C8.49772 7.91459 8.84241 7.68444 9.22173 7.52747C9.60106 7.37049 10.0076 7.28977 10.4181 7.28991C11.2472 7.29019 12.0422 7.6198 12.6282 8.20624C13.2143 8.79268 13.5434 9.58791 13.5431 10.417C13.5428 11.2461 13.2132 12.0411 12.6268 12.6271C12.0403 13.2132 11.2451 13.5423 10.416 13.542Z" fill="white"/>
<path d="M39.584 29.167C36.1382 29.167 33.334 31.9712 33.334 35.417C33.334 42.0587 39.584 45.8337 39.584 45.8337C39.584 45.8337 45.834 42.0566 45.834 35.417C45.834 31.9712 43.0298 29.167 39.584 29.167ZM39.584 38.542C39.1735 38.5419 38.767 38.4609 38.3878 38.3036C38.0086 38.1464 37.664 37.916 37.3738 37.6257C37.0837 37.3353 36.8535 36.9906 36.6965 36.6113C36.5396 36.2319 36.4588 35.8254 36.459 35.4149C36.4591 35.0044 36.5401 34.5979 36.6973 34.2187C36.8546 33.8395 37.0849 33.495 37.3753 33.2048C37.6657 32.9146 38.0104 32.6844 38.3897 32.5275C38.769 32.3705 39.1755 32.2898 39.5861 32.2899C40.4151 32.2902 41.2102 32.6198 41.7962 33.2062C42.3823 33.7927 42.7113 34.5879 42.7111 35.417C42.7108 36.2461 42.3812 37.0411 41.7947 37.6271C41.2083 38.2132 40.4131 38.5423 39.584 38.542Z" fill="white"/>
</svg>
