<svg width="19" height="19" viewBox="0 0 19 19" fill="#FFFFFF" xmlns="http://www.w3.org/2000/svg">
<path d="M16.1283 14.9631C17.0479 13.8567 17.6875 12.5451 17.9929 11.1393C18.2984 9.73343 18.2608 8.2747 17.8832 6.88647C17.5057 5.49825 16.7994 4.22137 15.824 3.16386C14.8486 2.10635 13.6328 1.29932 12.2796 0.811039C10.9263 0.322756 9.4754 0.167586 8.0495 0.358655C6.6236 0.549724 5.26469 1.08141 4.08773 1.90874C2.91077 2.73607 1.95038 3.8347 1.28782 5.11169C0.62525 6.38868 0.279993 7.80647 0.281253 9.24512C0.281737 11.3365 1.01873 13.3609 2.36291 14.9631L2.3501 14.974C2.39492 15.0278 2.44615 15.0739 2.49225 15.127C2.54988 15.193 2.61199 15.2551 2.67154 15.3191C2.85083 15.5138 3.03524 15.7007 3.22861 15.8762C3.28752 15.93 3.34835 15.9799 3.4079 16.0311C3.6128 16.2079 3.82346 16.3756 4.04181 16.5319C4.06998 16.5511 4.09559 16.5761 4.12377 16.5959V16.5882C5.62345 17.6436 7.41248 18.21 9.24627 18.21C11.0801 18.21 12.8691 17.6436 14.3688 16.5882V16.5959C14.3969 16.5761 14.4219 16.5511 14.4507 16.5319C14.6684 16.375 14.8797 16.2079 15.0846 16.0311C15.1442 15.9799 15.205 15.9293 15.2639 15.8762C15.4573 15.7001 15.6417 15.5138 15.821 15.3191C15.8805 15.2551 15.942 15.193 16.0003 15.127C16.0457 15.0739 16.0976 15.0278 16.1424 14.9734L16.1283 14.9631ZM9.24563 4.12262C9.81552 4.12262 10.3726 4.29161 10.8465 4.60822C11.3203 4.92483 11.6896 5.37485 11.9077 5.90136C12.1258 6.42786 12.1828 7.00722 12.0717 7.56616C11.9605 8.1251 11.6861 8.63851 11.2831 9.04148C10.8801 9.44446 10.3667 9.71888 9.80776 9.83006C9.24882 9.94124 8.66947 9.88418 8.14296 9.66609C7.61645 9.44801 7.16644 9.07869 6.84983 8.60485C6.53321 8.131 6.36422 7.57391 6.36422 7.00402C6.36422 6.23983 6.6678 5.50693 7.20817 4.96656C7.74853 4.42619 8.48143 4.12262 9.24563 4.12262ZM4.12761 14.9631C4.13872 14.1224 4.48039 13.3198 5.0787 12.729C5.67702 12.1383 6.48387 11.8068 7.32469 11.8064H11.1666C12.0074 11.8068 12.8142 12.1383 13.4126 12.729C14.0109 13.3198 14.3525 14.1224 14.3636 14.9631C12.9593 16.2286 11.136 16.9289 9.24563 16.9289C7.35526 16.9289 5.53192 16.2286 4.12761 14.9631Z" fill="#787878"/>
</svg>
