<svg width="39" height="39" viewBox="0 0 39 39" fill="none" xmlns="http://www.w3.org/2000/svg">
<g clip-path="url(#clip0_430_2612)">
<path d="M19.4793 0C8.71806 0.0117 0 8.73834 0 19.5C0 30.2695 8.73054 39 19.5 39C30.2695 39 39 30.2695 39 19.5C38.992 16.6481 38.3586 13.8328 37.1444 11.2523L37.1268 11.2675L36.084 12.31L37.1042 17.0929C37.2068 18.0316 37.0247 18.3975 36.6319 19.0546C35.7384 19.9774 34.6648 20.124 33.7186 19.6154L31.6914 18.525H30.8307C30.8244 18.3347 30.8139 18.1463 30.8045 17.9575L29.4286 17.2048L28.8335 17.5621C28.8541 17.8807 28.8713 18.2017 28.883 18.525H26.9018L25.2404 19.5215C24.6905 19.8514 24.0536 19.9543 23.3961 19.8709C22.5584 19.6447 22.0841 19.1521 21.8482 18.525H20.475V12.0393H22.1933L18.525 8.26878V10.0885H11.9925C12.3778 8.98755 12.8232 7.97121 13.3216 7.06602C14.7771 4.42299 16.6027 2.76978 18.525 2.2932V6.05085C18.9111 5.39097 19.6423 5.06259 20.475 4.8867V2.21598C21.7971 2.44062 23.081 3.22491 24.2408 4.50177L25.1183 4.37658L26.5785 1.33146C24.3221 0.451951 21.9217 0.000429768 19.5 0L19.4793 0ZM14.0322 2.82048C13.1258 3.73776 12.3123 4.85628 11.613 6.12573C10.9578 7.31523 10.3943 8.64786 9.93135 10.0889H4.6839C6.84255 6.69357 10.1341 4.09461 14.0322 2.82048ZM3.60984 12.0393H9.38496C8.89941 14.0525 8.60184 16.2357 8.52579 18.5254H1.97808C2.09922 16.2786 2.65329 14.0763 3.60984 12.0397V12.0393ZM11.3997 12.0393H18.525V18.525H10.4781C10.5608 16.2104 10.8849 14.0189 11.3997 12.0393ZM1.97808 20.475H8.51526C8.56557 22.7588 8.83506 24.9421 9.29292 26.9607H3.60984C2.65329 24.9241 2.09922 22.7218 1.97808 20.475ZM10.4653 20.475H18.525V26.9607H11.3022C10.8166 24.9717 10.5199 22.7818 10.4653 20.475ZM20.475 20.475H28.8959C28.8413 22.7818 28.5441 24.9717 28.0585 26.9607H20.475V20.475ZM30.8396 20.475H37.0219C36.9008 22.7218 36.3467 24.9241 35.3902 26.9607H30.0651C30.5214 24.9417 30.7893 22.7584 30.8396 20.475ZM4.6839 28.9107H9.80694C10.2913 30.5038 10.8989 31.9683 11.613 33.265C12.1739 34.2829 12.8095 35.203 13.5061 36.0017C9.83736 34.6718 6.74505 32.1528 4.6839 28.9111V28.9107ZM11.8576 28.9107H18.525V37.0219C18.4049 37.0153 18.2863 37.0032 18.167 36.9946C16.3769 36.4096 14.6866 34.8028 13.3216 32.3244C12.7647 31.3127 12.2717 30.1649 11.8576 28.9111V28.9107ZM20.475 28.9107H27.5032C27.0898 30.1649 26.5964 31.3127 26.0395 32.3244C24.7026 34.7521 23.0537 36.3445 21.3045 36.9587C21.0286 36.9863 20.752 37.0073 20.475 37.0219V28.9107ZM29.5522 28.9107H34.3161C32.3441 32.0136 29.4486 34.4198 26.0372 35.7907C26.6627 35.0419 27.2364 34.194 27.7477 33.265C28.4618 31.9683 29.069 30.5038 29.5522 28.9111V28.9107Z" fill="white"/>
<path d="M29.3805 -0.000202389C29.2702 -0.00152044 29.1617 0.0283929 29.0677 0.0860841C28.9736 0.143775 28.8978 0.226892 28.849 0.325838L26.1915 5.71135L20.2483 6.57442C20.1404 6.59022 20.039 6.63589 19.9556 6.70627C19.8723 6.77665 19.8103 6.86893 19.7766 6.97269C19.7429 7.07646 19.739 7.18757 19.7651 7.29348C19.7913 7.39938 19.8465 7.49587 19.9246 7.57204L24.2247 11.7638L23.2099 17.6832C23.1916 17.7907 23.2037 17.9012 23.2449 18.0022C23.2861 18.1032 23.3547 18.1907 23.4429 18.2548C23.5312 18.3189 23.6356 18.357 23.7444 18.3649C23.8532 18.3728 23.962 18.3501 24.0586 18.2994L29.3739 15.5054L34.6892 18.2994C34.7858 18.3502 34.8947 18.373 35.0035 18.3652C35.1124 18.3573 35.2169 18.3192 35.3052 18.2551C35.3935 18.191 35.4622 18.1035 35.5033 18.0024C35.5445 17.9013 35.5566 17.7908 35.5382 17.6832L34.5231 11.7638L38.8236 7.57204C38.9017 7.49582 38.9569 7.39927 38.983 7.2933C39.0092 7.18734 39.0051 7.07618 38.9714 6.9724C38.9376 6.86862 38.8755 6.77635 38.792 6.70602C38.7086 6.63569 38.6071 6.5901 38.4991 6.57442L32.5563 5.71135L29.8984 0.325838C29.8506 0.228973 29.7769 0.147237 29.6855 0.0896886C29.5941 0.0321404 29.4885 0.00102743 29.3805 -0.000202389Z" fill="white"/>
</g>
<defs>
<clipPath id="clip0_430_2612">
<rect width="39" height="39" fill="white"/>
</clipPath>
</defs>
</svg>
