<svg width="39" height="39" viewBox="0 0 39 39" fill="none" xmlns="http://www.w3.org/2000/svg">
<path d="M39 12.1875C39 14.3965 38.4541 16.4404 37.3623 18.3193C36.2705 20.1982 34.7915 21.6772 32.9253 22.7563C31.0591 23.8354 29.0215 24.375 26.8125 24.375H25.5938C23.1562 25.4668 21.9375 27.0918 21.9375 29.25C21.9375 31.8398 22.9531 33.6045 24.9844 34.5439C26.3047 34.7725 27.3457 35.0645 28.1074 35.4199C28.8691 35.7754 29.25 36.1562 29.25 36.5625C29.25 37.248 28.2979 37.8257 26.3936 38.2954C24.4893 38.7651 22.1914 39 19.5 39C16.8086 39 14.5107 38.7651 12.6064 38.2954C10.7021 37.8257 9.75 37.248 9.75 36.5625C9.75 36.1562 10.1309 35.7754 10.8926 35.4199C11.6543 35.0645 12.6953 34.7725 14.0156 34.5439C16.0469 33.6045 17.0625 31.8398 17.0625 29.25C17.0625 27.0918 15.8438 25.4668 13.4062 24.375H12.1875C9.97852 24.375 7.94092 23.8354 6.07471 22.7563C4.2085 21.6772 2.72949 20.1982 1.6377 18.3193C0.545898 16.4404 0 14.3965 0 12.1875C0 9.75 0.666504 7.64258 1.99951 5.86523C3.33252 4.08789 5.11621 2.81836 7.35059 2.05664C7.3252 1.26953 7.3125 0.583984 7.3125 0H31.6875C31.6875 0.609375 31.6748 1.29492 31.6494 2.05664C33.8838 2.81836 35.6675 4.08789 37.0005 5.86523C38.3335 7.64258 39 9.75 39 12.1875ZM7.80762 7.16016C5.85254 8.25195 4.875 9.92773 4.875 12.1875C4.875 14.1426 5.5542 15.8247 6.9126 17.2339C8.271 18.6431 9.91504 19.3857 11.8447 19.4619C9.86426 16.3896 8.51855 12.2891 7.80762 7.16016ZM21.709 7.35059L19.5 2.4375L17.291 7.35059L12.1875 8.03613L15.958 11.7305L14.9678 17.0625L19.5 14.4727L24.0322 17.0625L23.042 11.7305L26.8125 8.03613L21.709 7.35059ZM31.1924 7.16016C30.4814 12.2891 29.1357 16.3896 27.1553 19.4619C29.085 19.3857 30.729 18.6431 32.0874 17.2339C33.4458 15.8247 34.125 14.1426 34.125 12.1875C34.125 9.92773 33.1475 8.25195 31.1924 7.16016Z" fill="white"/>
</svg>
