<svg width="21" height="21" viewBox="0 0 21 21" fill="none" xmlns="http://www.w3.org/2000/svg">
<path d="M11.7988 18.7825H8.69117C8.49646 18.7826 8.30759 18.716 8.15587 18.594C8.00416 18.4719 7.89873 18.3017 7.85706 18.1115L7.50958 16.503C7.04605 16.2999 6.60652 16.0459 6.19908 15.7457L4.63074 16.2452C4.4451 16.3044 4.2448 16.2983 4.0631 16.2279C3.88139 16.1576 3.72922 16.0272 3.63185 15.8584L2.07461 13.1683C1.97826 12.9993 1.94209 12.8027 1.97203 12.6105C2.00196 12.4184 2.09622 12.2421 2.23939 12.1105L3.45598 11.0006C3.40065 10.4978 3.40065 9.99051 3.45598 9.48774L2.23939 8.38043C2.09602 8.24876 2.00163 8.07229 1.97169 7.87995C1.94175 7.6876 1.97804 7.4908 2.07461 7.32178L3.62844 4.62991C3.72581 4.46113 3.87798 4.33074 4.05968 4.26039C4.24139 4.19004 4.44169 4.18396 4.62732 4.24316L6.19566 4.7426C6.40398 4.58893 6.62083 4.4455 6.84451 4.31573C7.06051 4.19449 7.28249 4.08436 7.50958 3.98618L7.85791 2.37942C7.89938 2.1892 8.00462 2.01887 8.15617 1.89667C8.30772 1.77446 8.49649 1.70772 8.69117 1.70752H11.7988C11.9935 1.70772 12.1823 1.77446 12.3338 1.89667C12.4854 2.01887 12.5906 2.1892 12.6321 2.37942L12.9838 3.98703C13.4468 4.19131 13.8862 4.44522 14.2943 4.74431L15.8635 4.24486C16.049 4.18588 16.2492 4.19208 16.4307 4.26242C16.6122 4.33276 16.7642 4.46302 16.8616 4.63161L18.4154 7.32349C18.6135 7.67096 18.5452 8.11064 18.2506 8.38128L17.034 9.49116C17.0893 9.99392 17.0893 10.5012 17.034 11.004L18.2506 12.1139C18.5452 12.3854 18.6135 12.8242 18.4154 13.1717L16.8616 15.8635C16.7642 16.0323 16.612 16.1627 16.4303 16.2331C16.2486 16.3034 16.0483 16.3095 15.8627 16.2503L14.2943 15.7509C13.8872 16.0508 13.448 16.3045 12.9847 16.5073L12.6321 18.1115C12.5904 18.3015 12.4851 18.4717 12.3336 18.5937C12.1821 18.7157 11.9934 18.7824 11.7988 18.7825ZM10.2416 6.83002C9.33587 6.83002 8.46725 7.18981 7.82681 7.83025C7.18638 8.47069 6.82658 9.3393 6.82658 10.245C6.82658 11.1507 7.18638 12.0194 7.82681 12.6598C8.46725 13.3002 9.33587 13.66 10.2416 13.66C11.1473 13.66 12.0159 13.3002 12.6564 12.6598C13.2968 12.0194 13.6566 11.1507 13.6566 10.245C13.6566 9.3393 13.2968 8.47069 12.6564 7.83025C12.0159 7.18981 11.1473 6.83002 10.2416 6.83002Z" fill="#E9C547"/>
</svg>
