<svg width="21" height="21" viewBox="0 0 21 21" fill="none" xmlns="http://www.w3.org/2000/svg">
<path d="M17.1277 15.963C18.0473 14.8566 18.6869 13.545 18.9923 12.1392C19.2978 10.7333 19.2601 9.27458 18.8826 7.88635C18.5051 6.49812 17.7987 5.22125 16.8233 4.16374C15.848 3.10623 14.6322 2.2992 13.279 1.81092C11.9257 1.32263 10.4748 1.16746 9.04887 1.35853C7.62297 1.5496 6.26406 2.08129 5.0871 2.90862C3.91014 3.73595 2.94976 4.83457 2.28719 6.11157C1.62462 7.38856 1.27937 8.80635 1.28063 10.245C1.28111 12.3364 2.0181 14.3608 3.36228 15.963L3.34948 15.9739C3.3943 16.0277 3.44552 16.0738 3.49163 16.1269C3.54925 16.1929 3.61137 16.255 3.67091 16.319C3.8502 16.5137 4.03461 16.7006 4.22799 16.8761C4.28689 16.9299 4.34772 16.9798 4.40727 17.031C4.61217 17.2078 4.82284 17.3755 5.04118 17.5317C5.06936 17.551 5.09497 17.5759 5.12314 17.5958V17.5881C6.62282 18.6434 8.41185 19.2098 10.2456 19.2098C12.0794 19.2098 13.8685 18.6434 15.3681 17.5881V17.5958C15.3963 17.5759 15.4213 17.551 15.4501 17.5317C15.6678 17.3749 15.8791 17.2078 16.084 17.031C16.1436 16.9798 16.2044 16.9292 16.2633 16.8761C16.4567 16.7 16.6411 16.5137 16.8204 16.319C16.8799 16.255 16.9414 16.1929 16.9997 16.1269C17.0451 16.0738 17.097 16.0277 17.1418 15.9732L17.1277 15.963ZM10.245 5.12249C10.8149 5.12249 11.372 5.29149 11.8458 5.6081C12.3197 5.92471 12.689 6.37473 12.9071 6.90123C13.1252 7.42774 13.1822 8.0071 13.071 8.56604C12.9599 9.12497 12.6854 9.63839 12.2825 10.0414C11.8795 10.4443 11.3661 10.7188 10.8071 10.8299C10.2482 10.9411 9.66884 10.8841 9.14234 10.666C8.61583 10.4479 8.16581 10.0786 7.8492 9.60472C7.53259 9.13088 7.3636 8.57379 7.3636 8.0039C7.3636 7.2397 7.66717 6.50681 8.20754 5.96644C8.74791 5.42607 9.48081 5.12249 10.245 5.12249ZM5.12698 15.963C5.13809 15.1222 5.47976 14.3197 6.07808 13.7289C6.67639 13.1381 7.48324 12.8067 8.32406 12.8062H12.1659C13.0068 12.8067 13.8136 13.1381 14.4119 13.7289C15.0102 14.3197 15.3519 15.1222 15.363 15.963C13.9587 17.2285 12.1354 17.9288 10.245 17.9288C8.35463 17.9288 6.53129 17.2285 5.12698 15.963Z" fill="#C5C5C5"/>
</svg>
