<svg width="21" height="21" viewBox="0 0 21 21" fill="none" xmlns="http://www.w3.org/2000/svg">
<g clip-path="url(#clip0_413_1771)">
<path fill-rule="evenodd" clip-rule="evenodd" d="M10.8537 15.4879C9.11564 15.4879 7.34988 14.3917 6.31936 12.9407C1.37524 12.9407 1.22578 20.4452 1.22578 20.4452H20.4804C20.4804 20.4452 20.8685 12.9074 15.3084 12.9074C14.2791 14.3763 12.5917 15.4879 10.8537 15.4879Z" fill="#C5C5C5"/>
<path fill-rule="evenodd" clip-rule="evenodd" d="M14.9951 6.49147C14.9951 8.65061 13.1401 12.7793 10.8501 12.7793C8.56361 12.7793 6.70746 8.64933 6.70746 6.49147C6.70746 4.33362 8.56241 2.58173 10.8501 2.58173C13.1401 2.58301 14.9951 4.3349 14.9951 6.49147Z" fill="#C5C5C5"/>
<path fill-rule="evenodd" clip-rule="evenodd" d="M16.844 4.62817C16.844 4.2235 16.3137 3.89694 15.6556 3.89437V3.06069C15.6556 2.93647 15.7002 0.0281677 10.8645 0.0281677C6.03129 0.0281677 6.07588 2.93647 6.07588 3.06069V3.92383C6.06383 3.92383 6.05419 3.91999 6.04334 3.91999C5.38887 3.91999 4.86215 4.24142 4.86215 4.6397V8.16654C4.86215 8.56225 5.39007 8.88497 6.04334 8.88497C6.69661 8.88497 7.22694 8.56225 7.22694 8.16654V4.6397C7.22694 4.58463 7.1944 4.53469 7.17511 4.48346V3.52171C7.17511 3.43335 6.82799 1.23836 10.8645 1.23836C14.9023 1.23836 14.4828 3.43335 14.4828 3.52171V4.53469C14.4756 4.5667 14.4527 4.59488 14.4527 4.62817V8.23569C14.4527 8.64165 14.9866 8.97077 15.6483 8.97077C15.6628 8.97077 15.6736 8.96565 15.6881 8.96565V10.2834H14.5021V11.5256H16.856L16.844 4.62817Z" fill="#C5C5C5"/>
</g>
<defs>
<clipPath id="clip0_413_1771">
<rect width="20.49" height="20.49" fill="white"/>
</clipPath>
</defs>
</svg>
