<svg width="506" height="337" viewBox="0 0 506 337" fill="none" xmlns="http://www.w3.org/2000/svg">
<g clip-path="url(#clip0_100_982)">
<path d="M86.4902 321.211L94.1017 323.27L105.677 294.931L94.4421 291.892L86.4902 321.211Z" fill="#FFB6B6"/>
<path d="M84.0708 329.068L107.479 335.399L107.559 335.104C108.214 332.691 107.882 330.117 106.636 327.949C105.39 325.781 103.333 324.195 100.916 323.541L100.916 323.541L97.5188 319.146L88.6622 320.227L86.6188 319.675L84.0708 329.068Z" fill="#2F2E41"/>
<path d="M139.049 327.807L146.935 327.807L150.687 297.431L139.047 297.432L139.049 327.807Z" fill="#FFB6B6"/>
<path d="M138.771 336.022L163.023 336.021V335.715C163.023 333.215 162.028 330.818 160.258 329.05C158.488 327.282 156.087 326.289 153.583 326.289H153.583L149.153 322.933L140.888 326.29L138.771 326.29L138.771 336.022Z" fill="#2F2E41"/>
<path d="M142.416 152.653L153 302.339L135.956 303.847L112.178 192.912L114.813 257.098L105.376 307.581L90.9497 300.616L91.1893 248.05L72.249 163.105L77.2902 152.653H142.416Z" fill="#2F2E41"/>
<path d="M74.6659 171.277L74.5601 171.129C68.9117 163.233 77.4069 144.258 78.6882 141.507C77.1667 141.014 75.8634 140.009 75.0003 138.665C74.1372 137.32 73.7676 135.718 73.9545 134.131L74.5068 129.443L75.0825 124.844L70.9579 120.726L70.9463 120.623L68.5727 99.8836L65.1215 86.1086C63.8211 80.9012 63.9319 75.442 65.4426 70.2915C66.9532 65.141 69.8093 60.4847 73.7175 56.8005L81.695 55.5356L91.39 46.2078H107.024L112.385 51.3221C122.392 53.0747 124.112 52.5024 132.708 62.8028L128.802 94.8269L127.827 99.2324L127.83 105.208L130.307 107.957C131.2 108.947 131.848 110.132 132.201 111.417C132.554 112.701 132.601 114.051 132.34 115.357L132.014 116.983C134.569 118.077 137.007 137.507 137.589 140.221L138.459 144.275C139.204 145.256 144.117 151.798 144.117 153.586C144.117 153.855 143.919 154.114 143.493 154.402C140.144 156.666 126.795 172.727 118.604 169.454C109.879 165.97 75.1955 171.196 74.8461 171.25L74.6659 171.277Z" fill="#3F3D56"/>
<path d="M72.5655 134.038C72.5655 134.038 76.5804 111.381 72.5356 102.86L56.4897 104.004L58.9317 136.328L72.9588 172.218C72.7447 173.323 72.8274 174.466 73.1985 175.53C73.5696 176.593 74.2159 177.54 75.0718 178.273C75.9277 179.006 76.9627 179.501 78.0717 179.706C79.1808 179.911 80.3244 179.819 81.3864 179.44C82.4484 179.06 83.3911 178.408 84.1187 177.547C84.8463 176.686 85.3329 175.649 85.5291 174.54C85.7254 173.431 85.6243 172.29 85.2361 171.232C84.8479 170.175 84.1864 169.239 83.3188 168.519L72.5655 134.038Z" fill="#FFB6B6"/>
<path d="M56.4899 90.8427L57.483 80.0438C57.8567 75.9795 59.0315 72.029 60.9397 68.4197C62.848 64.8104 65.452 61.6135 68.6021 59.0128C70.5593 57.4088 72.9268 56.3835 75.437 56.0526C77.9471 55.7217 80.5 56.0985 82.807 57.1404C85.9247 58.5737 88.3811 61.1357 89.6795 64.3084C90.9779 67.4811 91.0213 71.0277 89.8011 74.2312C86.0924 83.9435 87.4316 94.2146 80.2002 95.4668L80.9858 99.1992L73.8756 122.37L53.6245 120.027L56.4899 90.8427Z" fill="#3F3D56"/>
<path d="M136.02 164.768C135.31 165.643 134.845 166.691 134.672 167.804C134.499 168.917 134.624 170.055 135.034 171.104C135.444 172.154 136.124 173.076 137.007 173.777C137.889 174.479 138.942 174.935 140.058 175.099C141.173 175.263 142.313 175.129 143.36 174.711C144.407 174.293 145.325 173.606 146.021 172.719C146.716 171.832 147.164 170.778 147.319 169.662C147.475 168.547 147.331 167.41 146.905 166.368L153.617 128.429L149.669 96.2539L133.709 98.2713C131.415 107.419 139.798 128.852 139.798 128.852L136.02 164.768Z" fill="#FFB6B6"/>
<path d="M155.623 111.405L136.224 117.665L128.755 106.03L128.793 102.216C121.456 102.403 116.704 82.3743 111.161 73.5759C109.336 70.6733 108.682 67.1869 109.333 63.8217C109.984 60.4565 111.89 57.4635 114.666 55.4479C116.723 53.9748 119.153 53.1059 121.679 52.9392C124.206 52.7725 126.729 53.3147 128.963 54.5046C132.562 56.4385 135.743 59.0639 138.322 62.2299C140.902 65.3958 142.829 69.0398 143.993 72.9522L147.086 83.3474L155.623 111.405Z" fill="#3F3D56"/>
<path d="M98.1527 41.7015C107.742 41.7015 115.516 33.9389 115.516 24.3633C115.516 14.7877 107.742 7.02515 98.1527 7.02515C88.5633 7.02515 80.7896 14.7877 80.7896 24.3633C80.7896 33.9389 88.5633 41.7015 98.1527 41.7015Z" fill="#FFB6B6"/>
<path d="M85.5517 36.5842C85.4001 36.4515 85.2571 36.3098 85.109 36.1733C85.1036 36.1873 85.1028 36.2017 85.0972 36.2156L85.5517 36.5842Z" fill="#2F2E41"/>
<path d="M112.381 6.0542C111.519 4.66745 110.324 3.51702 108.905 2.70674C107.934 2.2369 106.915 1.87624 105.865 1.63139L103.117 0.882733C101.709 0.4477 100.261 0.156464 98.794 0.0134989C96.7571 -0.0868394 94.7318 0.373694 92.9392 1.34479C91.1466 2.31588 89.6557 3.7602 88.6294 5.51998C87.7993 6.99038 87.1333 8.8227 85.531 9.36066C84.2391 9.79445 82.8294 9.18256 81.4716 9.30127C80.6759 9.41641 79.921 9.72574 79.2736 10.2019C78.6263 10.678 78.1066 11.3062 77.7605 12.0309C77.0838 13.4891 76.7508 15.0828 76.787 16.6896C76.7336 20.3376 77.4466 23.9563 78.88 27.3122C80.3133 30.6681 82.4352 33.6867 85.1088 36.1733C85.557 34.9938 84.8188 33.7203 84.2353 32.5919C83.6449 31.4501 83.2801 29.8584 84.2689 29.0361C85.3692 28.1211 87.1321 29.0084 88.4333 28.4117C88.8496 28.1729 89.2002 27.8349 89.4538 27.4278C89.7074 27.0207 89.8561 26.5573 89.8867 26.0789C90.0126 25.1308 89.8811 24.1671 89.9407 23.2126C89.9994 22.2719 90.2431 21.352 90.6579 20.5053C91.0726 19.6587 91.6503 18.9019 92.358 18.2782C93.0656 17.6545 93.8894 17.1761 94.7822 16.8702C95.675 16.5644 96.6194 16.4372 97.5615 16.4958C97.5831 16.4972 97.6048 16.4986 97.6265 16.5002C100.588 16.7115 103.463 18.7325 106.313 17.901C107.651 17.5108 108.792 16.5171 110.176 16.3499C111.708 16.1648 113.15 17.0284 114.451 17.8577C114.924 15.8528 114.985 13.7729 114.629 11.744C114.273 9.71507 113.508 7.7794 112.381 6.0542Z" fill="#2F2E41"/>
<path d="M203.114 326.281L198.695 319.191L197.813 323.242C197.658 323.952 197.503 324.673 197.36 325.388C196.105 324.318 194.77 323.328 193.463 322.378C189.452 319.471 185.442 316.561 181.435 313.646L182.69 320.913C183.463 325.388 184.271 329.955 186.185 334.046C186.397 334.51 186.627 334.968 186.873 335.414H205.521C205.671 334.999 205.774 334.57 205.83 334.132C205.835 334.104 205.837 334.075 205.836 334.046C206.128 331.271 204.592 328.656 203.114 326.281Z" fill="#F0F0F0"/>
<path d="M224.81 336.111L44.0891 336.287C43.9087 336.286 43.736 336.214 43.6088 336.086C43.4816 335.958 43.4102 335.785 43.4102 335.605C43.4102 335.425 43.4816 335.252 43.6088 335.125C43.736 334.997 43.9087 334.925 44.0891 334.924L224.81 334.748C224.991 334.749 225.163 334.821 225.291 334.949C225.418 335.077 225.489 335.249 225.489 335.429C225.489 335.61 225.418 335.782 225.291 335.91C225.163 336.038 224.991 336.11 224.81 336.111Z" fill="#CACACA"/>
<path d="M411.613 110.669C411.574 130.701 404.032 149.993 390.47 164.754C376.908 179.514 358.307 188.674 338.324 190.434C318.341 192.194 298.421 186.426 282.481 174.264C266.541 162.101 255.734 144.425 252.184 124.709C248.634 104.994 252.599 84.6654 263.298 67.7205C273.997 50.7756 290.657 38.4401 310.002 33.139C329.347 27.838 349.979 29.9549 367.841 39.0735C385.702 48.1922 399.502 63.653 406.526 82.4164C406.702 82.8875 406.872 83.3587 407.039 83.8344V83.8389C407.78 85.93 408.433 88.06 408.998 90.229C410.74 96.903 411.619 103.772 411.613 110.669Z" fill="#3F3D56"/>
<path d="M321.874 56.1721C318.239 54.2091 314.202 53.101 310.073 52.9323C305.944 52.7636 301.831 53.5388 298.047 55.1987C294.716 56.6464 291.208 59.2435 290.097 63.9333C294.591 61.2845 300.41 65.4696 301.566 72.1833L301.296 72.2576C300.685 76.9079 302.049 81.9707 304.689 84.8542C304.886 83.5531 305.37 82.312 306.106 81.2211C306.843 80.1302 307.814 79.2168 308.948 78.5473C310.888 77.2739 313.034 76.3489 314.514 74.1602C316.27 71.5654 316.715 67.7732 317.413 64.3138C318.11 60.8543 319.433 57.136 321.874 56.1721Z" fill="#E9C547"/>
<path d="M296.714 95.744C295.469 97.6107 293.806 98.782 292.314 100.24C290.592 101.805 289.462 103.914 289.115 106.213C288.926 107.838 289.218 109.489 289.178 111.131C289.137 112.774 288.589 114.623 287.47 115.031C285.704 115.668 284.356 112.392 282.54 112.163C281.098 111.984 279.799 114.25 280.217 116.216C280.635 118.181 282.599 119.052 283.727 117.768C284.747 119.478 284.028 122.579 282.495 123.104C282.333 124.181 282.172 125.253 282.014 126.33C278.141 123.624 274.226 120.874 270.932 116.911C267.269 112.542 264.997 107.179 264.407 101.51C263.98 96.9556 264.614 91.7457 262.52 88.241C260.844 85.4364 257.968 84.8171 255.379 84.9921C254.907 85.0235 254.431 85.0773 253.959 85.1357C255.486 80.5574 257.424 76.1267 259.752 71.8978C260.278 71.672 260.768 71.3679 261.203 70.9958C263.612 68.954 264.681 64.8211 266.636 61.9626C266.762 61.7786 266.892 61.5991 267.027 61.4241C269.027 58.8169 271.705 57.4751 274.294 56.2276C280.024 53.4499 285.919 50.6363 291.968 51.0222L290.247 51.1883C288.238 56.8065 286.228 62.4248 284.216 68.0431C283.911 68.9046 283.602 69.7677 283.291 70.6323C282.149 73.8273 280.972 77.2288 281.147 80.8053C281.25 82.9233 281.987 85.185 283.389 85.912C284.697 86.5851 286.126 85.7594 287.389 84.9427C287.924 84.6016 288.454 84.2606 288.989 83.915C290.908 82.681 293.033 81.4156 295.06 82.2412C296.916 82.9951 298.287 85.5126 298.547 88.2275C298.786 90.8665 298.142 93.5102 296.714 95.744Z" fill="#E9C547"/>
<path d="M308.126 134.101C302.522 130.656 296.918 127.21 291.313 123.764L291.408 123.52C287.924 124.845 286.477 131.03 287.053 136.088C287.629 141.146 289.582 145.667 290.568 150.596C291.898 157.34 291.396 164.317 289.114 170.802C296.484 162.545 303.005 153.571 308.582 144.015C309.361 142.811 309.954 141.496 310.343 140.116C310.754 138.645 310.608 137.074 309.931 135.704C309.472 135.029 308.852 134.478 308.126 134.101Z" fill="#E9C547"/>
<path d="M286.008 71.4141C285.35 72.8251 285.249 74.4319 285.724 75.9142C286.277 77.1085 287.28 78.0362 288.515 78.4954L291.612 80.0281C292.642 80.5381 293.752 81.053 294.802 80.6335C296.069 80.1275 296.947 78.1445 296.72 76.3036C296.478 74.3447 295.242 72.9972 294.098 71.8497C292.498 70.2439 290.897 68.638 289.297 67.0322L288.395 68.1354C287.419 69.0856 286.612 70.1942 286.008 71.4141Z" fill="#E9C547"/>
<path d="M395.013 92.356C396.406 92.6835 397.8 93.0111 399.193 93.3387C398.95 98.037 396.618 102.385 393.49 103.96C392.187 104.616 390.735 104.858 389.657 106.083C388.681 107.196 388.187 108.928 387.733 110.584C386.938 113.474 386.142 116.364 385.347 119.253C384.493 122.368 383.397 125.828 381.177 126.949C379.271 127.914 377.092 126.734 375.627 124.755C374.162 122.776 373.267 120.115 372.4 117.521C372.454 120.348 371.137 123.122 369.272 124.104C367.403 125.087 365.129 124.199 363.88 122.004C362.981 120.429 362.608 118.352 361.727 116.754C360.846 115.157 358.999 114.241 358.038 115.74C357.404 116.736 357.485 118.262 357.17 119.527C357.012 120.367 356.595 121.137 355.978 121.73C355.361 122.323 354.575 122.709 353.728 122.834C352.949 122.817 352.182 122.641 351.474 122.318C350.765 121.994 350.13 121.53 349.607 120.954C346.855 118.143 345.063 114.535 344.488 110.647C344.099 108.782 344.148 106.853 344.632 105.01C345.185 103.265 346.52 101.919 347.845 102.251C348.717 100.411 346.996 97.9697 345.446 98.1851C343.891 98.4005 342.673 100.065 341.397 101.344C340.125 102.623 338.345 103.552 337.064 102.282C337.093 102.747 336.936 103.203 336.627 103.552C336.318 103.901 335.884 104.113 335.418 104.141C335.372 104.144 335.326 104.145 335.28 104.144C334.429 103.9 333.637 103.481 332.957 102.915C330.023 101.088 326.297 102.3 324.212 105.755C325.515 100.218 327.425 93.8636 331.429 92.5623C333.065 92.0283 334.849 92.468 336.395 91.5436C339.132 89.9058 339.684 83.7176 337.321 81.1643C337.622 83.5785 337.563 86.3966 336.287 88.048C335.011 89.6994 332.332 88.6223 332.494 86.1812C332.458 86.5246 332.314 86.8476 332.082 87.1041C331.851 87.3606 331.544 87.5374 331.206 87.6091C330.868 87.6808 330.515 87.6438 330.199 87.5034C329.884 87.363 329.62 87.1264 329.447 86.8274C328.598 85.5351 328.67 83.4215 329.272 81.8778C329.893 80.4797 330.783 79.2172 331.892 78.1622C334.027 75.8782 336.193 73.5671 338.664 72.1311C341.141 70.6952 343.999 70.2106 346.479 71.6376C347.787 72.3914 348.937 73.6479 350.272 74.312C350.586 74.5064 350.935 74.6371 351.299 74.6968C351.663 74.7565 352.036 74.7439 352.395 74.6599C352.754 74.5759 353.094 74.422 353.393 74.207C353.693 73.992 353.948 73.7201 354.142 73.407C354.157 73.3828 354.172 73.3584 354.186 73.3337C355.179 71.5926 354.712 69.0078 355.081 66.8315C355.741 62.9858 359.592 61.1863 361.727 63.7262C360.132 63.3179 358.482 65.2026 358.285 67.4867C358.083 69.7708 359.237 72.0773 360.783 72.7684C363.381 73.9171 365.924 71.0272 367.888 68.3527C369.937 65.5526 371.99 62.7539 374.045 59.9568C374.373 59.4805 374.741 59.0332 375.146 58.6195C375.789 57.993 376.648 57.6343 377.546 57.616C378.445 57.5976 379.317 57.9211 379.986 58.5208C382.062 60.2126 383.037 63.6814 384.74 66.0687C387.212 69.5374 390.91 70.3811 394.353 71.0542C396.919 71.5523 399.486 72.0534 402.055 72.5575C403.768 75.7388 405.262 79.0327 406.527 82.4164C401.816 84.5615 397.82 88.0111 395.013 92.356Z" fill="#E9C547"/>
<path d="M408.999 90.229C408.472 91.7786 408.184 93.3991 408.145 95.035C405.943 92.3515 405.592 87.3211 407.039 83.8389C407.781 85.93 408.434 88.06 408.999 90.229Z" fill="#6C63FF"/>
<path d="M403.309 146.349C401.384 150.252 399.144 153.994 396.613 157.536C394.995 156.845 393.256 158.079 391.742 159.236C390.16 160.448 388.259 161.628 386.637 160.524C384.978 159.393 384.444 156.23 384.969 153.721C385.574 151.407 386.631 149.236 388.079 147.331C389.427 145.321 390.87 143.234 392.744 142.453C394.622 141.673 397.036 142.776 397.584 145.442L398.914 145.397C398.168 144.374 398.559 142.256 399.561 141.883C400.716 141.448 401.718 143.032 402.401 144.432C402.707 145.065 403.017 145.702 403.309 146.349Z" fill="#E9C547"/>
<path d="M352.364 127.394C349.504 127.574 347.24 124.059 345.735 120.601C344.23 117.144 342.857 113.189 340.277 111.429C338.803 110.424 337.122 110.286 335.523 109.798C334.616 109.57 333.777 109.128 333.075 108.511C332.373 107.894 331.828 107.119 331.486 106.249L329.673 105.518C327.136 106.784 324.812 108.438 322.787 110.421C320.472 112.876 319.03 116.024 318.683 119.378C318.337 123.003 319.616 127.045 322.007 128.407C323.896 129.483 326.095 128.805 328.008 129.79C330.399 131.021 331.818 134.596 332.355 138.126C332.892 141.656 332.756 145.325 333.141 148.895C333.525 152.465 334.584 156.179 336.777 158.009C339.52 160.298 343.546 158.396 344.776 154.228C345.38 152.184 345.359 149.877 345.811 147.755C346.606 144.018 348.752 141.246 350.454 138.18C352.156 135.115 353.496 130.952 352.364 127.394Z" fill="#E9C547"/>
<path d="M324.111 90.673C324.378 90.9181 324.626 91.1818 324.855 91.4622C325.093 91.8705 325.214 92.3356 325.206 92.8075C325.198 93.2793 325.061 93.74 324.81 94.14C325.154 94.1204 325.491 94.0297 325.798 93.8736C326.106 93.7176 326.378 93.4995 326.596 93.2332C327.118 92.6398 327.577 91.9941 327.966 91.3064C328.149 91.0709 328.28 90.7992 328.349 90.5094C328.419 90.2196 328.426 89.9183 328.37 89.6256C328.235 89.2407 327.916 89.0765 327.692 88.787C327.381 88.221 327.169 87.6065 327.065 86.9697C326.941 86.3728 326.653 85.8223 326.232 85.3801C325.812 84.9378 325.277 84.6214 324.686 84.4663L324.83 84.4937C324.586 84.6382 324.393 84.8553 324.279 85.1145C324.165 85.3738 324.135 85.6622 324.193 85.9393C324.28 86.4993 324.64 86.9642 324.604 87.5353C324.553 88.3566 323.731 88.742 323.68 89.5633C323.672 89.9754 323.827 90.374 324.111 90.673Z" fill="#E9C547"/>
<path d="M319.212 76.7168L319.225 76.7143C319.313 76.6343 319.394 76.5475 319.469 76.4548L319.212 76.7168Z" fill="#6C63FF"/>
<path d="M320.069 80.5717C320.413 80.2708 320.667 79.8814 320.804 79.4461C320.941 79.0109 320.955 78.5464 320.846 78.1035C320.638 77.1697 319.903 76.5418 319.225 76.7143C319.028 76.9135 318.784 77.0594 318.515 77.1384C318.246 77.2174 317.962 77.2269 317.689 77.1659C317.269 77.0581 316.809 76.7806 316.446 77.096C316.238 77.3316 316.092 77.6154 316.022 77.9216C315.888 78.3341 315.753 78.7466 315.618 79.159C315.554 79.3067 315.538 79.4705 315.571 79.628C315.596 79.6911 315.638 79.7465 315.691 79.7889C315.745 79.8314 315.808 79.8593 315.876 79.8702C316.683 80.1079 317.491 80.3456 318.298 80.5833C318.576 80.7112 318.879 80.7764 319.185 80.7744C319.491 80.7724 319.793 80.7032 320.069 80.5717Z" fill="#E9C547"/>
<path d="M381.025 133.792C380.652 133.182 380.279 132.572 379.906 131.962C379.539 131.255 379.038 130.627 378.43 130.112C378.299 130.002 378.147 129.918 377.983 129.867C377.819 129.816 377.647 129.797 377.476 129.812C377.305 129.827 377.138 129.876 376.986 129.955C376.834 130.034 376.699 130.143 376.588 130.274L376.569 130.298L376.614 130.646C377.614 131.716 378.295 133.043 378.581 134.478C378.666 135.102 378.636 135.747 378.711 136.373C378.719 136.664 378.784 136.95 378.903 137.215C379.021 137.48 379.191 137.72 379.403 137.919C379.99 138.311 380.68 137.733 381.099 137.028C381.473 136.448 381.64 135.76 381.575 135.074C381.482 134.614 381.295 134.177 381.025 133.792Z" fill="#E9C547"/>
<path d="M386.881 134.586C386.952 134.015 386.905 133.435 386.744 132.882C386.717 132.135 386.916 131.396 387.314 130.762C387.709 130.164 388.009 129.508 388.202 128.818C388.283 128.504 388.268 128.172 388.159 127.866C388.036 127.589 387.736 127.463 387.565 127.682L387.932 127.918C387.436 127.83 386.927 127.855 386.441 127.99C386.165 128.096 385.918 128.267 385.721 128.488C385.524 128.71 385.384 128.975 385.312 129.262C385.251 129.71 385.152 130.151 385.015 130.582C384.796 131.031 384.372 131.181 384.106 131.576C383.924 131.926 383.832 132.315 383.839 132.709C383.845 133.103 383.95 133.49 384.143 133.834C384.478 134.396 385.01 134.814 385.636 135.006C386.085 135.167 386.675 135.175 386.881 134.586Z" fill="#E9C547"/>
<path d="M397.308 137.728C397.47 138.149 397.687 138.547 397.954 138.912C398.453 139.414 399.131 139.105 399.737 138.983C400.286 138.897 400.849 138.96 401.366 139.167C401.882 139.374 402.333 139.716 402.67 140.158C402.435 138.988 401.923 137.892 401.175 136.962C400.428 136.031 399.468 135.293 398.376 134.809C396.957 134.319 395.462 134.085 393.961 134.12L393.704 134.185C394.358 136.085 396.41 136.042 397.308 137.728Z" fill="#E9C547"/>
<path d="M353.146 141.611L353.15 141.62L353.224 141.477L353.146 141.611Z" fill="#6C63FF"/>
<path d="M351.564 144.67C351.219 145.295 350.922 145.946 350.677 146.616C350.351 147.702 350.136 148.818 350.033 149.947C349.953 150.589 349.928 151.409 350.331 151.722C350.447 151.799 350.586 151.831 350.724 151.812C350.861 151.793 350.987 151.725 351.078 151.621C351.302 151.384 351.485 151.112 351.62 150.816C352.412 149.455 353.026 147.998 353.449 146.482C353.89 144.873 353.785 143.164 353.15 141.621C352.621 142.637 352.093 143.654 351.564 144.67Z" fill="#E9C547"/>
<path d="M336.304 63.2161C336.555 63.4613 336.873 63.6278 337.218 63.695C337.563 63.7622 337.92 63.7272 338.245 63.5943C338.918 63.3003 339.536 62.8929 340.071 62.3898C340.514 62.0625 340.89 61.6531 341.178 61.1839C341.337 60.9036 341.438 60.5947 341.477 60.275C341.516 59.9553 341.491 59.631 341.404 59.3209C341.281 59.0238 341.083 58.763 340.83 58.5634C340.578 58.3637 340.278 58.2318 339.96 58.1799C339.064 57.9145 338.168 57.6491 337.271 57.3838L337.92 56.8003C337.253 56.4428 336.515 57.1062 336.098 57.9276C335.83 58.4639 335.644 59.0368 335.545 59.6276C335.403 60.245 335.397 60.8857 335.528 61.5054C335.66 62.1251 335.924 62.7088 336.304 63.2161Z" fill="#E9C547"/>
<path d="M352.127 57.9119C352.38 58.1899 352.729 58.3616 353.104 58.392C353.478 58.4225 353.851 58.3094 354.145 58.0758C354.398 57.8858 354.609 57.6447 354.762 57.3681C354.916 57.0915 355.01 56.7857 355.037 56.4706C355.101 55.7666 354.752 54.9842 354.255 54.9234L354.368 54.2643C353.409 54.0914 352.229 54.0567 351.715 55.2197C351.542 55.6651 351.489 56.1482 351.561 56.6207C351.633 57.0931 351.829 57.5383 352.127 57.9119Z" fill="#E9C547"/>
<g opacity="0.35">
<path opacity="0.35" d="M503.849 114.649C509.142 112.344 498.409 111.003 486.231 110.562C474.054 110.121 459.323 110.145 451.541 108.891C444.015 107.677 444.57 105.52 443.936 103.566C443.303 101.611 440.41 99.6072 428.666 99.1727C414.032 98.6314 389.898 100.715 378.851 99.4642C368.542 98.2966 374.67 94.6342 359.637 94.4941C351.053 94.414 339.994 95.6214 330.443 95.9129C323.672 96.2061 316.889 95.853 310.186 94.8582C305.53 94.0966 302.288 93.131 297.048 92.4582C283.292 90.6919 256.378 91.2856 232.357 93.5493C208.335 95.8131 187.744 99.5229 176.132 103.197C164.519 106.872 161.311 110.489 164.016 113.557C165.743 115.516 170.163 117.348 180.885 118.135C200.94 119.608 236.646 117.073 257.37 118.413C268.92 119.159 274.044 121.01 284.178 122.023C295.065 123.112 311.003 123.169 326.662 123.143C359.266 123.09 392.704 122.755 426.8 122.142C441.042 121.885 455.964 121.552 471.118 120.331C486.273 119.11 501.729 116.754 504.927 114.546" fill="white"/>
</g>
<path d="M411.836 216.424C404.436 216.424 396.326 216.145 387.505 215.586C341.881 212.693 282.784 202.635 221.1 187.265C159.416 171.895 102.515 153.048 60.8787 134.198C40.5964 125.016 25.0298 116.323 14.6119 108.363C3.58201 99.9355 -1.24261 92.5897 0.271472 86.5303C3.2216 74.7255 29.3438 72.1429 50.7381 72.0552L50.7454 73.7719C21.3653 73.8923 4.03253 78.5711 1.93977 86.9461C-0.726059 97.6127 21.0153 114.265 61.5886 132.635C103.134 151.443 159.93 170.253 221.517 185.599C283.103 200.945 342.091 210.986 387.614 213.873C432.072 216.693 459.101 212.192 461.766 201.525C463.979 192.669 449.389 179.622 420.683 164.788L421.474 163.264C442.332 174.042 466.543 189.502 463.435 201.941C461.92 208 454.205 212.221 440.503 214.486C432.693 215.777 423.099 216.424 411.836 216.424Z" fill="#C5B1FF"/>
<path d="M129.511 218.659C109.111 218.66 90.1448 217.961 73.1659 216.55C50.973 214.706 33.3867 211.742 20.8962 207.74C7.67169 203.502 0.655794 198.202 0.0432703 191.987C-1.15043 179.879 22.5843 168.683 42.7055 161.422L43.2897 163.037C15.6583 173.007 0.907375 183.229 1.75409 191.819C2.8325 202.76 28.913 211.15 73.3084 214.839C118.767 218.616 178.591 217.278 241.76 211.068C304.929 204.86 363.867 194.527 407.716 181.972C450.539 169.711 474.481 156.404 473.402 145.464C472.507 136.38 454.375 128.987 422.347 124.646L422.578 122.945C445.85 126.099 473.856 132.537 475.113 145.295C475.726 151.511 469.879 158.075 457.736 164.805C446.266 171.163 429.596 177.494 408.189 183.622C364.244 196.205 305.198 206.558 241.928 212.777C202.238 216.678 163.851 218.659 129.511 218.659Z" fill="#C5B1FF"/>
<path d="M250.916 254.92C256.45 254.92 260.935 250.441 260.935 244.915C260.935 239.39 256.45 234.911 250.916 234.911C245.383 234.911 240.897 239.39 240.897 244.915C240.897 250.441 245.383 254.92 250.916 254.92Z" fill="#C5B1FF"/>
<path d="M53.6244 195.853C59.1578 195.853 63.6434 191.374 63.6434 185.849C63.6434 180.323 59.1578 175.844 53.6244 175.844C48.0911 175.844 43.6055 180.323 43.6055 185.849C43.6055 191.374 48.0911 195.853 53.6244 195.853Z" fill="#E9C547"/>
<path d="M237.578 42.5031C240.966 42.5031 243.712 39.7611 243.712 36.3787C243.712 32.9964 240.966 30.2544 237.578 30.2544C234.191 30.2544 231.445 32.9964 231.445 36.3787C231.445 39.7611 234.191 42.5031 237.578 42.5031Z" fill="#0DB2B2"/>
<path d="M200.471 88.7347C206.004 88.7347 210.49 84.2555 210.49 78.7301C210.49 73.2048 206.004 68.7256 200.471 68.7256C194.937 68.7256 190.452 73.2048 190.452 78.7301C190.452 84.2555 194.937 88.7347 200.471 88.7347Z" fill="#262626"/>
</g>
<defs>
<clipPath id="clip0_100_982">
<rect width="505.234" height="336.287" fill="white"/>
</clipPath>
</defs>
</svg>
