<svg width="299" height="207" viewBox="0 0 299 207" fill="none" xmlns="http://www.w3.org/2000/svg">
<g clip-path="url(#clip0_76_629)">
<path d="M29.4923 191.817C29.6212 196.645 30.4271 201.43 31.8862 206.032C31.9185 206.139 31.9544 206.244 31.9894 206.351H40.9219C40.9125 206.255 40.9028 206.148 40.8934 206.032C40.2979 199.16 43.7004 157.836 47.8061 150.684C47.4464 151.264 28.7997 169.983 29.4923 191.817Z" fill="#E6E6E6"/>
<path d="M30.1626 206.032C30.2374 206.139 30.315 206.246 30.3946 206.351H37.096C37.0452 206.26 36.9864 206.153 36.9181 206.032C35.8111 204.027 32.5345 198.032 29.493 191.817C26.2258 185.138 23.2257 178.206 23.4784 175.697C23.4001 176.263 21.1382 193.513 30.1626 206.032Z" fill="#E6E6E6"/>
<path d="M138.784 198.967C138.849 201.419 139.259 203.851 140 206.189C140.016 206.243 140.034 206.296 140.052 206.351H144.591C144.586 206.302 144.581 206.248 144.576 206.189C144.274 202.698 146.002 181.702 148.088 178.069C147.905 178.363 138.432 187.874 138.784 198.967Z" fill="#E6E6E6"/>
<path d="M139.124 206.189C139.162 206.243 139.202 206.297 139.242 206.351H142.647C142.621 206.305 142.591 206.25 142.556 206.189C141.994 205.17 140.329 202.124 138.784 198.967C137.124 195.573 135.6 192.052 135.728 190.777C135.688 191.064 134.539 199.828 139.124 206.189Z" fill="#E6E6E6"/>
<path d="M111.916 59.1378L100.364 67.3839L107.552 68.1566L117.564 59.654L111.916 59.1378Z" fill="#E9C547"/>
<path d="M66.7209 199.936L73.6688 199.935L76.9743 173.04L66.7196 173.04L66.7209 199.936Z" fill="#9F616A"/>
<path d="M64.9485 197.659L78.6316 197.659H78.6321C80.9447 197.659 83.1626 198.581 84.7978 200.222C86.4331 201.863 87.3519 204.089 87.352 206.41V206.694L64.9489 206.695L64.9485 197.659Z" fill="#659BED"/>
<path d="M62.3527 103.871C62.3527 103.871 59.3415 107.287 64.3276 120.603L63.4494 193.618L79.6077 193.302L83.1595 157.686L89.6262 105.712L62.3527 103.871Z" fill="#A9BCFF"/>
<path d="M46.22 92.3448C45.2654 92.3422 44.3493 91.9664 43.6662 91.2971C42.9832 90.6277 42.5869 89.7176 42.5615 88.7599L41.8032 60.0807L54.778 35.377C55.0726 34.8207 55.5037 34.349 56.0305 34.0064C56.5573 33.6639 57.1625 33.4618 57.7888 33.4193L67.6767 32.7822L66.8229 90.5914L46.5416 92.3311C46.434 92.3404 46.3268 92.345 46.22 92.3448Z" fill="#C5B1FF"/>
<path d="M95.1681 113.966L94.9912 113.939C74.3202 110.775 58.7215 107.742 58.5663 107.711L58.3726 107.674L63.7913 94.4465C63.7485 93.0644 62.5755 54.2519 64.821 43.1007C66.9947 32.3056 77.2409 30.5365 78.4085 30.3701L79.5809 26.4716L94.3927 34.2066L96.976 43.1293L97.5007 67.5843L95.1681 113.966Z" fill="#0DB2B2"/>
<path d="M74.813 76.9427C65.27 76.9427 57.5062 66.5295 57.5062 53.73C57.5062 40.9305 65.27 30.5173 74.813 30.5173C84.3559 30.5173 92.1197 40.9305 92.1197 53.73C92.1197 66.5295 84.3559 76.9427 74.813 76.9427ZM74.813 32.7899C66.5186 32.7899 59.7707 42.1836 59.7707 53.73C59.7707 65.2764 66.5186 74.6701 74.813 74.6701C83.1073 74.6701 89.8553 65.2764 89.8553 53.73C89.8553 42.1836 83.1073 32.7899 74.813 32.7899Z" fill="#6C63FF"/>
<path d="M104.089 63.632C103.422 63.6318 102.762 63.7702 102.151 64.0384C101.54 64.3066 100.991 64.6989 100.538 65.1905H75.6419L66.5226 67.1386L68.0198 78.7283L100.46 71.7266C100.997 72.3354 101.677 72.7994 102.439 73.0763C103.201 73.3532 104.02 73.4342 104.821 73.312C105.622 73.1897 106.379 72.868 107.024 72.3763C107.67 71.8846 108.182 71.2385 108.514 70.497C108.847 69.7555 108.989 68.9423 108.928 68.1315C108.866 67.3208 108.604 66.5383 108.164 65.8557C107.723 65.173 107.12 64.6118 106.408 64.2234C105.697 63.8349 104.899 63.6316 104.089 63.632Z" fill="#9F616A"/>
<path d="M102.261 24.8293C106.947 20.1267 106.947 12.5023 102.261 7.79975C97.5752 3.09717 89.9781 3.09718 85.2924 7.79975C80.6066 12.5023 80.6066 20.1267 85.2924 24.8293C89.9781 29.5319 97.5752 29.5319 102.261 24.8293Z" fill="#9F616A"/>
<path d="M82.4919 6.68781L81.9102 5.51285L84.8371 4.05341C84.8371 4.05341 88.0659 -1.21913 93.9086 0.262573C99.7513 1.74427 102.38 2.63104 102.38 2.63104L105.3 4.1053L103.834 5.56845L106.463 6.45524L104.707 7.3309L106.75 8.50957L105.65 14.5518C105.65 14.5518 103.823 9.969 100.311 11.7203C96.7987 13.4716 90.3743 10.815 90.3743 10.815L84.7928 21.6556C84.7928 21.6556 83.6414 17.8554 81.5884 18.8687C81.5884 18.8688 76.3436 10.486 82.4919 6.68781Z" fill="#2F2E41"/>
<path d="M186.749 80.8217L186.236 71.1686L181.06 66.9481L178.062 75.887L161.291 98.3346C160.498 98.462 159.758 98.8148 159.159 99.3511C158.56 99.8874 158.126 100.585 157.909 101.361C157.692 102.137 157.701 102.959 157.935 103.73C158.169 104.5 158.619 105.188 159.23 105.711C159.841 106.233 160.589 106.569 161.384 106.679C162.18 106.788 162.99 106.667 163.719 106.329C164.448 105.991 165.065 105.451 165.498 104.772C165.93 104.093 166.16 103.303 166.159 102.498C166.159 102.441 166.153 102.386 166.151 102.329L186.749 80.8217Z" fill="#FFB7B7"/>
<path d="M196.716 202.482L192.75 202.481L190.863 187.129L196.716 187.129L196.716 202.482Z" fill="#FFB7B7"/>
<path d="M197.727 206.34L184.939 206.339V206.177C184.939 204.852 185.464 203.582 186.397 202.645C187.331 201.708 188.597 201.182 189.917 201.182H189.917L197.727 201.182L197.727 206.34Z" fill="#659BED"/>
<path d="M215.155 202.482L211.189 202.481L209.302 187.129L215.155 187.129L215.155 202.482Z" fill="#FFB7B7"/>
<path d="M216.166 206.34L203.378 206.339V206.177C203.378 204.852 203.903 203.582 204.836 202.645C205.77 201.708 207.036 201.182 208.356 201.182H208.356L216.166 201.182L216.166 206.34Z" fill="#659BED"/>
<path d="M210.963 40.4959C212.642 33.5382 214.064 25.6906 210.898 19.2824C208.701 14.8361 200.573 13.3388 195.913 14.9406C191.254 16.5425 187.885 20.8883 186.404 25.6267C184.922 30.3651 185.094 35.471 185.74 40.3969C194.309 40.2317 202.878 40.0665 210.963 40.4959Z" fill="#2F2E41"/>
<path d="M201.295 39.2651C206.138 36.6085 207.917 30.5152 205.27 25.6553C202.623 20.7955 196.552 19.0094 191.709 21.6661C186.867 24.3227 185.087 30.416 187.734 35.2758C190.381 40.1357 196.453 41.9217 201.295 39.2651Z" fill="#FFB8B8"/>
<path d="M208.718 28.3998C208.75 26.7119 208.443 25.0349 207.816 23.4683C207.189 21.9017 206.255 20.4776 205.069 19.2805C203.883 18.0834 202.47 17.1378 200.912 16.4998C199.355 15.8619 197.686 15.5446 196.004 15.5668C194.322 15.5891 192.661 15.9504 191.121 16.6294C189.581 17.3083 188.193 18.291 187.039 19.519C185.885 20.7471 184.988 22.1955 184.403 23.7781C183.817 25.3607 183.555 27.0452 183.631 28.7317C192.184 28.7499 200.737 28.7681 208.718 28.3998Z" fill="#2F2E41"/>
<path d="M180.456 90.8849C180.456 90.8849 178.83 114.588 179.712 121.819C180.594 129.049 190.203 192.263 190.203 192.263L197.45 192.25L199.602 117.757L208.173 192.974L215.668 192.192L219.92 118.616C219.92 118.616 219.253 91.0702 213.834 88.3081L180.456 90.8849Z" fill="#A0616A"/>
<path d="M191.824 114.381C186.501 114.379 181.254 113.104 176.52 110.662L176.416 110.609L180.422 83.9314L180.162 52.137C180.155 51.2644 180.321 50.399 180.651 49.5915C180.981 48.7839 181.467 48.0503 182.082 47.4336C182.698 46.8168 183.429 46.3291 184.234 45.9991C185.039 45.669 185.901 45.5031 186.771 45.5111L208.267 45.7091C209.219 45.7179 210.159 45.9231 211.028 46.312C211.897 46.701 212.678 47.2653 213.32 47.9698C213.963 48.6744 214.454 49.5041 214.764 50.4074C215.073 51.3107 215.194 52.2683 215.119 53.2205L213.107 78.7091L219.76 99.3971L218.604 100.94C215.486 105.113 211.443 108.501 206.795 110.834C202.147 113.167 197.021 114.381 191.824 114.381Z" fill="#C5B1FF"/>
<path d="M178.002 72.9408L180.255 49.8735L180.979 48.8397C181.475 48.1316 182.105 47.5287 182.834 47.0658C183.562 46.6028 184.375 46.2889 185.225 46.1419C186.075 45.995 186.945 46.0179 187.786 46.2095C188.627 46.401 189.422 46.7574 190.126 47.2581L190.746 47.6999L190.134 71.0766L178.002 72.9408Z" fill="#C5B1FF"/>
<path d="M270.302 185.638C276.125 184.024 278.61 192.899 272.802 194.565C266.979 196.179 264.494 187.304 270.302 185.638Z" fill="#9A9A9A"/>
<path d="M238.015 197.061C243.839 195.446 246.324 204.321 240.515 205.987C234.692 207.601 232.207 198.726 238.015 197.061Z" fill="#9A9A9A"/>
<path d="M224.948 103.461L225.038 103.435L240.038 144.303L242.015 143.746L226.908 102.584C226.876 101.95 226.628 101.346 226.206 100.873C225.784 100.399 225.213 100.085 224.589 99.9815C217.088 98.7911 214.047 105.474 214.047 105.474L214.077 105.518L229.412 147.301L231.389 146.743L216.506 106.19C221.037 101.692 224.948 103.461 224.948 103.461Z" fill="#3F3D56"/>
<path d="M242.139 199.36C239.999 199.341 237.921 198.637 236.207 197.35C234.493 196.064 233.234 194.262 232.612 192.206C229.749 182.803 222.995 160.272 222.1 154.157C220.934 146.196 227.5 143.932 227.647 143.884C227.823 143.824 230.463 143.082 234.117 142.056C240.328 140.312 249.713 137.676 250.058 137.52C251.513 137.012 253.056 136.812 254.591 136.931C256.126 137.05 257.62 137.486 258.979 138.211C260.38 138.951 261.617 139.969 262.614 141.203C263.611 142.437 264.347 143.862 264.778 145.391L274.439 179.886C275.035 182.001 274.868 184.259 273.967 186.262C273.066 188.265 271.489 189.884 269.515 190.834C262.06 194.429 251.127 199.223 242.286 199.359C242.237 199.359 242.188 199.36 242.139 199.36Z" fill="#E9C547"/>
<path d="M223.353 102.047L218.497 73.5759L217.955 63.9671L210.103 66.5481L216.725 103.829C216.458 104.555 216.394 105.34 216.542 106.1C216.689 106.859 217.042 107.563 217.561 108.134C218.081 108.706 218.747 109.123 219.486 109.341C220.226 109.558 221.011 109.567 221.756 109.367C222.5 109.167 223.175 108.765 223.708 108.206C224.24 107.646 224.609 106.951 224.774 106.195C224.939 105.44 224.893 104.653 224.643 103.921C224.392 103.19 223.946 102.541 223.353 102.047V102.047Z" fill="#FFB7B7"/>
<path d="M219.825 71.7901L207.57 71.1211L204.691 47.9154L204.971 47.6715C205.661 47.0708 206.463 46.6127 207.33 46.3237C208.197 46.0347 209.112 45.9203 210.023 45.9872C210.934 46.0541 211.823 46.3009 212.639 46.7134C213.455 47.126 214.181 47.6962 214.777 48.3913L215.343 49.053L215.352 49.0948L219.825 71.7901Z" fill="#C5B1FF"/>
<path d="M269.729 185.144L257.204 142.598L227.75 150.951L227.574 150.327L257.643 141.798L257.734 142.106L270.35 184.96L269.729 185.144Z" fill="#3F3D56"/>
<path d="M47.1549 89.2944L45.8212 60.1078L59.4828 33.3065L60.0586 33.6022L46.4756 60.25L47.8013 89.2646L47.1549 89.2944Z" fill="#3F3D56"/>
<path d="M298.676 207H0.323944C0.238028 207 0.155632 206.947 0.0948807 206.854C0.0341294 206.76 0 206.633 0 206.5C0 206.367 0.0341294 206.24 0.0948807 206.146C0.155632 206.053 0.238028 206 0.323944 206H298.676C298.762 206 298.844 206.053 298.905 206.146C298.966 206.24 299 206.367 299 206.5C299 206.633 298.966 206.76 298.905 206.854C298.844 206.947 298.762 207 298.676 207Z" fill="#CCCCCC"/>
<path d="M68.1792 80.9008L65.3321 72.4015L64.6434 44.0696L65.8565 40.0498C66.2932 38.603 67.0163 37.2595 67.9827 36.0999C68.9491 34.9404 70.1388 33.9885 71.4806 33.3015C72.8223 32.6144 74.2884 32.2062 75.7911 32.1015C77.2938 31.9967 78.8021 32.1975 80.2256 32.6917C81.6491 33.186 82.9585 33.9636 84.0754 34.9779C85.1923 35.9922 86.0936 37.2224 86.7254 38.5947C87.3572 39.967 87.7064 41.4532 87.7522 42.9642C87.7979 44.4752 87.5393 45.98 86.9916 47.3882L80.4896 64.1097L80.8201 64.7535L94.9068 64.639L99.9106 73.6783L68.1792 80.9008Z" fill="#3F3D56"/>
<path d="M157.917 141.384L157.907 141.386L142.294 144.523L128.863 149.951C128.689 150.021 128.504 150.056 128.317 150.054C128.129 150.053 127.944 150.014 127.772 149.94C127.6 149.867 127.444 149.76 127.313 149.625C127.182 149.491 127.078 149.333 127.008 149.158C126.992 149.117 126.977 149.076 126.965 149.033L117.153 116.061C117.05 115.719 117.078 115.351 117.233 115.03C117.387 114.708 117.656 114.456 117.986 114.325L131.663 108.797L131.673 108.795L147.286 105.658L160.717 100.23C161.068 100.088 161.46 100.092 161.808 100.241C162.156 100.389 162.431 100.67 162.572 101.022C162.588 101.063 162.603 101.105 162.615 101.147L172.427 134.12C172.53 134.461 172.502 134.829 172.348 135.151C172.193 135.473 171.924 135.724 171.594 135.856L157.917 141.384Z" fill="#E5E5E5"/>
<path d="M141.163 119.236C137.583 117.968 133.882 116.857 130.165 115.934L129.978 115.888L131.866 122.23L141.481 119.348L141.163 119.236ZM132.013 121.956L130.298 116.195C133.837 117.078 137.357 118.133 140.772 119.331L132.013 121.956ZM159.924 127.809C158.258 126.863 156.567 125.958 154.853 125.092C154.38 124.853 153.906 124.617 153.43 124.385C150.527 122.968 147.579 121.676 144.587 120.509L144.552 120.495L132.43 124.128L135.741 135.252L160.149 127.936L159.924 127.809ZM135.888 134.978L132.703 124.276L144.543 120.727C147.428 121.854 150.28 123.101 153.1 124.469C153.589 124.707 154.077 124.948 154.563 125.193C156.261 126.046 157.937 126.939 159.592 127.874L135.888 134.978ZM159.924 127.809C158.258 126.863 156.567 125.958 154.853 125.092C154.38 124.853 153.906 124.617 153.43 124.385C150.527 122.968 147.579 121.676 144.587 120.509L144.552 120.495L132.43 124.128L135.741 135.252L160.149 127.936L159.924 127.809ZM135.888 134.978L132.703 124.276L144.543 120.727C147.428 121.854 150.28 123.101 153.1 124.469C153.589 124.707 154.077 124.948 154.563 125.193C156.261 126.046 157.937 126.939 159.592 127.874L135.888 134.978ZM141.163 119.236C137.583 117.968 133.882 116.857 130.165 115.934L129.978 115.888L131.866 122.23L141.481 119.348L141.163 119.236ZM132.013 121.956L130.298 116.195C133.837 117.078 137.357 118.133 140.772 119.331L132.013 121.956ZM141.163 119.236C137.583 117.968 133.882 116.857 130.165 115.934L129.978 115.888L131.866 122.23L141.481 119.348L141.163 119.236ZM132.013 121.956L130.298 116.195C133.837 117.078 137.357 118.133 140.772 119.331L132.013 121.956ZM159.924 127.809C158.258 126.863 156.567 125.958 154.853 125.092C154.38 124.853 153.906 124.617 153.43 124.385C150.527 122.968 147.579 121.676 144.587 120.509L144.552 120.495L132.43 124.128L135.741 135.252L160.149 127.936L159.924 127.809ZM135.888 134.978L132.703 124.276L144.543 120.727C147.428 121.854 150.28 123.101 153.1 124.469C153.589 124.707 154.077 124.948 154.563 125.193C156.261 126.046 157.937 126.939 159.592 127.874L135.888 134.978ZM125.905 140.267L125.968 140.478L134.267 137.991L135.177 141.048L126.878 143.536L126.941 143.747L135.45 141.196L134.414 137.717L125.905 140.267ZM137.906 142.527L138.541 144.664L138.746 144.582L138.178 142.675L170.538 132.977L170.475 132.766L137.906 142.527ZM168.938 127.599L168.875 127.388L136.305 137.15L137.341 140.629L169.91 130.868L169.847 130.657L137.488 140.356L136.578 137.298L168.938 127.599ZM144.749 118.139C139.789 116.226 134.694 114.687 129.507 113.534L128.871 111.399L128.667 111.482L129.307 113.633L129.522 113.763C134.69 114.915 139.765 116.451 144.706 118.358L144.741 118.371L164.435 112.469L164.372 112.258L144.749 118.139ZM129.702 122.649L121.403 125.136L121.465 125.347L129.975 122.797L126.828 112.224L126.624 112.307L129.702 122.649ZM165 114.366L147.686 119.556L147.968 119.674C150.624 120.796 153.272 122.036 155.914 123.394C156.289 123.586 156.664 123.782 157.039 123.98C158.904 124.963 160.754 126.001 162.59 127.093L162.794 127.144L168.31 125.49L168.247 125.28L162.745 126.929C160.928 125.847 159.095 124.817 157.245 123.84C156.875 123.644 156.504 123.451 156.133 123.259C153.547 121.926 150.948 120.704 148.334 119.591L165.063 114.577L165 114.366ZM127.505 145.644L127.568 145.855L135.867 143.368L136.498 145.489L136.703 145.407L136.014 143.094L127.505 145.644ZM122.03 127.245L122.093 127.456L130.392 124.969L133.577 135.671L125.278 138.158L125.34 138.369L133.849 135.819L130.539 124.695L122.03 127.245ZM141.163 119.236C137.583 117.968 133.882 116.857 130.165 115.934L129.978 115.888L131.866 122.23L141.481 119.348L141.163 119.236ZM132.013 121.956L130.298 116.195C133.837 117.078 137.357 118.133 140.772 119.331L132.013 121.956ZM159.924 127.809C158.258 126.863 156.567 125.958 154.853 125.092C154.38 124.853 153.906 124.617 153.43 124.385C150.527 122.968 147.579 121.676 144.587 120.509L144.552 120.495L132.43 124.128L135.741 135.252L160.149 127.936L159.924 127.809ZM135.888 134.978L132.703 124.276L144.543 120.727C147.428 121.854 150.28 123.101 153.1 124.469C153.589 124.707 154.077 124.948 154.563 125.193C156.261 126.046 157.937 126.939 159.592 127.874L135.888 134.978ZM141.163 119.236C137.583 117.968 133.882 116.857 130.165 115.934L129.978 115.888L131.866 122.23L141.481 119.348L141.163 119.236ZM132.013 121.956L130.298 116.195C133.837 117.078 137.357 118.133 140.772 119.331L132.013 121.956ZM159.924 127.809C158.258 126.863 156.567 125.958 154.853 125.092C154.38 124.853 153.906 124.617 153.43 124.385C150.527 122.968 147.579 121.676 144.587 120.509L144.552 120.495L132.43 124.128L135.741 135.252L160.149 127.936L159.924 127.809ZM135.888 134.978L132.703 124.276L144.543 120.727C147.428 121.854 150.28 123.101 153.1 124.469C153.589 124.707 154.077 124.948 154.563 125.193C156.261 126.046 157.937 126.939 159.592 127.874L135.888 134.978Z" fill="#262626"/>
<path d="M143.951 120.229C144.746 122.899 141.698 130.292 141.698 130.292C141.698 130.292 135.11 125.787 134.315 123.117C133.934 121.835 134.075 120.453 134.709 119.275C135.343 118.097 136.416 117.221 137.694 116.838C138.972 116.455 140.349 116.597 141.522 117.233C142.696 117.869 143.569 118.947 143.951 120.229H143.951Z" fill="#0DB2B2"/>
<path d="M141.273 120.803C141.403 121.24 141.401 121.706 141.267 122.142C141.133 122.578 140.874 122.964 140.521 123.252C140.168 123.54 139.739 123.717 139.286 123.759C138.833 123.802 138.378 123.709 137.978 123.492C137.578 123.276 137.251 122.945 137.039 122.541C136.826 122.138 136.738 121.681 136.784 121.227C136.831 120.773 137.01 120.343 137.3 119.992C137.59 119.64 137.977 119.383 138.413 119.252C138.702 119.165 139.005 119.137 139.306 119.168C139.606 119.199 139.897 119.289 140.163 119.433C140.429 119.577 140.663 119.772 140.854 120.007C141.044 120.242 141.187 120.512 141.273 120.803Z" fill="#262626"/>
<path d="M142.349 133.839C143.097 133.839 143.704 133.23 143.704 132.478C143.704 131.727 143.097 131.118 142.349 131.118C141.6 131.118 140.993 131.727 140.993 132.478C140.993 133.23 141.6 133.839 142.349 133.839Z" fill="#6C63FF"/>
<path d="M157.138 114.593L147.719 117.417C147.707 117.42 147.695 117.423 147.682 117.424L149.833 108.344C149.846 108.288 149.873 108.236 149.913 108.194C149.952 108.152 150.002 108.121 150.057 108.104C150.112 108.088 150.171 108.086 150.227 108.1C150.283 108.113 150.334 108.142 150.376 108.182L154.912 112.483L155.13 112.689L157.138 114.593Z" fill="#262626"/>
<path opacity="0.2" d="M157.138 114.593L153.922 115.557L154.816 112.783L154.88 112.583L154.913 112.483L155.13 112.689L157.138 114.593Z" fill="black"/>
<path d="M162.383 113.021L154.236 115.463L155.13 112.689L155.194 112.489L156.359 108.873C156.381 108.816 156.416 108.765 156.46 108.722C156.503 108.68 156.556 108.647 156.613 108.626C156.67 108.605 156.731 108.596 156.792 108.601C156.853 108.605 156.912 108.622 156.966 108.651C156.98 108.659 156.993 108.669 157.006 108.679L162.383 113.021Z" fill="#262626"/>
</g>
<defs>
<clipPath id="clip0_76_629">
<rect width="298.582" height="207" fill="white"/>
</clipPath>
</defs>
</svg>
