<svg width="21" height="21" viewBox="0 0 21 21" fill="none" xmlns="http://www.w3.org/2000/svg">
<path d="M12.6731 17.075H5.54938C4.37206 17.075 3.415 16.1179 3.415 14.9406C3.415 13.7633 4.37206 12.8063 5.54938 12.8063H11.5256C13.1734 12.8063 14.5138 11.4659 14.5138 9.81813C14.5138 8.17039 13.1734 6.83 11.5256 6.83H7.37555C7.06201 7.4446 6.67375 8.01811 6.21957 8.5375H11.5256C12.2317 8.5375 12.8063 9.11208 12.8063 9.81813C12.8063 10.5242 12.2317 11.0988 11.5256 11.0988H5.54938C3.43123 11.0988 1.7075 12.8225 1.7075 14.9406C1.7075 17.0588 3.43123 18.7825 5.54938 18.7825H13.7394C13.3205 18.2555 12.9627 17.6827 12.6731 17.075ZM4.26875 1.7075C2.85665 1.7075 1.7075 2.85665 1.7075 4.26875C1.7075 6.99051 4.26875 8.5375 4.26875 8.5375C4.26875 8.5375 6.83 6.98966 6.83 4.26875C6.83 2.85665 5.68086 1.7075 4.26875 1.7075ZM4.26875 5.54938C4.10052 5.54932 3.93395 5.51613 3.77855 5.4517C3.62315 5.38727 3.48196 5.29286 3.36304 5.17387C3.24412 5.05487 3.14981 4.91362 3.08548 4.75817C3.02115 4.60272 2.98807 4.43613 2.98813 4.2679C2.98819 4.09967 3.02138 3.9331 3.08581 3.7777C3.15024 3.62229 3.24465 3.4811 3.36364 3.36219C3.48264 3.24327 3.62389 3.14895 3.77934 3.08463C3.93478 3.0203 4.10138 2.98722 4.26961 2.98728C4.60936 2.98739 4.93516 3.12246 5.17532 3.36279C5.41549 3.60311 5.55035 3.929 5.55023 4.26875C5.55012 4.60851 5.41504 4.93431 5.17472 5.17447C4.9344 5.41463 4.60851 5.54949 4.26875 5.54938Z" fill="#C5C5C5"/>
<path d="M16.2213 11.9525C14.8092 11.9525 13.66 13.1016 13.66 14.5137C13.66 17.2355 16.2213 18.7825 16.2213 18.7825C16.2213 18.7825 18.7825 17.2347 18.7825 14.5137C18.7825 13.1016 17.6334 11.9525 16.2213 11.9525ZM16.2213 15.7944C16.053 15.7943 15.8865 15.7611 15.731 15.6967C15.5756 15.6323 15.4345 15.5379 15.3155 15.4189C15.1966 15.2999 15.1023 15.1586 15.038 15.0032C14.9737 14.8477 14.9406 14.6811 14.9406 14.5129C14.9407 14.3447 14.9739 14.1781 15.0383 14.0227C15.1027 13.8673 15.1971 13.7261 15.3161 13.6072C15.4351 13.4883 15.5764 13.3939 15.7318 13.3296C15.8873 13.2653 16.0539 13.2322 16.2221 13.2323C16.5619 13.2324 16.8877 13.3675 17.1278 13.6078C17.368 13.8481 17.5028 14.174 17.5027 14.5137C17.5026 14.8535 17.3675 15.1793 17.1272 15.4195C16.8869 15.6596 16.561 15.7945 16.2213 15.7944Z" fill="#C5C5C5"/>
</svg>
