<svg width="532" height="415" viewBox="0 0 532 415" fill="none" xmlns="http://www.w3.org/2000/svg">
<path d="M484.259 378.851C474.061 389.7 462.375 399.067 449.547 406.677C449.252 406.856 448.953 407.025 448.653 407.2L427.885 388.936C428.103 388.735 428.344 388.509 428.605 388.261C444.079 373.661 520.901 271.585 526.02 246.728C525.667 248.799 530.639 330.01 484.259 378.851Z" fill="#262626"/>
<path d="M453.554 410.201C453.161 410.294 452.762 410.381 452.361 410.46L436.78 396.759C437.084 396.653 437.44 396.528 437.847 396.389C444.532 394.037 464.443 386.937 484.258 378.85C505.548 370.157 526.737 360.335 531.294 354.043C530.317 355.505 500.205 399.836 453.554 410.201Z" fill="#262626"/>
<path d="M483.971 108.687H481.752V48.2936C481.752 43.7033 480.842 39.158 479.074 34.9172C477.306 30.6763 474.715 26.823 471.448 23.5772C468.181 20.3314 464.303 17.7567 460.035 16.0001C455.767 14.2435 451.192 13.3394 446.572 13.3394H317.792C313.172 13.3393 308.597 14.2434 304.329 16.0001C300.06 17.7567 296.182 20.3314 292.915 23.5771C289.649 26.8229 287.057 30.6762 285.289 34.9171C283.521 39.1579 282.611 43.7032 282.611 48.2935V379.618C282.611 384.208 283.521 388.753 285.289 392.994C287.057 397.235 289.648 401.088 292.915 404.334C296.182 407.58 300.06 410.154 304.329 411.911C308.597 413.668 313.172 414.572 317.792 414.572H446.572C451.192 414.572 455.766 413.668 460.035 411.911C464.303 410.155 468.181 407.58 471.448 404.334C474.715 401.088 477.306 397.235 479.074 392.994C480.842 388.753 481.752 384.208 481.752 379.618V151.676H483.971V108.687Z" fill="#3F3D56"/>
<path d="M474.264 48.5336V379.376C474.264 382.804 473.584 386.198 472.263 389.365C470.943 392.532 469.007 395.409 466.567 397.833C464.127 400.257 461.23 402.179 458.042 403.49C454.854 404.801 451.437 405.475 447.987 405.474H318.587C315.138 405.474 311.722 404.799 308.535 403.487C305.348 402.176 302.452 400.254 300.013 397.83C297.574 395.407 295.639 392.53 294.319 389.363C292.999 386.197 292.32 382.803 292.32 379.376V48.5336C292.32 45.1063 292.999 41.7125 294.319 38.546C295.639 35.3795 297.574 32.5024 300.013 30.0789C302.452 27.6554 305.348 25.7331 308.535 24.4216C311.722 23.1102 315.138 22.4353 318.587 22.4355H334.29C333.52 24.3187 333.226 26.3612 333.436 28.3834C333.646 30.4056 334.353 32.3456 335.495 34.0326C336.637 35.7197 338.178 37.1022 339.984 38.0585C341.789 39.0148 343.804 39.5157 345.85 39.5171H419.624C421.672 39.519 423.688 39.0202 425.495 38.0648C427.303 37.1094 428.846 35.7266 429.988 34.0386C431.131 32.3506 431.837 30.4092 432.046 28.3856C432.254 26.3621 431.958 24.3186 431.184 22.4355H447.987C451.437 22.4343 454.854 23.1084 458.042 24.4194C461.23 25.7304 464.127 27.6526 466.567 30.0761C469.007 32.4997 470.943 35.3771 472.263 38.5441C473.584 41.7111 474.264 45.1056 474.264 48.5336Z" fill="white"/>
<path d="M434.012 220.457H320.273C318.281 220.455 316.371 219.667 314.962 218.268C313.553 216.868 312.761 214.97 312.759 212.991V209.275C312.761 207.296 313.553 205.398 314.962 203.998C316.371 202.599 318.281 201.811 320.273 201.809H434.012C436.004 201.811 437.914 202.599 439.322 203.998C440.731 205.398 441.524 207.296 441.526 209.275V212.991C441.524 214.97 440.731 216.868 439.322 218.268C437.914 219.667 436.004 220.455 434.012 220.457Z" fill="#F0F0F0"/>
<path d="M434.012 252.491H320.273C318.281 252.488 316.371 251.701 314.962 250.301C313.553 248.902 312.761 247.004 312.759 245.025V241.309C312.761 239.329 313.553 237.432 314.962 236.032C316.371 234.632 318.281 233.845 320.273 233.843H434.012C436.004 233.845 437.914 234.632 439.322 236.032C440.731 237.432 441.524 239.329 441.526 241.309V245.025C441.524 247.004 440.731 248.902 439.322 250.301C437.914 251.701 436.004 252.488 434.012 252.491Z" fill="#F0F0F0"/>
<path d="M439.701 213.293H325.962C323.871 213.29 321.865 212.464 320.386 210.994C318.907 209.525 318.075 207.532 318.073 205.454V201.738C318.075 199.659 318.907 197.667 320.386 196.197C321.865 194.727 323.871 193.901 325.962 193.898H439.701C441.793 193.901 443.798 194.727 445.278 196.197C446.757 197.667 447.589 199.659 447.591 201.738V205.454C447.589 207.532 446.757 209.525 445.278 210.994C443.798 212.464 441.793 213.29 439.701 213.293ZM325.962 195.392C324.269 195.393 322.646 196.063 321.448 197.252C320.251 198.442 319.577 200.055 319.575 201.738V205.454C319.577 207.136 320.251 208.749 321.448 209.939C322.646 211.129 324.269 211.798 325.962 211.8H439.701C441.395 211.798 443.018 211.129 444.215 209.939C445.413 208.749 446.086 207.136 446.088 205.454V201.738C446.086 200.055 445.413 198.442 444.215 197.252C443.018 196.063 441.395 195.393 439.701 195.392H325.962Z" fill="#3F3D56"/>
<path d="M439.701 245.327H325.962C323.871 245.324 321.865 244.497 320.386 243.028C318.907 241.558 318.075 239.566 318.073 237.487V233.771C318.075 231.693 318.907 229.7 320.386 228.231C321.865 226.761 323.871 225.935 325.962 225.932H439.701C441.793 225.935 443.798 226.761 445.278 228.231C446.757 229.7 447.589 231.693 447.591 233.771V237.487C447.589 239.566 446.757 241.558 445.278 243.028C443.798 244.497 441.793 245.324 439.701 245.327ZM325.962 227.425C324.269 227.427 322.646 228.096 321.448 229.286C320.251 230.476 319.577 232.089 319.575 233.771V237.487C319.577 239.17 320.251 240.783 321.448 241.973C322.646 243.162 324.269 243.831 325.962 243.833H439.701C441.395 243.831 443.018 243.162 444.215 241.973C445.413 240.783 446.086 239.17 446.088 237.487V233.771C446.086 232.089 445.413 230.476 444.215 229.286C443.018 228.096 441.395 227.427 439.701 227.425H325.962Z" fill="#3F3D56"/>
<path d="M474.264 48.5336V120.496C462.755 123.505 450.705 123.85 439.041 121.505C427.377 119.161 416.41 114.189 406.984 106.972C397.557 99.7559 389.922 90.487 384.667 79.8789C379.411 69.2708 376.675 57.6062 376.668 45.7825C376.668 43.672 376.754 41.5836 376.924 39.5171H419.624C421.672 39.519 423.688 39.0202 425.495 38.0648C427.303 37.1094 428.846 35.7266 429.988 34.0386C431.131 32.3506 431.837 30.4092 432.046 28.3856C432.254 26.3621 431.958 24.3186 431.184 22.4355H447.987C451.437 22.4343 454.854 23.1084 458.042 24.4194C461.23 25.7304 464.127 27.6526 466.567 30.0761C469.007 32.4997 470.943 35.3771 472.263 38.5441C473.584 41.7111 474.264 45.1056 474.264 48.5336Z" fill="#664FA7" fill-opacity="0.5"/>
<path d="M357.703 400.98C357.703 402.496 357.646 403.995 357.523 405.474H318.587C315.138 405.474 311.722 404.799 308.535 403.488C305.348 402.176 302.452 400.254 300.013 397.83C297.574 395.407 295.639 392.53 294.319 389.363C292.999 386.197 292.32 382.803 292.32 379.376V343.988C300.481 342.933 308.775 343.619 316.649 346C324.523 348.38 331.796 352.401 337.982 357.794C344.169 363.187 349.128 369.828 352.529 377.274C355.929 384.721 357.693 392.802 357.703 400.98H357.703Z" fill="#E9C547"/>
<path d="M43.6732 338.887C44.7672 339.365 46.0074 339.393 47.1218 338.963C48.2362 338.534 49.1337 337.683 49.6176 336.597L84.693 257.614C85.4958 255.806 85.7411 253.803 85.3979 251.857C85.0547 249.911 84.1383 248.11 82.7647 246.681C81.3912 245.253 79.6221 244.261 77.6812 243.831C75.7403 243.402 73.7148 243.554 71.8608 244.268H71.8607C69.7188 245.081 67.9265 246.606 66.7886 248.583C66.6076 248.896 66.4435 249.218 66.2969 249.549L31.2214 328.532C30.9824 329.071 30.8524 329.65 30.8388 330.238C30.8253 330.827 30.9285 331.412 31.1425 331.96C31.3565 332.509 31.6772 333.01 32.0862 333.435C32.4953 333.86 32.9846 334.202 33.5263 334.439L43.6732 338.887Z" fill="#C5B1FF"/>
<path d="M83.253 290.04L48.559 282.379L57.1461 259.809C58.609 254.292 62.0134 249.479 66.7418 246.243C71.4703 243.006 77.2096 241.561 82.9188 242.168L83.253 242.205L83.253 290.04Z" fill="#2F2E41"/>
<path d="M153.329 340.017C152.309 340.015 151.311 339.72 150.456 339.166C149.601 338.613 148.925 337.825 148.511 336.899L113.436 257.915C112.321 255.402 112.217 252.559 113.146 249.973C114.076 247.386 115.968 245.252 118.433 244.009C120.898 242.766 123.749 242.509 126.399 243.29C129.049 244.072 131.296 245.833 132.679 248.211V248.211C132.874 248.547 133.05 248.893 133.207 249.247L168.283 328.231C168.846 329.499 168.879 330.938 168.375 332.23C167.87 333.522 166.87 334.563 165.594 335.122L155.103 339.721L155.098 339.709C154.531 339.912 153.932 340.017 153.329 340.017Z" fill="#C5B1FF"/>
<path d="M104.811 312.894C103.616 312.895 102.47 313.368 101.625 314.208C100.779 315.047 100.304 316.186 100.303 317.374V409.213C100.304 410.401 100.779 411.54 101.625 412.379C102.47 413.219 103.616 413.692 104.811 413.693H115.902C117.097 413.692 118.243 413.219 119.088 412.379C119.933 411.54 120.409 410.401 120.41 409.213V317.374C120.409 316.186 119.933 315.047 119.088 314.208C118.243 313.368 117.097 312.895 115.902 312.894H104.811Z" fill="#C5B1FF"/>
<path d="M82.8755 312.894C81.6802 312.895 80.5342 313.368 79.689 314.208C78.8438 315.047 78.3684 316.186 78.3671 317.374V409.213C78.3684 410.401 78.8438 411.54 79.689 412.379C80.5342 413.219 81.6802 413.692 82.8755 413.693H93.9662C95.1615 413.692 96.3075 413.219 97.1527 412.379C97.9979 411.54 98.4733 410.401 98.4747 409.213V317.374C98.4733 316.186 97.9979 315.047 97.1527 314.208C96.3075 313.368 95.1615 312.895 93.9662 312.894H82.8755Z" fill="#C5B1FF"/>
<path d="M99.0573 216.676C120.222 216.676 137.379 199.629 137.379 178.6C137.379 157.571 120.222 140.524 99.0573 140.524C77.8926 140.524 60.7352 157.571 60.7352 178.6C60.7352 199.629 77.8926 216.676 99.0573 216.676Z" fill="#664FA7" fill-opacity="0.75"/>
<path d="M111.81 194.583C114.294 194.515 117.386 194.429 119.768 192.701C120.477 192.165 121.059 191.481 121.475 190.698C121.89 189.915 122.128 189.051 122.172 188.167C122.215 187.538 122.111 186.909 121.869 186.327C121.626 185.745 121.252 185.226 120.774 184.812C119.53 183.768 117.714 183.523 115.756 184.094L117.784 169.368L116.295 169.165L113.911 186.478L115.154 185.911C116.596 185.254 118.575 184.92 119.804 185.953C120.106 186.222 120.341 186.558 120.492 186.933C120.642 187.308 120.703 187.712 120.67 188.114C120.634 188.772 120.455 189.415 120.146 189.998C119.838 190.582 119.406 191.092 118.881 191.495C117.028 192.84 114.563 193.013 111.768 193.091L111.81 194.583Z" fill="#2F2E41"/>
<path d="M133.242 170.638H125.148V172.131H133.242V170.638Z" fill="#2F2E41"/>
<path d="M107.694 170.638H99.5996V172.131H107.694V170.638Z" fill="#2F2E41"/>
<path d="M137.029 340.481L123.236 240.439C123.088 239.366 122.554 238.383 121.733 237.671C120.912 236.959 119.859 236.567 118.769 236.567H108.358C108.401 236.321 108.424 236.071 108.425 235.821V232.088C108.425 230.9 107.95 229.761 107.105 228.92C106.259 228.08 105.113 227.608 103.917 227.608H94.8999C93.7042 227.608 92.5574 228.08 91.712 228.92C90.8665 229.761 90.3915 230.9 90.3914 232.088V235.821C90.393 236.071 90.4156 236.321 90.4589 236.567H80.0478C78.958 236.567 77.9051 236.96 77.0839 237.671C76.2627 238.383 75.7287 239.366 75.5808 240.439L61.7878 340.481C61.7004 341.114 61.7507 341.759 61.9351 342.372C62.1196 342.985 62.4339 343.551 62.8571 344.033C63.2803 344.515 63.8024 344.902 64.3884 345.166C64.9745 345.431 65.6107 345.568 66.2545 345.568H132.562C133.206 345.568 133.842 345.431 134.428 345.166C135.014 344.902 135.536 344.515 135.96 344.033C136.383 343.551 136.697 342.985 136.882 342.372C137.066 341.759 137.116 341.114 137.029 340.481Z" fill="#2F2E41"/>
<path d="M115.564 290.04V242.206L115.898 242.169C121.614 241.562 127.36 243.012 132.091 246.256C136.823 249.5 140.226 254.323 141.683 259.848L150.258 282.38L115.564 290.04Z" fill="#2F2E41"/>
<path d="M97.1275 217.864L70.6211 207.642C66.2867 205.97 61.9282 204.349 57.6168 202.62C55.77 201.981 54.0688 200.985 52.6112 199.689C51.3422 198.354 50.4773 196.691 50.1157 194.891C49.1963 191.03 49.3626 186.809 49.4281 182.869C49.479 178.559 49.836 174.258 50.4965 169.997C51.654 161.992 54.3723 154.287 58.4992 147.316C65.9327 135.198 78.7401 126.081 93.4721 126.808C100.292 127.145 107.152 129.577 112.219 134.21C112.748 134.837 113.341 135.409 113.989 135.914C114.439 136.082 114.929 136.114 115.398 136.008C116.017 135.968 116.636 135.938 117.255 135.917C119.404 135.827 121.557 135.917 123.691 136.186C127.58 136.603 131.266 138.124 134.309 140.566C136.841 142.73 138.902 145.786 139.114 149.181C139.216 150.74 138.957 152.302 138.356 153.745C137.755 155.188 136.828 156.475 135.647 157.506C132.484 160.154 127.972 159.224 124.179 159.024L110.283 158.292L103.242 157.922C101.792 157.846 101.796 160.085 103.242 160.162L121.956 161.147C124.963 161.305 128.062 161.693 131.072 161.514C133.385 161.41 135.593 160.527 137.334 159.011C138.924 157.56 140.108 155.724 140.771 153.683C141.435 151.641 141.554 149.464 141.118 147.363C140.154 142.781 136.721 138.991 132.698 136.736C127.223 133.667 120.684 133.373 114.558 133.827L115.355 134.155C108.425 126.765 97.8105 123.645 87.8455 124.737C77.324 125.89 67.966 131.722 61.2424 139.697C53.746 148.588 49.6609 159.675 48.0728 171.075C47.2463 177.231 46.9742 183.447 47.2597 189.65C47.248 192.386 47.719 195.103 48.6515 197.677C49.7155 200.182 51.6392 202.231 54.0806 203.46C56.8796 204.802 59.7571 205.977 62.6977 206.977L72.4632 210.743L91.6455 218.14L96.5282 220.023C97.8814 220.545 98.4676 218.381 97.1275 217.864Z" fill="#2F2E41"/>
<path d="M55.4507 141.751C53.1472 141.751 50.8954 141.073 48.9801 139.801C47.0647 138.53 45.5719 136.722 44.6904 134.608C43.8089 132.493 43.5782 130.167 44.0276 127.922C44.477 125.677 45.5863 123.615 47.2151 121.997C48.844 120.378 50.9193 119.276 53.1785 118.83C55.4378 118.383 57.7796 118.612 59.9078 119.488C62.036 120.364 63.855 121.847 65.1348 123.75C66.4145 125.653 67.0976 127.891 67.0976 130.179C67.0942 133.247 65.866 136.189 63.6825 138.358C61.499 140.528 58.5386 141.748 55.4507 141.751ZM55.4507 120.847C53.593 120.847 51.7771 121.395 50.2324 122.42C48.6878 123.445 47.484 124.903 46.7731 126.608C46.0621 128.313 45.8761 130.19 46.2385 132C46.601 133.81 47.4955 135.473 48.8091 136.778C50.1227 138.083 51.7963 138.972 53.6183 139.332C55.4403 139.692 57.3289 139.508 59.0451 138.801C60.7614 138.095 62.2284 136.899 63.2604 135.364C64.2925 133.829 64.8434 132.025 64.8434 130.179C64.8406 127.705 63.8501 125.333 62.0892 123.584C60.3284 121.834 57.941 120.85 55.4507 120.847Z" fill="#2F2E41"/>
<path d="M250.145 213.464L224.936 194.308L205.655 219.355L230.864 238.511L250.145 213.464Z" fill="#0DB2B2"/>
<path d="M107.674 42.4561C111.657 42.453 115.585 43.3766 119.145 45.153C122.704 46.9295 125.795 49.5093 128.17 52.6859L142.89 33.5632L98.7233 0L64.9431 43.8833L83.979 58.3489C85.884 53.6548 89.1577 49.6335 93.3798 46.8017C97.602 43.9698 102.58 42.4565 107.674 42.4561Z" fill="#0DB2B2"/>
<path d="M531.249 415H0.751412C0.552125 415 0.361 414.921 0.220083 414.781C0.0791659 414.641 0 414.451 0 414.253C0 414.055 0.0791659 413.866 0.220083 413.726C0.361 413.586 0.552125 413.507 0.751412 413.507H531.249C531.448 413.507 531.639 413.586 531.78 413.726C531.921 413.866 532 414.055 532 414.253C532 414.451 531.921 414.641 531.78 414.781C531.639 414.921 531.448 415 531.249 415Z" fill="#3F3D56"/>
<path d="M401.771 291.119H347.773C345.78 291.117 343.871 290.33 342.462 288.93C341.053 287.531 340.261 285.633 340.259 283.654V279.937C340.261 277.958 341.053 276.06 342.462 274.661C343.871 273.261 345.78 272.474 347.773 272.472H401.771C403.763 272.474 405.673 273.261 407.082 274.661C408.49 276.06 409.283 277.958 409.285 279.937V283.654C409.283 285.633 408.49 287.531 407.082 288.93C405.673 290.33 403.763 291.117 401.771 291.119Z" fill="#E9C547"/>
<path d="M407.46 283.955H353.462C351.37 283.953 349.365 283.126 347.886 281.657C346.407 280.187 345.575 278.195 345.572 276.116V272.4C345.575 270.322 346.407 268.329 347.886 266.86C349.365 265.39 351.37 264.563 353.462 264.561H407.46C409.552 264.563 411.558 265.39 413.037 266.86C414.516 268.329 415.348 270.322 415.35 272.4V276.116C415.348 278.195 414.516 280.187 413.037 281.657C411.558 283.126 409.552 283.953 407.46 283.955ZM353.462 266.054C351.769 266.056 350.145 266.725 348.948 267.915C347.751 269.105 347.077 270.718 347.075 272.4V276.116C347.077 277.799 347.751 279.412 348.948 280.601C350.145 281.791 351.769 282.46 353.462 282.462H407.46C409.154 282.46 410.777 281.791 411.975 280.601C413.172 279.412 413.846 277.799 413.847 276.116V272.4C413.846 270.718 413.172 269.105 411.975 267.915C410.777 266.725 409.154 266.056 407.46 266.054H353.462Z" fill="#3F3D56"/>
</svg>
