<svg width="50" height="50" viewBox="0 0 50 50" fill="none" xmlns="http://www.w3.org/2000/svg">
<path d="M32.5 15C32.5 16.9891 31.7098 18.8968 30.3033 20.3033C28.8968 21.7098 26.9891 22.5 25 22.5C23.0109 22.5 21.1032 21.7098 19.6967 20.3033C18.2902 18.8968 17.5 16.9891 17.5 15C17.5 13.0109 18.2902 11.1032 19.6967 9.6967C21.1032 8.29018 23.0109 7.5 25 7.5C26.9891 7.5 28.8968 8.29018 30.3033 9.6967C31.7098 11.1032 32.5 13.0109 32.5 15Z" fill="white"/>
<path d="M45 20C45 21.3261 44.4732 22.5979 43.5355 23.5355C42.5979 24.4732 41.3261 25 40 25C38.6739 25 37.4021 24.4732 36.4645 23.5355C35.5268 22.5979 35 21.3261 35 20C35 18.6739 35.5268 17.4021 36.4645 16.4645C37.4021 15.5268 38.6739 15 40 15C41.3261 15 42.5979 15.5268 43.5355 16.4645C44.4732 17.4021 45 18.6739 45 20Z" fill="white"/>
<path d="M35 37.5C35 34.8478 33.9464 32.3043 32.0711 30.4289C30.1957 28.5536 27.6522 27.5 25 27.5C22.3478 27.5 19.8043 28.5536 17.9289 30.4289C16.0536 32.3043 15 34.8478 15 37.5V45H35V37.5Z" fill="white"/>
<path d="M15 20C15 21.3261 14.4732 22.5979 13.5355 23.5355C12.5979 24.4732 11.3261 25 10 25C8.67392 25 7.40215 24.4732 6.46447 23.5355C5.52678 22.5979 5 21.3261 5 20C5 18.6739 5.52678 17.4021 6.46447 16.4645C7.40215 15.5268 8.67392 15 10 15C11.3261 15 12.5979 15.5268 13.5355 16.4645C14.4732 17.4021 15 18.6739 15 20Z" fill="white"/>
<path d="M40 45V37.5C40.0036 34.9582 39.3582 32.4576 38.125 30.235C39.2334 29.9514 40.3919 29.9246 41.5122 30.1568C42.6324 30.389 43.6849 30.874 44.5892 31.5748C45.4935 32.2756 46.2259 33.1737 46.7303 34.2005C47.2348 35.2274 47.498 36.3559 47.5 37.5V45H40Z" fill="white"/>
<path d="M11.875 30.235C10.6419 32.4576 9.9965 34.9582 10 37.5V45H2.5V37.5C2.49952 36.3551 2.76116 35.2253 3.26487 34.1971C3.76858 33.169 4.50098 32.2698 5.40596 31.5685C6.31093 30.8672 7.36445 30.3824 8.48577 30.1513C9.6071 29.9201 10.7665 29.9488 11.875 30.235Z" fill="white"/>
</svg>
